<?xml version="1.0" encoding="UTF-8"?>
<!-- Generator: visioncortex VTracer 0.6.3 -->
<svg version="1.1" xmlns="http://www.w3.org/2000/svg" width="1280" height="904">
<path d="M0 0 C0.99 0.66 1.98 1.32 3 2 C3 2.66 3 3.32 3 4 C3.58 4.26 4.16 4.52 4.76 4.79 C7.13 6.07 8.86 7.46 10.81 9.31 C11.44 9.89 12.06 10.46 12.71 11.05 C14 13 14 13 13.86 15.32 C12.76 18.76 11.11 20.35 8.53 22.86 C7.63 23.75 6.73 24.64 5.8 25.55 C4.86 26.46 3.91 27.37 2.94 28.31 C1.98 29.25 1.02 30.19 0.06 31.13 C-2.28 33.43 -4.64 35.72 -7 38 C-7.73 37.27 -8.45 36.54 -9.2 35.78 C-21.37 23.68 -32.47 15.77 -50.11 15.48 C-51.17 15.49 -52.22 15.49 -53.31 15.5 C-54.97 15.51 -54.97 15.51 -56.66 15.52 C-65.11 15.7 -71.56 16.77 -79 21 C-79.98 21.53 -80.96 22.06 -81.97 22.61 C-87.53 25.87 -91.71 29.4 -95.66 34.5 C-96.1 34.99 -96.54 35.49 -97 36 C-97.66 36 -98.32 36 -99 36 C-99.28 36.72 -99.56 37.44 -99.84 38.18 C-100.95 40.88 -102.21 43.45 -103.5 46.06 C-109.28 58.88 -109.59 73.65 -104.88 86.88 C-98.44 101.73 -87.91 111.79 -73 118 C-59.42 122.81 -44.98 122.29 -31.76 116.61 C-27.63 114.61 -23.86 112.69 -20.28 109.81 C-18 108 -18 108 -16 108 C-16 103.05 -16 98.1 -16 93 C-19.56 93.02 -19.56 93.02 -23.18 93.04 C-25.47 93.04 -27.76 93.05 -30.04 93.05 C-31.64 93.06 -33.23 93.07 -34.83 93.08 C-37.11 93.09 -39.4 93.09 -41.68 93.1 C-42.4 93.1 -43.12 93.11 -43.86 93.11 C-45.57 93.11 -47.29 93.06 -49 93 C-50.8 91.2 -50.13 88.46 -50.13 86.03 C-50.13 84.82 -50.14 83.61 -50.14 82.36 C-50.13 81.09 -50.13 79.81 -50.12 78.5 C-50.13 77.23 -50.13 75.95 -50.14 74.64 C-50.14 73.43 -50.13 72.22 -50.13 70.97 C-50.13 69.85 -50.13 68.73 -50.13 67.58 C-50 65 -50 65 -49 64 C-47.05 63.9 -45.09 63.86 -43.14 63.85 C-41.88 63.85 -40.63 63.84 -39.33 63.84 C-37.95 63.83 -36.57 63.83 -35.19 63.83 C-33.79 63.83 -32.38 63.83 -30.97 63.82 C-28.02 63.82 -25.07 63.81 -22.12 63.81 C-18.33 63.81 -14.54 63.8 -10.75 63.78 C-7.85 63.77 -4.94 63.77 -2.04 63.77 C-0.64 63.77 0.76 63.77 2.15 63.76 C4.1 63.75 6.05 63.75 8.01 63.76 C9.12 63.76 10.23 63.75 11.37 63.75 C14 64 14 64 16 66 C16.26 68.22 16.26 68.22 16.27 71.01 C16.28 72.06 16.29 73.1 16.3 74.18 C16.3 75.88 16.3 75.88 16.3 77.61 C16.31 78.77 16.31 79.94 16.31 81.13 C16.32 83.6 16.32 86.06 16.32 88.52 C16.31 92.29 16.34 96.05 16.36 99.82 C16.36 102.21 16.36 104.6 16.36 106.99 C16.37 108.12 16.38 109.24 16.39 110.4 C16.38 111.46 16.38 112.51 16.37 113.6 C16.37 114.52 16.37 115.45 16.37 116.4 C15.59 121.88 11.94 125.31 8.12 129.06 C6.86 130.32 6.86 130.32 5.57 131.6 C-10.47 146.59 -32.12 153.61 -53.75 153.44 C-54.74 153.43 -54.74 153.43 -55.75 153.43 C-81.49 153.22 -102.8 143.23 -121 125 C-123.19 122.45 -125.12 119.79 -127 117 C-127.5 116.3 -128 115.61 -128.52 114.89 C-141.56 96.29 -144.51 74.03 -141.54 51.81 C-138.73 37.3 -132 25.45 -123 14 C-122.21 12.99 -121.42 11.98 -120.61 10.94 C-117.74 7.71 -114.73 5.12 -111.31 2.5 C-110.69 2.02 -110.07 1.54 -109.43 1.05 C-76.82 -23.76 -33.22 -23.23 0 0 Z " fill="#000000" transform="translate(414,385)"/>
<path d="M0 0 C6.11 4.23 8.97 7.88 10.31 15.19 C10.47 16.02 10.62 16.86 10.79 17.71 C10.94 18.55 11.09 19.39 11.25 20.25 C11.43 21.1 11.61 21.96 11.79 22.84 C12.25 25.25 12.25 25.25 12.56 28.94 C13.54 36.85 16.43 42.84 22.25 48.25 C28.25 56.21 28.25 56.21 28.25 60.25 C28.91 60.25 29.57 60.25 30.25 60.25 C30.64 60.96 31.02 61.68 31.42 62.41 C31.94 63.37 32.46 64.33 33 65.31 C33.54 66.32 34.09 67.33 34.65 68.37 C35.9 70.63 37.22 72.77 38.62 74.94 C40.62 79.01 41.32 81.88 40.25 86.25 C38.16 91.06 35.78 95.66 33.25 100.25 C32.59 100.25 31.93 100.25 31.25 100.25 C31.16 101.52 31.16 101.52 31.06 102.81 C30.15 106.68 28.71 108.53 26.11 111.44 C24.98 113.3 24.98 113.3 25.9 115.62 C27.83 119.39 30.01 123 32.2 126.63 C33.25 129.25 33.25 129.25 32.61 131.53 C31.25 133.25 31.25 133.25 28.25 134.25 C28.31 135.03 28.37 135.82 28.44 136.62 C28.38 137.49 28.31 138.36 28.25 139.25 C25.25 141.25 25.25 141.25 22.25 141.25 C22.19 142.2 22.13 143.16 22.07 144.14 C21.98 145.39 21.9 146.65 21.81 147.94 C21.69 149.8 21.69 149.8 21.57 151.7 C21.25 155.25 21.25 155.25 20.72 157.6 C19.99 161.7 20.11 165.78 20.12 169.94 C20.12 170.8 20.12 171.67 20.11 172.56 C20.11 173.39 20.12 174.22 20.12 175.07 C20.12 176.2 20.12 176.2 20.12 177.36 C20.13 179.34 20.13 179.34 21.25 181.25 C22.3 194.21 21.08 206.62 18.25 219.25 C17.98 220.7 17.71 222.16 17.45 223.61 C17.32 224.34 17.2 225.06 17.06 225.81 C16.94 226.51 16.82 227.21 16.69 227.94 C15.47 234.77 15.47 234.77 14.16 237.61 C12.53 242.34 13.22 247.36 13.42 252.3 C13.53 257.14 13.46 260.34 10.25 264.25 C6.13 266.76 2.85 266.29 -1.75 265.25 C-2.41 264.59 -3.07 263.93 -3.75 263.25 C-3.31 261.13 -2.86 259.01 -2.33 256.91 C-1.31 252.24 -1.05 247.5 -0.69 242.75 C-0.53 240.78 -0.38 238.81 -0.21 236.84 C-0.15 235.98 -0.08 235.13 -0.02 234.24 C0.25 232.25 0.25 232.25 1.25 231.25 C2.37 224.18 2.49 216.95 2.75 209.81 C2.96 204.04 3.23 198.33 3.91 192.59 C4.32 188.29 3.96 184.91 2.86 180.76 C1.52 175.26 0.95 169.6 0.19 164 C-0.16 161.52 -0.5 159.03 -0.85 156.55 C-1 155.46 -1.15 154.37 -1.3 153.25 C-1.7 150.56 -2.19 147.91 -2.75 145.25 C-9.04 146.96 -9.04 146.96 -13.25 151.62 C-13.96 152.96 -14.65 154.32 -15.31 155.69 C-16.07 157.14 -16.82 158.58 -17.58 160.03 C-18.13 161.1 -18.13 161.1 -18.69 162.2 C-20.19 165.09 -21.84 167.89 -23.5 170.69 C-25.54 174.18 -27.58 177.67 -29.56 181.19 C-29.94 181.86 -30.32 182.53 -30.71 183.21 C-33.26 188.19 -34.26 192.94 -35.06 198.44 C-36.05 204.59 -37.46 209.59 -40.55 215.06 C-42.13 217.95 -43.1 220.9 -44.05 224.05 C-44.75 226.25 -44.75 226.25 -45.63 228.39 C-47.9 234.06 -47.74 238.44 -46.78 244.45 C-46.74 247.93 -47.89 249.37 -49.75 252.25 C-50.31 254.68 -50.31 254.68 -50.44 257.06 C-50.5 257.85 -50.57 258.64 -50.64 259.46 C-50.67 260.05 -50.71 260.64 -50.75 261.25 C-51.74 261.25 -52.73 261.25 -53.75 261.25 C-54.08 259.6 -54.41 257.95 -54.75 256.25 C-56.73 258.04 -57.87 259.48 -59.12 261.88 C-60.75 264.25 -60.75 264.25 -62.88 265.06 C-73.71 265.77 -73.71 265.77 -76.75 264.25 C-76.56 261.94 -76.56 261.94 -75.75 259.25 C-73.31 257.62 -73.31 257.62 -70.75 256.25 C-68.39 252.71 -67.69 249.32 -66.75 245.25 C-66.23 243.1 -65.71 240.96 -65.19 238.81 C-64.81 237.27 -64.81 237.27 -64.43 235.69 C-63.75 233.25 -63.75 233.25 -62.75 232.25 C-62.21 229.61 -61.79 226.96 -61.35 224.3 C-60.68 220.88 -59.72 217.6 -58.75 214.25 C-58.09 211.53 -57.49 208.79 -56.88 206.06 C-55.47 199.93 -53.81 193.99 -51.68 188.06 C-50.76 185.27 -50.04 182.46 -49.35 179.6 C-48.11 174.74 -46.66 169.94 -45.25 165.12 C-44.94 164.07 -44.63 163.01 -44.32 161.92 C-43.12 157.83 -41.93 153.77 -40.54 149.75 C-39.51 146.5 -39.55 143.63 -39.75 140.25 C-40.08 139.92 -40.41 139.59 -40.75 139.25 C-41.43 133.64 -39.44 129.98 -36.75 125.25 C-37.86 124.92 -38.98 124.59 -40.12 124.25 C-42.6 123.23 -43.53 122.73 -44.66 120.27 C-45.19 118.06 -45.19 118.06 -45.75 114.25 C-46.41 114.25 -47.07 114.25 -47.75 114.25 C-49.78 111.21 -50.67 108.72 -51.75 105.25 C-52.1 104.17 -52.46 103.1 -52.82 101.99 C-53.17 100.86 -53.52 99.73 -53.88 98.56 C-54.23 97.44 -54.58 96.33 -54.95 95.18 C-57.25 85.61 -55.61 78.41 -51.06 69.88 C-50.13 68.05 -49.21 66.22 -48.29 64.38 C-47.85 63.51 -47.4 62.63 -46.95 61.73 C-45.37 58.46 -44.14 55.17 -42.94 51.75 C-41.23 47.17 -39.81 44.2 -35.75 41.25 C-35 40.94 -34.24 40.63 -33.47 40.31 C-30.83 39.18 -28.87 38.21 -26.75 36.25 C-25.93 33.08 -25.87 30.21 -25.83 26.93 C-25.63 17.96 -24.4 8.54 -18.28 1.64 C-13.17 -2.99 -5.93 -3.23 0 0 Z M-33.75 65.25 C-34.22 66.13 -34.69 67.01 -35.18 67.92 C-36.11 69.66 -36.11 69.66 -37.06 71.44 C-37.68 72.59 -38.29 73.73 -38.93 74.92 C-40.75 78.25 -40.75 78.25 -42.49 80.91 C-45.57 86.62 -42.38 94.14 -40.66 99.99 C-39.67 102.44 -38.36 104.17 -36.75 106.25 C-36.03 108.23 -35.35 110.23 -34.75 112.25 C-33.76 112.25 -32.77 112.25 -31.75 112.25 C-31.6 109.15 -31.52 106.04 -31.44 102.94 C-31.4 102.06 -31.35 101.18 -31.31 100.27 C-31.26 97.83 -31.26 95.64 -31.75 93.25 C-34.09 91.05 -34.09 91.05 -36.75 90.25 C-36.46 89.23 -36.46 89.23 -36.16 88.2 C-34.83 83.42 -33.54 78.64 -32.44 73.81 C-32.26 73.03 -32.07 72.25 -31.89 71.44 C-31.72 68.81 -32.4 67.48 -33.75 65.25 Z M13.25 65.25 C12.22 71.41 12.18 77.47 12.29 83.7 C12.33 86.84 12.25 89.24 11.25 92.25 C12.47 95.68 14.62 97.79 17.25 100.25 C18.74 99.75 18.74 99.75 20.25 99.25 C20.25 98.59 20.25 97.93 20.25 97.25 C21.24 96.92 22.23 96.59 23.25 96.25 C25.96 91.43 28.26 85.79 27.25 80.25 C24.27 74.65 19.78 69.66 15.25 65.25 C14.59 65.25 13.93 65.25 13.25 65.25 Z " fill="#000000" transform="translate(681.75,273.75)"/>
<path d="M0 0 C12.73 10.46 21.06 24.97 23.2 41.42 C23.66 48.5 23.82 54.74 21.2 61.42 C19.34 63.27 16.7 62.54 14.24 62.54 C13.38 62.54 12.52 62.53 11.64 62.53 C10.74 62.53 9.84 62.53 8.92 62.53 C5.94 62.53 2.96 62.52 -0.02 62.52 C-2.09 62.51 -4.15 62.51 -6.21 62.51 C-11.64 62.51 -17.08 62.5 -22.52 62.49 C-28.06 62.48 -33.6 62.47 -39.15 62.47 C-50.03 62.46 -60.92 62.44 -71.8 62.42 C-71.37 63.12 -70.94 63.81 -70.49 64.53 C-69.93 65.44 -69.38 66.35 -68.8 67.29 C-68.24 68.2 -67.69 69.1 -67.11 70.03 C-65.8 72.42 -65.8 72.42 -65.8 74.42 C-65.14 74.42 -64.48 74.42 -63.8 74.42 C-63.24 74.99 -62.69 75.57 -62.11 76.17 C-55.83 82.28 -48.41 84.47 -39.8 84.85 C-30.99 84.72 -21.87 82.27 -14.61 77.18 C-11.8 75.42 -11.8 75.42 -9.87 75.59 C-5.62 77.29 -2.67 81.04 0.51 84.23 C1.26 84.96 2.02 85.68 2.79 86.43 C3.85 87.48 3.85 87.48 4.94 88.56 C5.59 89.21 6.24 89.85 6.91 90.51 C8.2 92.42 8.2 92.42 8.01 94.56 C5.26 100.85 -5.79 104.85 -11.8 107.42 C-12.71 107.81 -13.62 108.21 -14.56 108.62 C-22.92 111.6 -31.05 111.84 -39.86 111.92 C-41.03 111.94 -42.21 111.95 -43.41 111.97 C-56.87 111.88 -67.66 107.76 -78.8 100.42 C-79.99 99.67 -79.99 99.67 -81.2 98.9 C-92.56 91.01 -100.4 77.44 -103.57 64.19 C-106.98 44.95 -103.36 29.13 -93.8 12.42 C-93.14 12.42 -92.48 12.42 -91.8 12.42 C-91.56 11.68 -91.33 10.95 -91.08 10.19 C-85.82 -1.21 -70.88 -7.41 -59.88 -11.6 C-39.74 -18.02 -16.4 -12.87 0 0 Z M-64.8 23.42 C-68.03 27.63 -70.51 31.24 -71.8 36.42 C-51.34 36.42 -30.88 36.42 -9.8 36.42 C-15.31 25.4 -20.07 18.34 -31.8 14.42 C-44.14 12.15 -55.79 13.99 -64.8 23.42 Z " fill="#000000" transform="translate(968.801513671875,426.58251953125)"/>
<path d="M0 0 C1.25 -0.01 2.51 -0.02 3.8 -0.04 C5.6 -0.04 5.6 -0.04 7.43 -0.04 C8.54 -0.05 9.64 -0.05 10.78 -0.06 C13.56 0.19 13.56 0.19 16.56 2.19 C16.94 4.61 16.94 4.61 16.95 7.72 C16.97 8.9 16.98 10.08 16.99 11.29 C16.99 12.58 16.98 13.88 16.98 15.22 C16.99 16.59 17 17.97 17.01 19.34 C17.03 23.08 17.03 26.82 17.04 30.56 C17.04 34.47 17.06 38.38 17.09 42.29 C17.12 49.7 17.15 57.11 17.17 64.52 C17.2 77.78 17.26 91.05 17.32 104.32 C17.34 108.98 17.36 113.64 17.37 118.3 C17.38 121.2 17.39 124.09 17.4 126.99 C17.4 128.98 17.41 130.96 17.41 132.95 C17.41 134.13 17.42 135.31 17.42 136.53 C17.43 137.55 17.43 138.58 17.43 139.64 C17.45 142.31 17.45 142.31 18.56 145.19 C21.69 147.27 22.39 147.44 25.94 147.38 C26.69 147.37 27.44 147.36 28.21 147.36 C31.02 147.2 31.02 147.2 35.56 146.19 C35.56 154.44 35.56 162.69 35.56 171.19 C27.67 174.57 27.67 174.57 23.64 174.62 C22.76 174.63 21.89 174.64 20.99 174.66 C20.08 174.65 19.18 174.64 18.25 174.62 C17.32 174.62 16.38 174.61 15.42 174.6 C8.83 174.45 3.23 173.8 -2.44 170.19 C-3.01 169.83 -3.59 169.46 -4.18 169.09 C-10.38 164.54 -13.44 158.34 -15.01 151 C-15.88 145.26 -15.7 139.46 -15.66 133.67 C-15.66 132.22 -15.66 130.77 -15.67 129.32 C-15.67 125.41 -15.65 121.5 -15.64 117.59 C-15.63 113.5 -15.63 109.4 -15.62 105.3 C-15.62 97.56 -15.6 89.81 -15.58 82.07 C-15.56 73.25 -15.55 64.42 -15.54 55.6 C-15.52 37.46 -15.48 19.33 -15.44 1.19 C-10.99 -1.04 -4.89 0 0 0 Z " fill="#000000" transform="translate(762.4375,363.8125)"/>
<path d="M0 0 C1.42 0.75 2.82 1.54 4.19 2.38 C5.03 2.88 5.87 3.39 6.73 3.91 C11.23 6.75 11.23 6.75 13.19 8.38 C13.19 9.04 13.19 9.69 13.19 10.38 C14.15 10.75 14.15 10.75 15.12 11.12 C17.19 12.38 17.19 12.38 18.01 14.16 C18.27 17.34 17.03 18.55 15.12 21.06 C14.48 21.94 13.83 22.81 13.17 23.71 C12.51 24.59 11.86 25.47 11.19 26.38 C8.05 30.95 4.98 35.57 2.19 40.38 C1.68 39.99 1.17 39.6 0.65 39.2 C-0.78 38.12 -2.22 37.04 -3.67 35.97 C-5.38 34.7 -7.07 33.38 -8.75 32.06 C-12.78 29.84 -16.23 29.18 -20.81 29.38 C-26.05 30.94 -29.4 33.11 -32.81 37.38 C-35.38 42.59 -36.2 47.33 -36.24 53.17 C-36.26 53.9 -36.27 54.63 -36.28 55.39 C-36.31 57.78 -36.32 60.17 -36.32 62.56 C-36.34 64.23 -36.36 65.9 -36.38 67.57 C-36.43 71.95 -36.46 76.32 -36.48 80.69 C-36.51 85.16 -36.56 89.63 -36.6 94.11 C-36.69 102.86 -36.76 111.62 -36.81 120.38 C-47.04 120.38 -57.27 120.38 -67.81 120.38 C-67.81 81.11 -67.81 41.83 -67.81 1.38 C-57.58 1.38 -47.35 1.38 -36.81 1.38 C-36.48 4.35 -36.15 7.31 -35.81 10.38 C-35.36 9.67 -34.9 8.97 -34.44 8.25 C-25.85 -1.16 -12.04 -5.14 0 0 Z " fill="#000000" transform="translate(573.8125,414.625)"/>
<path d="M0 0 C10.23 0 20.46 0 31 0 C32.61 1.61 32.13 3.33 32.13 5.56 C32.13 6.54 32.13 7.52 32.14 8.54 C32.13 9.63 32.13 10.72 32.13 11.84 C32.13 12.98 32.13 14.12 32.13 15.29 C32.14 19.08 32.14 22.87 32.13 26.66 C32.13 29.28 32.13 31.89 32.14 34.51 C32.14 40.01 32.14 45.51 32.13 51.01 C32.12 57.37 32.13 63.74 32.13 70.1 C32.14 76.21 32.14 82.33 32.13 88.44 C32.13 91.04 32.13 93.65 32.14 96.26 C32.14 99.89 32.13 103.53 32.13 107.16 C32.13 108.25 32.13 109.34 32.14 110.46 C32.13 111.45 32.13 112.43 32.13 113.44 C32.13 114.31 32.13 115.17 32.13 116.05 C32 118 32 118 31 119 C20.77 119 10.54 119 0 119 C0 79.73 0 40.46 0 0 Z " fill="#000000" transform="translate(449,416)"/>
<path d="M0 0 C0.66 -0 1.32 -0 2.01 -0 C3.41 -0 4.81 -0 6.21 0 C8.37 0.01 10.52 0 12.67 -0 C14.03 -0 15.39 -0 16.75 0 C18.62 0 18.62 0 20.52 0 C23.38 0.13 23.38 0.13 24.38 1.13 C24.47 2.66 24.5 4.2 24.5 5.73 C24.5 6.73 24.5 7.72 24.5 8.75 C24.49 10.4 24.49 10.4 24.49 12.08 C24.49 13.23 24.49 14.38 24.49 15.57 C24.49 19.39 24.48 23.22 24.47 27.04 C24.47 29.69 24.47 32.33 24.47 34.98 C24.47 41.24 24.46 47.5 24.45 53.76 C24.44 60.89 24.43 68.01 24.43 75.14 C24.41 89.8 24.4 104.47 24.38 119.13 C19.98 119.16 15.58 119.18 11.19 119.19 C9.69 119.19 8.19 119.2 6.7 119.21 C4.55 119.22 2.4 119.23 0.25 119.23 C-1.69 119.24 -1.69 119.24 -3.67 119.25 C-6.62 119.13 -6.62 119.13 -7.62 118.13 C-7.72 116.62 -7.75 115.1 -7.75 113.58 C-7.75 112.59 -7.76 111.61 -7.76 110.59 C-7.76 109.51 -7.76 108.42 -7.75 107.29 C-7.76 106.16 -7.76 105.02 -7.76 103.84 C-7.76 100.05 -7.76 96.26 -7.76 92.48 C-7.76 89.86 -7.76 87.24 -7.76 84.62 C-7.76 79.12 -7.76 73.62 -7.76 68.12 C-7.75 61.76 -7.75 55.39 -7.76 49.03 C-7.76 42.92 -7.76 36.81 -7.76 30.69 C-7.76 28.09 -7.76 25.48 -7.76 22.88 C-7.76 19.24 -7.76 15.61 -7.75 11.97 C-7.76 10.88 -7.76 9.79 -7.76 8.67 C-7.76 7.69 -7.75 6.7 -7.75 5.69 C-7.75 4.83 -7.75 3.97 -7.75 3.08 C-7.47 -1.33 -3.6 0 0 0 Z " fill="#000000" transform="translate(818.625,415.8671875)"/>
<path d="M0 0 C1.43 0.81 2.85 1.63 4.25 2.5 C4.25 6.5 4.25 6.5 2.72 8.2 C1.74 8.97 1.74 8.97 0.75 9.75 C0.1 10.27 -0.55 10.79 -1.22 11.33 C-1.72 11.71 -2.23 12.1 -2.75 12.5 C-3.76 11.98 -4.77 11.47 -5.81 10.94 C-9.71 9.24 -12.59 9.57 -16.75 10.5 C-16.75 12.15 -16.75 13.8 -16.75 15.5 C-16.2 15.77 -15.64 16.04 -15.07 16.32 C-12.54 17.57 -10.02 18.85 -7.5 20.12 C-6.63 20.55 -5.75 20.98 -4.86 21.42 C0.26 24.03 3.7 26.11 6.25 31.5 C7.23 36.63 6.83 41.16 4.75 45.94 C0.3 50.5 -5.05 53.07 -11.48 53.6 C-18.93 53.27 -25.93 51.19 -31.75 46.5 C-31.41 43.41 -30.49 42.18 -28.5 39.69 C-25.75 37.5 -25.75 37.5 -23.19 37.56 C-20.75 38.5 -20.75 38.5 -18.89 39.55 C-16.42 40.65 -14.7 40.7 -12 40.62 C-11.2 40.61 -10.4 40.59 -9.58 40.57 C-8.97 40.55 -8.37 40.52 -7.75 40.5 C-7.42 38.85 -7.09 37.2 -6.75 35.5 C-10.71 32.22 -15.02 30.7 -19.78 28.88 C-24.05 26.9 -26.97 24.68 -29.56 20.75 C-31.26 16.11 -31.84 12 -29.85 7.43 C-28.89 5.74 -27.83 4.12 -26.75 2.5 C-26.09 2.5 -25.43 2.5 -24.75 2.5 C-24.75 1.84 -24.75 1.18 -24.75 0.5 C-16.68 -3.9 -8.27 -4.13 0 0 Z " fill="#000000" transform="translate(554.75,556.5)"/>
<path d="M0 0 C2.38 1.2 4.67 2.45 6.93 3.88 C6.32 8.44 6.32 8.44 4.52 10.46 C2.99 11.6 1.46 12.74 -0.07 13.88 C-1.08 13.36 -2.1 12.85 -3.14 12.32 C-7.03 10.61 -9.92 10.95 -14.07 11.88 C-14.4 13.53 -14.73 15.18 -15.07 16.88 C-13.96 17.44 -12.85 17.99 -11.7 18.57 C-10.61 19.12 -10.61 19.12 -9.5 19.68 C-7.84 20.5 -6.17 21.29 -4.49 22.05 C1.03 24.6 4.5 26.8 7.93 31.88 C9.48 36.54 9.47 40.37 7.8 45 C4.85 49.53 1.65 52.15 -3.32 54.25 C-11.84 55.67 -19.43 53.77 -27.07 49.88 C-27.73 49.22 -28.39 48.56 -29.07 47.88 C-28.97 44.77 -27.79 43.52 -25.82 41.07 C-23.07 38.88 -23.07 38.88 -20.51 38.94 C-18.07 39.88 -18.07 39.88 -16.26 40.94 C-12.79 42.43 -9.84 42.12 -6.07 41.88 C-5.41 41.22 -4.75 40.56 -4.07 39.88 C-4.09 37.82 -4.09 37.82 -5.07 35.88 C-6.81 34.73 -6.81 34.73 -9.01 34 C-12.66 32.52 -16.05 30.87 -19.45 28.88 C-20.26 28.4 -21.07 27.93 -21.91 27.44 C-25.24 25.04 -26.78 22.76 -28.07 18.88 C-28.44 13.26 -28.27 9.72 -25.07 4.88 C-17.88 -1.76 -9.37 -3.42 0 0 Z " fill="#000000" transform="translate(743.07421875,555.12109375)"/>
<path d="M0 0 C5.59 3.28 8.49 7.54 10.76 13.59 C11.46 17.19 11.37 19.56 10.45 23.09 C8.64 24.89 5.88 24.33 3.44 24.41 C2.23 24.45 1.01 24.49 -0.24 24.53 C-1.52 24.57 -2.8 24.61 -4.12 24.65 C-6.04 24.72 -6.04 24.72 -8.01 24.78 C-11.19 24.89 -14.37 24.99 -17.55 25.09 C-17.55 25.75 -17.55 26.41 -17.55 27.09 C-13.71 28.9 -10.79 29.44 -6.55 29.09 C-5.69 28.74 -4.82 28.39 -3.93 28.03 C-1.2 26.95 -0.22 26.94 2.45 28.09 C4.2 29.4 4.2 29.4 5.45 31.09 C5.45 32.41 5.45 33.73 5.45 35.09 C0.68 38.96 -5.56 40.48 -11.62 39.9 C-18.48 38.71 -22.92 36.26 -27.29 30.91 C-31.24 25.22 -31.41 19.89 -30.55 13.09 C-28.23 7.14 -24.19 3.35 -18.82 0.02 C-13.23 -2.27 -5.64 -2.01 0 0 Z M-17.55 11.09 C-17.88 12.08 -18.21 13.07 -18.55 14.09 C-12.94 14.09 -7.33 14.09 -1.55 14.09 C-1.88 13.1 -2.21 12.11 -2.55 11.09 C-3.21 11.09 -3.87 11.09 -4.55 11.09 C-4.55 10.43 -4.55 9.77 -4.55 9.09 C-9.95 7.9 -12.9 7.99 -17.55 11.09 Z " fill="#000000" transform="translate(785.5546875,569.91015625)"/>
<path d="M0 0 C1.29 -0.03 2.57 -0.06 3.9 -0.09 C9.62 0.62 13.29 3.55 16.94 7.88 C17.67 8.73 17.67 8.73 18.43 9.59 C20.68 12.95 20.75 16.17 20.69 20.12 C20.68 20.92 20.67 21.72 20.66 22.55 C20.65 23.15 20.64 23.75 20.62 24.38 C17.91 25.73 15.78 25.49 12.74 25.47 C11.58 25.47 10.41 25.47 9.21 25.46 C7.98 25.45 6.76 25.45 5.5 25.44 C4.27 25.43 3.04 25.43 1.77 25.42 C-1.28 25.41 -4.33 25.4 -7.38 25.38 C-6.7 28.4 -6.7 28.4 -4.69 29.56 C-1.75 30.6 0.52 30.63 3.62 30.38 C4.31 30.02 4.99 29.67 5.69 29.31 C7.62 28.38 7.62 28.38 10.12 28.44 C13.41 29.67 14.66 31.54 16.62 34.38 C13.05 39.08 8.23 40.36 2.62 41.38 C-4.86 41.48 -10.37 38.93 -15.79 33.99 C-19.84 29.85 -20.59 26.07 -20.81 20.44 C-20.62 13.3 -18.62 9.9 -13.88 4.56 C-9.3 0.56 -6.11 0.06 0 0 Z M-6.38 12.38 C-7.03 13.37 -7.7 14.36 -8.38 15.38 C-2.76 15.38 2.85 15.38 8.62 15.38 C5.31 10.32 5.31 10.32 1.69 9.38 C-1.98 9.38 -3.51 10.14 -6.38 12.38 Z " fill="#000000" transform="translate(669.375,568.625)"/>
<path d="M0 0 C4.96 2.97 8.38 6.59 10.7 11.93 C11.54 15.45 11.72 18.45 11.45 22.05 C9.45 24.05 9.45 24.05 6.74 24.28 C5.62 24.27 4.5 24.26 3.34 24.25 C1.53 24.24 1.53 24.24 -0.33 24.23 C-1.6 24.21 -2.87 24.2 -4.18 24.18 C-5.46 24.17 -6.74 24.16 -8.05 24.15 C-11.22 24.13 -14.39 24.1 -17.55 24.05 C-14.02 28.12 -14.02 28.12 -8.99 29.49 C-5.86 29.09 -4.27 28.46 -1.55 27.05 C2.24 27.29 3.97 29.32 6.45 32.05 C5.43 34.84 4.75 35.88 2.12 37.36 C-5.76 40.2 -10.22 40.52 -18.24 37.8 C-23.51 35.02 -26.9 31.35 -29.55 26.05 C-30.34 20.1 -30.77 13.37 -27.87 7.93 C-20.83 -0.82 -10.9 -4.03 0 0 Z M-15.55 10.05 C-16.21 11.37 -16.87 12.69 -17.55 14.05 C-12.27 14.05 -6.99 14.05 -1.55 14.05 C-3.13 9.81 -3.13 9.81 -6.87 8.68 C-10.75 8.02 -12.26 7.98 -15.55 10.05 Z " fill="#000000" transform="translate(897.5546875,569.9453125)"/>
<path d="M0 0 C1.19 -0 2.39 -0.01 3.62 -0.01 C4.87 -0 6.12 0.01 7.41 0.02 C9.28 0 9.28 0 11.19 -0.01 C12.98 -0 12.98 -0 14.81 0 C16.46 0 16.46 0 18.13 0.01 C20.91 0.27 20.91 0.27 23.91 2.27 C24.26 5.23 24.26 5.23 24.23 8.99 C24.23 9.65 24.23 10.31 24.23 10.99 C24.22 12.39 24.21 13.78 24.19 15.18 C24.16 17.32 24.15 19.47 24.14 21.61 C24.07 32.1 24.07 32.1 22.91 33.27 C20.63 33.37 18.34 33.4 16.06 33.4 C15.38 33.4 14.69 33.4 13.99 33.4 C12.54 33.4 11.09 33.4 9.64 33.4 C7.42 33.39 5.19 33.4 2.96 33.4 C1.56 33.4 0.15 33.4 -1.25 33.4 C-2.54 33.4 -3.82 33.4 -5.15 33.4 C-8.09 33.27 -8.09 33.27 -9.09 32.27 C-9.34 28.01 -9.32 23.75 -9.33 19.48 C-9.34 17.34 -9.37 15.2 -9.41 13.06 C-9.41 11.7 -9.42 10.34 -9.42 8.99 C-9.43 7.75 -9.44 6.51 -9.45 5.23 C-9.33 4.25 -9.21 3.27 -9.09 2.27 C-5.59 -0.07 -4.14 0.01 0 0 Z " fill="#000000" transform="translate(457.09375,363.734375)"/>
<path d="M0 0 C4.25 -0.02 8.51 -0.04 12.76 -0.05 C14.21 -0.06 15.66 -0.07 17.11 -0.08 C19.18 -0.09 21.26 -0.09 23.34 -0.1 C24.59 -0.1 25.84 -0.11 27.13 -0.11 C30 0 30 0 31 1 C31.09 3.38 31.12 5.72 31.1 8.1 C31.1 8.81 31.09 9.52 31.09 10.25 C31.09 12.52 31.08 14.79 31.06 17.06 C31.06 18.6 31.05 20.14 31.05 21.67 C31.04 25.45 31.02 29.22 31 33 C26.6 33.02 22.21 33.04 17.81 33.05 C16.31 33.06 14.82 33.07 13.32 33.08 C11.17 33.09 9.03 33.09 6.88 33.1 C4.94 33.11 4.94 33.11 2.96 33.11 C0 33 0 33 -1 32 C-1.1 29.81 -1.13 27.61 -1.13 25.41 C-1.13 24.75 -1.13 24.09 -1.14 23.41 C-1.14 22.01 -1.13 20.62 -1.13 19.22 C-1.13 17.07 -1.13 14.93 -1.14 12.79 C-1.14 11.43 -1.13 10.08 -1.13 8.72 C-1.13 7.48 -1.13 6.24 -1.13 4.97 C-1 2 -1 2 0 0 Z " fill="#000000" transform="translate(812,364)"/>
<path d="M0 0 C5.64 3.48 9.6 7.46 11.41 13.98 C12.21 19.86 11.78 24.97 8.8 30.16 C4.67 35.57 -0.88 38.89 -7.59 39.98 C-14.13 39.63 -19.52 37.87 -24.4 33.42 C-25.12 32.62 -25.85 31.81 -26.59 30.98 C-27.25 30.32 -27.91 29.66 -28.59 28.98 C-31 23.36 -31.75 18.16 -29.64 12.39 C-27.37 7.52 -25.28 3.87 -20.59 0.98 C-19.73 0.46 -19.73 0.46 -18.86 -0.08 C-13.28 -2.38 -5.58 -2.19 0 0 Z M-14.59 8.98 C-14.59 9.64 -14.59 10.3 -14.59 10.98 C-15.58 11.31 -16.57 11.64 -17.59 11.98 C-19.48 15.76 -19.36 19.89 -18.59 23.98 C-16.69 26.76 -14.6 28.49 -11.59 29.98 C-7.64 30.08 -4.74 28.28 -1.59 25.98 C0.74 22.77 0.81 19.88 0.41 15.98 C-0.83 13.13 -0.83 13.13 -2.59 10.98 C-3.25 10.98 -3.91 10.98 -4.59 10.98 C-4.59 10.32 -4.59 9.66 -4.59 8.98 C-7.89 8.98 -11.19 8.98 -14.59 8.98 Z " fill="#000000" transform="translate(417.58984375,570.015625)"/>
<path d="M0 0 C3.3 0 6.6 0 10 0 C13.47 6.45 15.81 13.01 18 20 C20.45 14.61 22.29 9.14 24.04 3.48 C25 1 25 1 27 0 C28.54 -0.07 30.08 -0.08 31.62 -0.06 C32.85 -0.05 32.85 -0.05 34.1 -0.04 C34.73 -0.02 35.35 -0.01 36 0 C37.15 3.36 36.86 5.2 35.63 8.51 C35.31 9.39 34.98 10.27 34.65 11.19 C34.29 12.13 33.93 13.08 33.55 14.06 C33.19 15.04 32.82 16.02 32.44 17.03 C31.66 19.11 30.88 21.18 30.09 23.25 C28.88 26.42 27.71 29.59 26.53 32.76 C25.77 34.78 25.01 36.79 24.24 38.81 C23.89 39.75 23.54 40.7 23.18 41.68 C20.82 47.78 18.56 51.59 13.06 55.31 C10.15 56.28 8.05 56.45 5 56 C2.14 52.64 1.5 49.32 1 45 C2.26 45.1 3.52 45.21 4.81 45.31 C6.99 45.36 6.99 45.36 9 45 C11.26 42.98 11.26 42.98 12 40 C11.55 34.89 9.76 30.65 7.75 26 C5.4 20.41 3.09 14.82 1 9.12 C0.59 8.01 0.17 6.9 -0.25 5.76 C-1 3 -1 3 0 0 Z " fill="#000000" transform="translate(590,569)"/>
<path d="M0 0 C4.45 -0.53 8.57 -0.77 13 0 C15.96 2.52 17.34 5.53 19 9 C19.94 10.49 20.9 11.97 21.88 13.44 C24 16.75 24 16.75 24 19 C26.64 16.68 28.43 14.39 30.09 11.33 C34.73 2.92 34.73 2.92 38 0 C42.9 -1.28 47.06 -0.96 52 0 C51.34 1.65 50.68 3.3 50 5 C49.34 5 48.68 5 48 5 C47.88 5.59 47.76 6.19 47.63 6.8 C46.64 10.26 44.38 12.9 42.25 15.75 C40.93 17.54 39.62 19.33 38.33 21.13 C37.44 22.39 36.52 23.63 35.59 24.85 C31.63 30.42 31.23 35.28 31.19 42 C31.16 42.97 31.14 43.93 31.11 44.93 C31.05 47.28 31.02 49.64 31 52 C29.19 52.03 27.38 52.05 25.56 52.06 C24.55 52.07 23.54 52.09 22.5 52.1 C20 52 20 52 19 51 C18.93 49.48 18.92 47.96 18.93 46.44 C18.86 31.39 18.86 31.39 11 19 C9.74 17.11 8.51 15.19 7.31 13.25 C5.44 10.27 3.56 7.33 1.56 4.44 C0 2 0 2 0 0 Z " fill="#000000" transform="translate(346,556)"/>
<path d="M0 0 C5.98 0.12 5.98 0.12 7.09 1.23 C7.22 2.88 7.29 4.53 7.34 6.18 C7.37 7.2 7.4 8.21 7.44 9.25 C7.5 11.39 7.55 13.53 7.61 15.66 C7.66 17.19 7.66 17.19 7.71 18.75 C7.74 19.68 7.76 20.61 7.79 21.57 C8.12 24.47 8.74 26.64 10.09 29.23 C13.82 30.37 16.4 30.27 20.09 29.23 C20.08 28.46 20.07 27.69 20.06 26.89 C20.02 23.4 19.99 19.91 19.96 16.42 C19.95 15.2 19.93 13.99 19.91 12.74 C19.91 11.57 19.9 10.41 19.89 9.21 C19.88 8.14 19.87 7.06 19.86 5.96 C20.09 3.23 20.09 3.23 22.09 0.23 C23.96 -0.13 23.96 -0.13 26.09 -0.08 C26.79 -0.08 27.49 -0.07 28.21 -0.07 C30.09 0.23 30.09 0.23 32.09 2.23 C32.28 4.94 32.35 7.55 32.32 10.27 C32.32 11.06 32.32 11.85 32.32 12.67 C32.32 14.35 32.31 16.03 32.3 17.71 C32.28 20.29 32.28 22.86 32.28 25.44 C32.27 27.07 32.26 28.7 32.26 30.33 C32.26 31.1 32.26 31.88 32.25 32.68 C32.21 38.11 32.21 38.11 31.09 39.23 C28.05 39.3 25.02 39.23 21.97 39.17 C19.02 39.09 19.02 39.09 16.09 40.23 C11.2 40.62 6.38 40.85 2.09 38.23 C-5.01 31.13 -4.09 23.44 -4.1 13.98 C-4.11 12.88 -4.12 11.78 -4.13 10.64 C-4.14 9.6 -4.14 8.55 -4.14 7.46 C-4.14 6.51 -4.15 5.55 -4.15 4.57 C-3.84 1.59 -3.07 0.37 0 0 Z " fill="#000000" transform="translate(435.91015625,568.76953125)"/>
<path d="M0 0 C3.27 1.32 5.24 2.75 8 5 C7.2 8.78 6.16 10.63 3 13 C-1.3 12.7 -1.3 12.7 -3 11 C-8.54 10.45 -8.54 10.45 -13.44 12.56 C-15.99 16.54 -16.38 20.15 -15.44 24.75 C-13.37 27.99 -11.66 28.85 -8 30 C-5.14 29.65 -2.76 28.9 0 28 C0 27.34 0 26.68 0 26 C0.99 26 1.98 26 3 26 C3 26.66 3 27.32 3 28 C3.99 28.33 4.98 28.66 6 29 C6 29.66 6 30.32 6 31 C6.66 31 7.32 31 8 31 C7.81 33.31 7.81 33.31 7 36 C2.41 39.64 -3.17 41.37 -9 40.81 C-15.87 39.63 -20.5 37.23 -24.78 31.75 C-28.45 26.51 -28.76 21.25 -28 15 C-23.93 1.67 -12.67 -1.35 0 0 Z " fill="#000000" transform="translate(827,569)"/>
<path d="M0 0 C1.65 0 3.3 0 5 0 C5 3.3 5 6.6 5 10 C6.3 9.98 7.6 9.96 8.94 9.94 C10.29 9.92 11.65 9.93 13 10 C14 11 14 11 14.1 13.07 C14.07 15.38 14.03 17.69 14 20 C11.03 20 8.06 20 5 20 C5.33 26.27 5.66 32.54 6 39 C9.29 40.1 10.71 39.8 14 39 C14 42.3 14 45.6 14 49 C8.18 50.73 4.46 51.39 -1.27 49.31 C-4.06 47.19 -4.81 45.31 -6 42 C-6.35 38.2 -6.28 34.44 -6.19 30.62 C-6.17 29.6 -6.16 28.58 -6.15 27.53 C-6.11 25.02 -6.06 22.51 -6 20 C-7.65 20 -9.3 20 -11 20 C-11.25 17.69 -11.25 17.69 -11 15 C-8.96 13.02 -7.88 12 -5 12 C-2.92 8.15 -1.5 4.1 0 0 Z " fill="#000000" transform="translate(921,559)"/>
<path d="M0 0 C1.32 0 2.64 0 4 0 C4 3.3 4 6.6 4 10 C6.2 9.97 6.2 9.97 8.44 9.94 C9.96 9.92 11.48 9.93 13 10 C14 11 14 11 14.1 13.07 C14.07 15.38 14.03 17.69 14 20 C10.7 20 7.4 20 4 20 C4.11 22.77 4.24 25.54 4.38 28.31 C4.41 29.1 4.44 29.88 4.47 30.69 C4.51 31.45 4.55 32.21 4.59 32.99 C4.63 34.03 4.63 34.03 4.68 35.1 C4.92 37.33 4.92 37.33 7 40 C7.97 39.81 8.94 39.63 9.94 39.44 C10.95 39.29 11.96 39.15 13 39 C14 40 14 40 14.25 43.38 C14 47 14 47 12.94 48.88 C9.91 50.63 7.49 50.88 4 51 C-0.52 49.57 -3.73 48.29 -6 44 C-7.37 39.13 -7.11 34.2 -7.06 29.19 C-7.06 28.3 -7.05 27.42 -7.05 26.51 C-7.04 24.34 -7.02 22.17 -7 20 C-8.65 19.67 -10.3 19.34 -12 19 C-11.61 16.58 -11.33 15.31 -9.51 13.61 C-8.91 13.18 -8.31 12.75 -7.69 12.31 C-3.46 8.93 -1.79 5.01 0 0 Z " fill="#000000" transform="translate(574,559)"/>
<path d="M0 0 C0.81 0 1.63 0.01 2.47 0.01 C3.28 0.01 4.1 0 4.94 0 C6.97 0.13 6.97 0.13 7.97 1.13 C8.09 2.57 8.15 4.02 8.17 5.47 C8.19 6.39 8.21 7.31 8.23 8.26 C8.25 9.26 8.27 10.26 8.29 11.29 C8.31 12.31 8.33 13.33 8.35 14.38 C8.41 17.65 8.47 20.92 8.53 24.2 C8.57 26.41 8.62 28.62 8.66 30.83 C8.77 36.26 8.87 41.7 8.97 47.13 C10.62 47.13 12.27 47.13 13.97 47.13 C13.97 49.77 13.97 52.41 13.97 55.13 C11.42 56.8 10.12 57.14 7.03 56.95 C2.31 55.69 -0.31 54.21 -3.03 50.13 C-3.28 47.92 -3.28 47.92 -3.27 45.31 C-3.28 44.33 -3.28 43.35 -3.28 42.35 C-3.28 41.29 -3.27 40.24 -3.26 39.16 C-3.26 38.08 -3.26 36.99 -3.26 35.88 C-3.26 33.6 -3.25 31.31 -3.24 29.03 C-3.22 25.51 -3.22 22 -3.22 18.49 C-3.21 16.28 -3.21 14.06 -3.2 11.84 C-3.2 10.79 -3.2 9.73 -3.2 8.64 C-3.19 7.67 -3.18 6.7 -3.18 5.7 C-3.17 4.84 -3.17 3.98 -3.16 3.09 C-2.98 0.39 -2.7 0.18 0 0 Z " fill="#000000" transform="translate(633.03125,552.8671875)"/>
<path d="M0 0 C2.01 0.13 2.01 0.13 5.01 1.13 C5.34 0.8 5.67 0.47 6.01 0.13 C11.01 -0.43 14.83 -0.62 19.13 2.13 C19.75 2.79 20.37 3.45 21.01 4.13 C20.36 7.62 18.91 10.16 17.01 13.13 C14.43 12.62 11.87 12.1 9.32 11.45 C8.56 11.34 7.79 11.24 7.01 11.13 C4.33 13.81 4.7 15.27 4.59 19.02 C4.54 20.77 4.54 20.77 4.48 22.55 C4.45 23.77 4.41 25 4.38 26.26 C4.32 28.1 4.32 28.1 4.27 29.99 C4.17 33.04 4.09 36.08 4.01 39.13 C0.38 39.13 -3.25 39.13 -6.99 39.13 C-7.02 33.74 -7.04 28.35 -7.05 22.95 C-7.05 21.12 -7.06 19.28 -7.07 17.44 C-7.08 14.81 -7.09 12.18 -7.09 9.54 C-7.1 8.72 -7.1 7.89 -7.11 7.04 C-7.11 5.07 -7.05 3.1 -6.99 1.13 C-5.11 -0.75 -2.49 0.01 0 0 Z " fill="#000000" transform="translate(845.9921875,568.8671875)"/>
<path d="M0 0 C1.4 0.02 2.79 0.04 4.19 0.06 C6.32 0.06 8.46 0.05 10.59 -0.08 C17.5 -0.38 17.5 -0.38 21.31 2.06 C21.93 2.72 22.55 3.38 23.19 4.06 C22.54 7.55 21.09 10.09 19.19 13.06 C16.61 12.55 14.05 12.03 11.5 11.38 C10.74 11.27 9.97 11.17 9.19 11.06 C6.55 13.7 6.9 15.01 6.81 18.69 C6.77 19.81 6.74 20.93 6.71 22.08 C6.68 23.25 6.65 24.42 6.62 25.62 C6.57 27.94 6.5 30.25 6.43 32.57 C6.41 33.6 6.39 34.63 6.36 35.69 C6.19 38.06 6.19 38.06 5.19 39.06 C3.5 39.13 1.81 39.15 0.12 39.12 C-0.79 39.12 -1.71 39.11 -2.66 39.1 C-3.37 39.09 -4.08 39.07 -4.81 39.06 C-4.84 33.67 -4.86 28.28 -4.87 22.88 C-4.87 21.05 -4.88 19.21 -4.89 17.37 C-4.9 14.74 -4.91 12.11 -4.91 9.47 C-4.92 8.65 -4.92 7.82 -4.93 6.97 C-4.93 5 -4.87 3.03 -4.81 1.06 C-3.81 0.06 -3.81 0.06 0 0 Z " fill="#000000" transform="translate(478.8125,568.9375)"/>
</svg>
