<?xml version="1.0" encoding="UTF-8"?>
<!-- Generator: visioncortex VTracer 0.6.3 -->
<svg version="1.1" xmlns="http://www.w3.org/2000/svg" width="1280" height="906">
<path d="M0 0 C1.45 -0.02 1.45 -0.02 2.94 -0.04 C22.21 -0.08 39.47 6.8 54.75 18.31 C55.59 18.94 55.59 18.94 56.45 19.58 C59.42 21.9 61.12 23.8 62.69 27.19 C63.68 27.52 64.67 27.85 65.69 28.19 C65.69 28.85 65.69 29.51 65.69 30.19 C66.35 30.19 67.01 30.19 67.69 30.19 C67.22 34.85 65.53 36.82 62.21 40.05 C61.32 40.94 60.42 41.82 59.49 42.74 C58.54 43.65 57.6 44.56 56.62 45.5 C55.67 46.44 54.71 47.38 53.75 48.32 C51.4 50.62 49.05 52.91 46.69 55.19 C40.92 50.49 40.92 50.49 38.81 47.75 C33.38 41.2 26.6 37.92 18.69 35.19 C17.84 34.83 16.99 34.47 16.12 34.1 C11.06 32.76 6.15 32.86 0.94 32.88 C-0.1 32.86 -1.13 32.84 -2.2 32.83 C-11.81 32.82 -19.54 34.69 -27.75 39.81 C-33.09 43.11 -33.09 43.11 -36.31 44.19 C-36.31 44.85 -36.31 45.51 -36.31 46.19 C-37.01 46.72 -37.72 47.26 -38.44 47.81 C-47.43 55.24 -52.57 66.38 -54.09 77.83 C-55.16 93.69 -52.23 106.35 -42.31 119.19 C-42.31 119.85 -42.31 120.51 -42.31 121.19 C-41.32 121.52 -40.33 121.85 -39.31 122.19 C-39.31 122.85 -39.31 123.51 -39.31 124.19 C-38.74 124.46 -38.17 124.73 -37.59 125 C-35.23 126.23 -33.12 127.62 -30.94 129.12 C-16.97 138.45 -1.71 140.13 14.69 137.19 C22.61 134.56 29.79 129.79 36.69 125.19 C37.07 122.58 37.29 120.18 37.38 117.56 C37.41 116.86 37.44 116.15 37.48 115.42 C37.56 113.68 37.63 111.93 37.69 110.19 C36.69 110.19 35.7 110.2 34.67 110.2 C31 110.22 27.32 110.23 23.64 110.24 C22.05 110.25 20.46 110.25 18.86 110.26 C16.58 110.28 14.29 110.28 12 110.29 C11.29 110.29 10.57 110.3 9.83 110.3 C8.12 110.3 6.4 110.25 4.69 110.19 C2.91 108.41 3.56 105.84 3.55 103.44 C3.55 102.27 3.55 101.11 3.55 99.91 C3.55 98.68 3.56 97.45 3.56 96.19 C3.56 94.96 3.55 93.73 3.55 92.47 C3.55 91.3 3.55 90.14 3.55 88.94 C3.56 87.86 3.56 86.78 3.56 85.67 C3.69 83.19 3.69 83.19 4.69 82.19 C6.68 82.09 8.67 82.06 10.66 82.06 C12.58 82.05 12.58 82.05 14.53 82.05 C15.94 82.05 17.34 82.05 18.75 82.05 C20.18 82.05 21.61 82.05 23.04 82.05 C26.05 82.05 29.05 82.05 32.05 82.06 C35.91 82.06 39.77 82.06 43.62 82.05 C46.58 82.05 49.54 82.05 52.49 82.05 C53.91 82.05 55.34 82.05 56.76 82.05 C58.74 82.05 60.73 82.05 62.71 82.06 C64.41 82.06 64.41 82.06 66.14 82.06 C68.69 82.19 68.69 82.19 69.69 83.19 C69.8 84.84 69.85 86.5 69.86 88.16 C69.88 89.76 69.88 89.76 69.9 91.38 C69.91 92.54 69.92 93.69 69.93 94.89 C69.93 96.07 69.94 97.25 69.95 98.47 C69.96 100.98 69.97 103.49 69.98 106 C70 109.84 70.04 113.68 70.09 117.51 C70.1 119.95 70.11 122.39 70.11 124.82 C70.13 125.97 70.15 127.12 70.17 128.3 C70.15 134.49 70.04 138.57 65.69 143.19 C65.03 143.19 64.37 143.19 63.69 143.19 C63.36 144.18 63.03 145.17 62.69 146.19 C62.03 146.19 61.37 146.19 60.69 146.19 C60.69 146.85 60.69 147.51 60.69 148.19 C58.7 149.83 56.73 151.33 54.62 152.81 C53.69 153.48 53.69 153.48 52.73 154.15 C43.26 160.7 33.06 166.82 21.69 169.19 C20.74 169.39 19.8 169.59 18.82 169.8 C-5.52 174.26 -30.61 170.07 -51.31 156.19 C-57.07 151.98 -62.52 147.48 -67.31 142.19 C-67.31 141.53 -67.31 140.87 -67.31 140.19 C-67.97 140.19 -68.63 140.19 -69.31 140.19 C-85.1 122.44 -89.55 99.87 -88.5 76.9 C-88.1 71.13 -87 65.72 -85.31 60.19 C-85.06 59.27 -84.8 58.34 -84.54 57.39 C-80.64 45.01 -72.37 34.28 -63.31 25.19 C-62.58 24.43 -61.84 23.67 -61.09 22.89 C-51.44 13.53 -39.12 7.07 -26.31 3.19 C-24.49 2.6 -24.49 2.6 -22.62 2 C-15.11 0.16 -7.7 0.01 0 0 Z " fill="#FEFEFE" transform="translate(360.3125,367.8125)"/>
<path d="M0 0 C5.63 2.96 9.99 7.86 11.93 13.95 C14.09 22.55 14.09 22.55 14.01 26.71 C14.19 36.62 17.79 43.59 24.63 50.47 C28.09 54.44 30.44 58.84 32.89 63.48 C34.68 66.84 36.52 69.99 38.78 73.07 C41.52 76.9 42.59 79.97 42.56 84.7 C41.45 90.62 37.92 96.02 35.07 101.27 C34.25 102.89 33.44 104.52 32.64 106.15 C32.12 107.18 31.61 108.21 31.07 109.27 C30.41 109.27 29.75 109.27 29.07 109.27 C28.86 110.17 28.86 110.17 28.64 111.09 C28.19 112.83 27.65 114.56 27.07 116.27 C28.21 118.9 28.21 118.9 29.89 121.65 C31.91 125.13 33.67 128.5 35.07 132.27 C33.7 133.77 33.7 133.77 32.07 135.27 C31.41 135.27 30.75 135.27 30.07 135.27 C30.12 136.06 30.16 136.84 30.2 137.65 C30.07 140.27 30.07 140.27 28.07 142.27 C26.75 142.27 25.43 142.27 24.07 142.27 C22.9 152.31 21.88 162.28 21.89 172.4 C21.89 173.54 21.89 173.54 21.88 174.71 C21.86 178.62 21.86 178.62 23.07 182.27 C23.17 183.99 23.2 185.71 23.21 187.43 C23.21 188.45 23.21 189.47 23.21 190.53 C23.21 191.6 23.2 192.67 23.2 193.77 C23.2 194.84 23.21 195.92 23.21 197.02 C23.21 198.04 23.21 199.06 23.21 200.12 C23.21 201.06 23.2 202 23.2 202.97 C23.07 205.27 23.07 205.27 22.07 207.27 C21.71 209.44 21.38 211.6 21.07 213.77 C20.19 220.05 20.19 220.05 19.07 222.27 C18.64 225.38 18.26 228.48 17.91 231.6 C17.57 234.45 17.22 236.96 16.04 239.59 C14.2 244.72 14.67 250.39 14.6 255.79 C14.57 256.7 14.54 257.62 14.52 258.56 C14.5 259.81 14.5 259.81 14.47 261.08 C13.99 263.75 13.2 264.64 11.07 266.27 C8.92 266.82 8.92 266.82 6.57 267.02 C5.8 267.1 5.03 267.18 4.23 267.26 C2.07 267.27 2.07 267.27 -0.93 266.27 C-1.8 263.31 -2.07 261.69 -1.02 258.73 C0.42 254.19 0.74 249.75 1.14 245.02 C1.29 243.23 1.45 241.43 1.61 239.63 C1.68 238.84 1.74 238.05 1.81 237.24 C2.07 235.27 2.07 235.27 3.07 233.27 C4.09 225.83 4.3 218.28 4.57 210.77 C4.78 205.02 5.05 199.34 5.73 193.62 C6.14 189.32 5.78 185.93 4.68 181.78 C3.35 176.29 2.78 170.62 2.01 165.02 C1.67 162.54 1.32 160.05 0.98 157.57 C0.83 156.48 0.68 155.39 0.52 154.27 C0.12 151.58 -0.37 148.93 -0.93 146.27 C-5.17 147.51 -8.84 148.74 -11.46 152.45 C-12.71 155.03 -13.82 157.63 -14.93 160.27 C-15.65 161.66 -16.4 163.04 -17.18 164.4 C-17.58 165.12 -17.99 165.84 -18.4 166.58 C-18.91 167.47 -19.41 168.36 -19.93 169.27 C-21.06 171.29 -22.2 173.3 -23.34 175.31 C-24.13 176.71 -24.92 178.11 -25.72 179.51 C-26.8 181.43 -27.86 183.35 -28.93 185.27 C-29.48 186.25 -30.04 187.24 -30.61 188.25 C-32.24 191.99 -32.75 195.51 -33.3 199.52 C-34.25 205.67 -35.64 210.62 -38.73 216.08 C-40.31 218.98 -41.27 221.93 -42.23 225.07 C-42.93 227.27 -42.93 227.27 -43.81 229.41 C-46.09 235.13 -45.78 239.49 -45.06 245.55 C-44.88 249.17 -46.11 251.2 -47.93 254.27 C-48.46 256.95 -48.69 259.55 -48.93 262.27 C-49.92 262.27 -50.91 262.27 -51.93 262.27 C-51.93 260.62 -51.93 258.97 -51.93 257.27 C-55.33 258.41 -55.46 258.75 -56.99 261.77 C-58.72 265.17 -58.72 265.17 -60.93 266.27 C-63.13 266.34 -65.34 266.36 -67.55 266.34 C-68.74 266.33 -69.93 266.32 -71.15 266.31 C-72.07 266.3 -72.98 266.29 -73.93 266.27 C-74.26 264.95 -74.59 263.63 -74.93 262.27 C-71.18 259.27 -71.18 259.27 -68.93 259.27 C-67.08 255.05 -65.99 250.74 -64.93 246.27 C-64.41 244.13 -63.89 241.98 -63.36 239.84 C-62.99 238.29 -62.99 238.29 -62.61 236.71 C-61.93 234.27 -61.93 234.27 -60.93 233.27 C-60.56 231.61 -60.23 229.95 -59.93 228.27 C-59.04 223.38 -59.04 223.38 -57.93 222.27 C-57.62 220.74 -57.36 219.19 -57.11 217.65 C-55.44 208.05 -52.83 198.65 -49.62 189.45 C-48.96 187.39 -48.49 185.39 -48.06 183.28 C-46.8 177.46 -45.11 171.79 -43.43 166.09 C-43.12 165.03 -42.81 163.98 -42.49 162.89 C-41.3 158.82 -40.1 154.77 -38.72 150.75 C-37.38 146.55 -37.57 142.64 -38.68 138.4 C-39.05 133.74 -37.03 130.34 -34.93 126.27 C-36.04 125.94 -37.15 125.61 -38.3 125.27 C-40.77 124.25 -41.7 123.76 -42.84 121.29 C-43.36 119.09 -43.36 119.09 -43.93 115.27 C-44.59 115.27 -45.25 115.27 -45.93 115.27 C-51.15 104.76 -56.9 91.39 -53.06 79.62 C-51.88 76.85 -50.59 74.16 -49.24 71.46 C-48.31 69.53 -47.38 67.6 -46.46 65.66 C-46.01 64.74 -45.57 63.81 -45.11 62.86 C-43.6 59.55 -42.41 56.22 -41.24 52.77 C-38.68 45.89 -35.06 42.78 -28.55 39.65 C-25.84 38.6 -25.84 38.6 -25.32 36.63 C-24.79 33.48 -24.38 30.32 -23.99 27.15 C-23.64 24.52 -23.28 21.9 -22.93 19.27 C-22.79 18.3 -22.66 17.32 -22.53 16.31 C-21.6 10.65 -20.04 6.38 -15.93 2.27 C-11.02 -1.11 -5.63 -2.12 0 0 Z M-31.93 66.27 C-32.4 67.15 -32.87 68.03 -33.35 68.94 C-34.29 70.68 -34.29 70.68 -35.24 72.46 C-35.85 73.61 -36.47 74.76 -37.1 75.94 C-38.93 79.27 -38.93 79.27 -40.66 81.94 C-43.43 87.06 -41.04 93.2 -39.55 98.52 C-38.41 102.13 -37.01 105.1 -34.93 108.27 C-34.6 109.18 -34.27 110.09 -33.93 111.02 C-33.6 111.77 -33.27 112.51 -32.93 113.27 C-31.94 113.6 -30.95 113.93 -29.93 114.27 C-29.78 111 -29.69 107.73 -29.61 104.46 C-29.57 103.53 -29.53 102.6 -29.49 101.65 C-29.44 99.09 -29.44 96.78 -29.93 94.27 C-32.26 92.03 -32.26 92.03 -34.93 91.27 C-34.64 90.26 -34.64 90.26 -34.34 89.22 C-33.01 84.45 -31.71 79.67 -30.61 74.84 C-30.43 74.05 -30.25 73.27 -30.06 72.46 C-29.9 69.83 -30.57 68.5 -31.93 66.27 Z M15.07 66.27 C14.1 73.22 14.02 80.01 14.14 87.02 C14.07 90.27 14.07 90.27 13.07 93.27 C14.3 95.99 14.3 95.99 16.07 98.27 C16.73 98.27 17.39 98.27 18.07 98.27 C18.73 99.59 19.39 100.91 20.07 102.27 C25.83 97.48 28.62 91.33 29.45 83.9 C29.08 81.28 28.45 79.52 27.07 77.27 C26.41 77.27 25.75 77.27 25.07 77.27 C24.85 76.74 24.62 76.2 24.39 75.65 C22.11 71.53 19.67 67.81 15.07 66.27 Z " fill="#FEFEFE" transform="translate(679.92578125,272.7265625)"/>
<path d="M0 0 C12.21 8.36 20.22 22.51 23.6 36.66 C25.33 46.2 25.33 54.26 22.66 63.6 C-8.03 63.6 -38.72 63.6 -70.34 63.6 C-65.82 72.97 -65.82 72.97 -59.34 78.6 C-59.34 79.26 -59.34 79.92 -59.34 80.6 C-57.68 81.28 -56.01 81.94 -54.34 82.6 C-53.25 83.14 -52.15 83.67 -51.03 84.23 C-40.53 88.09 -28.25 86.05 -18.34 81.6 C-14.99 79.96 -11.66 78.29 -8.34 76.6 C-5.33 79.53 -2.33 82.47 0.66 85.41 C1.52 86.25 2.38 87.08 3.26 87.94 C4.07 88.74 4.89 89.54 5.72 90.37 C6.85 91.48 6.85 91.48 8.01 92.61 C9.66 94.6 9.66 94.6 9.66 97.6 C0.45 105.68 -12.46 110.35 -24.34 112.6 C-25.28 112.79 -26.23 112.97 -27.2 113.16 C-40.87 115.08 -54.99 113.89 -67.34 107.6 C-68 107.3 -68.67 107.01 -69.36 106.7 C-74.89 104.16 -79.9 100.78 -84.34 96.6 C-84.34 95.94 -84.34 95.28 -84.34 94.6 C-85.82 94.11 -85.82 94.11 -87.34 93.6 C-96.22 83.3 -103.2 69.42 -103.34 55.6 C-103.38 54.93 -103.41 54.25 -103.45 53.55 C-104.05 36.43 -98.98 21.22 -87.34 8.6 C-86.68 7.89 -86.02 7.17 -85.34 6.43 C-82.03 2.98 -82.03 2.98 -80.34 1.6 C-79.68 1.6 -79.02 1.6 -78.34 1.6 C-78.34 0.94 -78.34 0.28 -78.34 -0.4 C-54.2 -18.72 -24.46 -14.62 0 0 Z M-61.65 23.57 C-65.46 27.22 -68.43 30.59 -70.34 35.6 C-70.34 36.26 -70.34 36.92 -70.34 37.6 C-49.88 37.6 -29.42 37.6 -8.34 37.6 C-13.36 27.56 -17.27 22.2 -26.71 16.6 C-40.17 12.89 -50.96 14.48 -61.65 23.57 Z " fill="#FEFEFE" transform="translate(967.33984375,425.3984375)"/>
<path d="M0 0 C0.66 -0 1.32 -0 2.01 -0 C3.41 -0 4.81 -0 6.21 0 C8.37 0.01 10.52 0 12.67 -0 C14.03 -0 15.39 -0 16.75 0 C18.62 0 18.62 0 20.52 0 C23.38 0.13 23.38 0.13 24.38 1.13 C24.48 2.93 24.51 4.73 24.51 6.53 C24.52 7.71 24.52 8.88 24.53 10.09 C24.53 11.38 24.53 12.68 24.53 14.02 C24.54 15.39 24.54 16.76 24.55 18.13 C24.56 21.09 24.57 24.05 24.57 27.01 C24.58 31.69 24.61 36.38 24.63 41.06 C24.69 54.37 24.74 67.68 24.78 81 C24.79 88.34 24.82 95.69 24.86 103.04 C24.89 106.93 24.9 110.82 24.9 114.71 C24.91 118.37 24.92 122.03 24.95 125.69 C24.96 127.67 24.95 129.65 24.95 131.64 C24.96 132.82 24.97 134 24.98 135.22 C24.99 136.25 24.99 137.28 24.99 138.33 C25.44 141.61 26.39 143.51 28.38 146.13 C30.97 146.77 30.97 146.77 33.81 146.51 C34.76 146.47 35.71 146.44 36.68 146.41 C39.62 146.17 39.62 146.17 43.38 145.13 C43.38 153.38 43.38 161.63 43.38 170.13 C31.6 175.18 20.58 175.75 8.38 171.13 C-0.28 166.21 -4.33 159.67 -7.16 150.39 C-7.74 147.58 -7.75 144.95 -7.75 142.08 C-7.75 140.84 -7.76 139.6 -7.76 138.32 C-7.76 136.95 -7.76 135.57 -7.75 134.2 C-7.76 132.75 -7.76 131.31 -7.76 129.86 C-7.76 125.93 -7.76 122 -7.76 118.08 C-7.76 113.97 -7.76 109.86 -7.76 105.76 C-7.76 98.87 -7.76 91.97 -7.76 85.08 C-7.75 77.1 -7.75 69.12 -7.76 61.14 C-7.76 54.3 -7.76 47.46 -7.76 40.61 C-7.76 36.52 -7.76 32.43 -7.76 28.34 C-7.76 24.5 -7.76 20.66 -7.76 16.81 C-7.76 15.4 -7.76 13.99 -7.76 12.57 C-7.76 10.65 -7.76 8.73 -7.75 6.81 C-7.75 5.73 -7.75 4.65 -7.75 3.54 C-7.5 -1.33 -4.16 0 0 0 Z " fill="#FEFEFE" transform="translate(754.625,364.8671875)"/>
<path d="M0 0 C2 1.46 3.91 2.99 5.81 4.57 C6.42 5.07 7.02 5.56 7.64 6.07 C9.04 7.23 10.43 8.4 11.81 9.57 C10.75 15.32 7.02 19.97 3.94 24.82 C3.3 25.86 2.66 26.89 2 27.95 C1.08 29.41 1.08 29.41 0.13 30.9 C-0.43 31.8 -1 32.69 -1.58 33.62 C-2.11 34.26 -2.64 34.91 -3.19 35.57 C-6.95 35.57 -7.82 34.54 -10.69 32.2 C-15.78 28.08 -19.47 25.7 -26.19 25.57 C-31.81 26.7 -36.08 29.52 -39.32 34.22 C-43.33 42 -42.79 50.34 -42.8 58.86 C-42.81 60.53 -42.83 62.2 -42.85 63.87 C-42.89 68.23 -42.91 72.59 -42.93 76.96 C-42.95 81.42 -42.99 85.89 -43.03 90.35 C-43.1 99.09 -43.15 107.83 -43.19 116.57 C-45.99 117.98 -48.34 117.7 -51.47 117.71 C-52.72 117.71 -53.98 117.71 -55.27 117.71 C-56.58 117.71 -57.9 117.7 -59.25 117.7 C-60.57 117.7 -61.89 117.71 -63.24 117.71 C-65.12 117.71 -65.12 117.71 -67.04 117.71 C-68.19 117.71 -69.35 117.7 -70.54 117.7 C-73.19 117.57 -73.19 117.57 -74.19 116.57 C-74.28 115.03 -74.31 113.48 -74.31 111.94 C-74.31 110.93 -74.31 109.93 -74.31 108.9 C-74.31 107.79 -74.3 106.68 -74.3 105.54 C-74.3 104.38 -74.3 103.22 -74.3 102.02 C-74.3 98.16 -74.29 94.3 -74.29 90.45 C-74.28 87.78 -74.28 85.11 -74.28 82.45 C-74.28 76.13 -74.27 69.82 -74.26 63.5 C-74.25 56.31 -74.24 49.13 -74.24 41.94 C-74.23 27.15 -74.21 12.36 -74.19 -2.43 C-69.93 -2.45 -65.68 -2.47 -61.43 -2.48 C-59.98 -2.49 -58.53 -2.49 -57.08 -2.5 C-55 -2.51 -52.93 -2.52 -50.85 -2.52 C-49.6 -2.53 -48.34 -2.53 -47.05 -2.54 C-44.19 -2.43 -44.19 -2.43 -43.19 -1.43 C-42.73 1.23 -42.49 3.9 -42.19 6.57 C-41.51 5.85 -40.83 5.13 -40.12 4.39 C-28.63 -7.04 -13.85 -9.03 0 0 Z " fill="#FEFEFE" transform="translate(580.1875,418.42578125)"/>
<path d="M0 0 C0.66 -0 1.32 -0 2.01 -0 C3.41 -0 4.81 -0 6.21 0 C8.37 0.01 10.52 0 12.67 -0 C14.03 -0 15.39 -0 16.75 0 C18.62 0 18.62 0 20.52 0 C23.38 0.13 23.38 0.13 24.38 1.13 C24.47 2.66 24.5 4.19 24.5 5.73 C24.5 6.72 24.51 7.71 24.51 8.73 C24.51 9.83 24.51 10.93 24.5 12.06 C24.51 13.21 24.51 14.36 24.51 15.55 C24.51 19.37 24.51 23.19 24.51 27.01 C24.51 29.65 24.51 32.29 24.51 34.93 C24.51 40.48 24.51 46.02 24.51 51.57 C24.5 57.99 24.5 64.41 24.51 70.83 C24.51 76.99 24.51 83.16 24.51 89.32 C24.51 91.95 24.51 94.58 24.51 97.2 C24.51 100.87 24.51 104.54 24.5 108.2 C24.51 109.3 24.51 110.4 24.51 111.53 C24.51 112.52 24.5 113.52 24.5 114.54 C24.5 115.41 24.5 116.28 24.5 117.17 C24.38 119.13 24.38 119.13 23.38 120.13 C21.25 120.23 19.13 120.26 17 120.27 C15.71 120.27 14.41 120.27 13.08 120.27 C12.06 120.27 12.06 120.27 11.02 120.26 C8.95 120.26 6.88 120.26 4.81 120.27 C3.51 120.27 2.22 120.27 0.88 120.27 C-0.32 120.26 -1.52 120.26 -2.75 120.26 C-5.62 120.13 -5.62 120.13 -7.62 119.13 C-7.65 103.76 -7.67 88.4 -7.68 73.03 C-7.68 65.89 -7.69 58.76 -7.7 51.62 C-7.71 44.74 -7.72 37.86 -7.72 30.99 C-7.72 28.35 -7.73 25.72 -7.73 23.09 C-7.74 19.42 -7.74 15.75 -7.74 12.08 C-7.74 10.98 -7.75 9.88 -7.75 8.75 C-7.75 7.25 -7.75 7.25 -7.75 5.73 C-7.75 4.86 -7.75 3.99 -7.75 3.1 C-7.47 -1.34 -3.62 0 0 0 Z " fill="#FEFEFE" transform="translate(818.625,415.8671875)"/>
<path d="M0 0 C0.66 -0 1.32 -0 2.01 -0 C3.41 -0 4.81 -0 6.21 0 C8.37 0.01 10.52 0 12.67 -0 C14.03 -0 15.39 -0 16.75 0 C18.62 0 18.62 0 20.52 0 C23.38 0.13 23.38 0.13 24.38 1.13 C24.48 2.65 24.51 4.16 24.51 5.68 C24.51 6.66 24.52 7.65 24.52 8.66 C24.52 9.75 24.52 10.83 24.52 11.95 C24.52 13.09 24.53 14.23 24.53 15.4 C24.54 19.19 24.54 22.97 24.54 26.75 C24.55 29.37 24.55 31.99 24.55 34.6 C24.56 40.1 24.56 45.59 24.56 51.09 C24.56 57.44 24.57 63.8 24.59 70.16 C24.6 76.26 24.6 82.37 24.6 88.48 C24.6 91.08 24.61 93.68 24.62 96.28 C24.63 99.92 24.62 103.55 24.62 107.18 C24.62 108.27 24.63 109.35 24.63 110.47 C24.63 111.46 24.63 112.44 24.62 113.46 C24.62 114.32 24.62 115.18 24.62 116.06 C24.38 118.13 24.38 118.13 22.38 120.13 C19.5 120.38 19.5 120.38 15.87 120.36 C14.57 120.36 13.28 120.36 11.94 120.36 C11.26 120.35 10.59 120.35 9.89 120.34 C7.82 120.32 5.75 120.32 3.67 120.32 C-6.48 120.27 -6.48 120.27 -7.62 119.13 C-7.72 117.6 -7.75 116.07 -7.75 114.54 C-7.75 113.55 -7.76 112.55 -7.76 111.53 C-7.76 110.43 -7.76 109.33 -7.75 108.2 C-7.76 107.05 -7.76 105.9 -7.76 104.72 C-7.76 100.9 -7.76 97.08 -7.76 93.26 C-7.76 90.62 -7.76 87.97 -7.76 85.33 C-7.76 79.79 -7.76 74.24 -7.76 68.7 C-7.75 62.28 -7.75 55.86 -7.76 49.44 C-7.76 43.27 -7.76 37.11 -7.76 30.95 C-7.76 28.32 -7.76 25.69 -7.76 23.06 C-7.76 19.39 -7.76 15.73 -7.75 12.06 C-7.76 10.96 -7.76 9.87 -7.76 8.73 C-7.76 7.74 -7.75 6.75 -7.75 5.73 C-7.75 4.86 -7.75 3.99 -7.75 3.1 C-7.47 -1.33 -3.62 0 0 0 Z " fill="#FEFEFE" transform="translate(456.625,415.8671875)"/>
<path d="M0 0 C2.56 2.19 2.56 2.19 4 4 C2.13 7.45 0.58 10.21 -3 12 C-3.75 11.69 -4.5 11.39 -5.27 11.07 C-8.33 9.87 -10.54 9.8 -13.81 9.88 C-14.79 9.89 -15.76 9.91 -16.77 9.93 C-17.51 9.95 -18.24 9.98 -19 10 C-19 11.98 -19 13.96 -19 16 C-16.39 17.06 -13.79 18.07 -11.13 19.01 C-4.28 21.55 1.62 24.19 5 31 C5.93 35.97 5.71 40.25 3.81 44.94 C-0.21 49.51 -4.42 52.53 -10.54 53.34 C-19.21 53.46 -26.17 51.43 -33 46 C-31.44 42.18 -28.96 39.81 -26 37 C-25.36 37.29 -24.72 37.58 -24.06 37.88 C-16.15 40.79 -16.15 40.79 -8 40 C-8 38.35 -8 36.7 -8 35 C-8.62 34.7 -9.23 34.39 -9.87 34.08 C-11.65 33.2 -13.42 32.31 -15.2 31.41 C-16.95 30.53 -18.71 29.67 -20.49 28.84 C-26.14 26.04 -29.7 22.99 -32 17 C-32.9 12.73 -32.35 9.67 -30.31 5.75 C-22.08 -4.04 -11.3 -5.3 0 0 Z " fill="#FEFEFE" transform="translate(556,557)"/>
<path d="M0 0 C0.47 0.43 0.95 0.87 1.44 1.31 C0.97 5.56 -1.53 7.51 -4.56 10.31 C-5.18 9.98 -5.8 9.65 -6.44 9.31 C-10.82 7.91 -14.99 8.15 -19.56 8.31 C-19.89 9.96 -20.22 11.61 -20.56 13.31 C-15.1 16.64 -9.54 19.05 -3.56 21.31 C-3.56 21.97 -3.56 22.63 -3.56 23.31 C-2.67 23.62 -2.67 23.62 -1.75 23.94 C1.4 25.92 2.15 27.84 3.44 31.31 C4.23 36.69 3.47 40.71 0.44 45.31 C-5.08 50.54 -10.23 51.77 -17.64 51.64 C-23.81 50.95 -29.93 48.5 -34.56 44.31 C-34.56 41.31 -34.56 41.31 -32.31 38.69 C-28.4 35.31 -28.4 35.31 -25.56 35.31 C-23.89 36.31 -22.23 37.31 -20.56 38.31 C-17.11 39.1 -14.61 39.62 -11.19 38.62 C-9.17 36.99 -8.9 35.84 -8.56 33.31 C-9.22 33.31 -9.88 33.31 -10.56 33.31 C-10.56 32.65 -10.56 31.99 -10.56 31.31 C-11.51 31.07 -11.51 31.07 -12.47 30.83 C-20.69 28.59 -27.73 25.66 -32.56 18.31 C-34.46 12.63 -33.71 7.81 -31.56 2.31 C-30.9 2.31 -30.24 2.31 -29.56 2.31 C-29.23 1.32 -28.9 0.33 -28.56 -0.69 C-19.12 -6.15 -9.21 -6.07 0 0 Z " fill="#FEFEFE" transform="translate(748.5625,558.6875)"/>
<path d="M0 0 C5.01 2.75 8.91 5.39 11.19 10.75 C12.78 20.56 12.78 20.56 11.19 23.75 C1.95 23.75 -7.29 23.75 -16.81 23.75 C-12.56 29.03 -12.56 29.03 -8.25 29.19 C-5.12 28.79 -3.53 28.16 -0.81 26.75 C2.1 26.93 3.18 27.74 5.44 29.62 C7.19 31.75 7.19 31.75 7.19 34.75 C5.92 35.4 4.65 36.04 3.38 36.69 C2.31 37.23 2.31 37.23 1.23 37.78 C-3.76 40.15 -8.38 40.44 -13.81 39.75 C-19.94 37.51 -24.12 34.05 -27.81 28.75 C-29.82 22.73 -30 15.23 -27.94 9.19 C-22.41 -0.4 -10.24 -4.14 0 0 Z M-17.81 13.75 C-17.81 14.08 -17.81 14.41 -17.81 14.75 C-11.87 14.75 -5.93 14.75 0.19 14.75 C-1.46 10.63 -1.46 10.63 -4.81 8.75 C-11.18 8.03 -13.67 8.45 -17.81 13.75 Z " fill="#FEFEFE" transform="translate(896.8125,570.25)"/>
<path d="M0 0 C4.91 3.7 7.12 7.71 8.12 13.78 C7.73 19.17 7.73 19.17 6.12 20.78 C4.12 20.87 2.11 20.89 0.11 20.88 C-1.1 20.88 -2.32 20.87 -3.57 20.87 C-4.85 20.86 -6.13 20.85 -7.45 20.84 C-8.73 20.84 -10.01 20.83 -11.33 20.83 C-14.52 20.82 -17.7 20.8 -20.88 20.78 C-20.88 21.77 -20.88 22.76 -20.88 23.78 C-15.59 26.35 -11.07 26.42 -5.45 24.78 C-4.6 24.45 -3.75 24.12 -2.88 23.78 C-0.32 26.03 -0.32 26.03 2.12 28.78 C2.02 30.81 2.02 30.81 1.12 32.78 C-3.67 36.31 -9.48 37.52 -15.33 37.21 C-21.17 36.22 -25.81 34.04 -29.84 29.64 C-34.16 23.35 -35.25 17.27 -33.88 9.78 C-31.65 3.87 -27.46 -0.31 -21.88 -3.22 C-14.02 -5.7 -6.89 -4.46 0 0 Z M-20.88 7.78 C-21.21 9.1 -21.54 10.42 -21.88 11.78 C-16.27 11.78 -10.66 11.78 -4.88 11.78 C-6.53 7.66 -6.53 7.66 -9.88 5.78 C-15.75 5.34 -15.75 5.34 -20.88 7.78 Z " fill="#FEFEFE" transform="translate(788.8828125,573.21875)"/>
<path d="M0 0 C4.91 3.4 7.28 6.26 9 12 C9.26 15.02 9.34 17.98 9 21 C8 22 8 22 5.41 22.11 C4.28 22.11 3.16 22.1 2 22.1 C0.78 22.09 -0.43 22.09 -1.69 22.09 C-2.96 22.08 -4.24 22.07 -5.56 22.06 C-6.85 22.06 -8.13 22.05 -9.45 22.05 C-12.63 22.04 -15.82 22.02 -19 22 C-18.25 25.28 -18.25 25.28 -15 27 C-9.75 27.34 -5.94 26.98 -1 25 C0.98 27.31 2.96 29.62 5 32 C-2.04 36.91 -7.37 39.2 -16 38 C-23.11 35.69 -27.3 32.44 -31 26 C-32.83 20.51 -33.13 14.1 -31.13 8.61 C-28.15 3.49 -23.8 -0.8 -18.05 -2.61 C-11.44 -3.86 -5.97 -3.27 0 0 Z M-21 12 C-21 12.33 -21 12.66 -21 13 C-15.06 13 -9.12 13 -3 13 C-4.65 8.88 -4.65 8.88 -8 7 C-14.34 6.16 -16.69 7.69 -21 12 Z " fill="#FEFEFE" transform="translate(681,572)"/>
<path d="M0 0 C0.68 -0 1.37 -0 2.07 -0 C3.52 -0 4.97 -0 6.42 0 C8.65 0.01 10.87 0 13.1 -0 C14.5 -0 15.91 -0 17.31 0 C18.6 0 19.89 0 21.21 0 C24.16 0.13 24.16 0.13 25.16 1.13 C25.24 3.42 25.26 5.72 25.25 8.01 C25.25 8.7 25.25 9.39 25.25 10.09 C25.24 12.29 25.23 14.49 25.22 16.7 C25.21 18.18 25.21 19.67 25.21 21.16 C25.19 24.82 25.18 28.48 25.16 32.13 C20.62 32.16 16.08 32.18 11.54 32.19 C9.99 32.19 8.45 32.2 6.9 32.21 C4.69 32.22 2.47 32.23 0.25 32.23 C-0.79 32.24 -0.79 32.24 -1.85 32.25 C-3.52 32.25 -5.18 32.19 -6.84 32.13 C-8.73 30.25 -7.97 27.01 -7.98 24.51 C-7.98 23.85 -7.98 23.18 -7.98 22.5 C-7.98 21.1 -7.98 19.7 -7.97 18.29 C-7.97 16.14 -7.97 13.99 -7.98 11.84 C-7.98 10.48 -7.98 9.12 -7.98 7.76 C-7.98 6.51 -7.97 5.27 -7.97 3.98 C-7.73 -1.38 -4.72 0 0 0 Z " fill="#FEFEFE" transform="translate(455.84375,364.8671875)"/>
<path d="M0 0 C0.99 0.66 1.98 1.32 3 2 C3 2.66 3 3.32 3 4 C3.66 4 4.32 4 5 4 C8.62 10.1 10.12 14.89 9 22 C7.09 27.85 3.73 32.97 -1.78 35.97 C-7.44 38.4 -13.18 39.17 -19.14 37.34 C-25.22 34.65 -29.08 30.31 -32.38 24.62 C-33.93 18.08 -33.55 12.67 -30.19 6.79 C-23.05 -3.91 -10.99 -5.71 0 0 Z M-19 10 C-21.68 14.02 -21.81 17.28 -21 22 C-18.77 25.06 -17.07 26.52 -13.62 28.06 C-9.72 27.97 -7.06 26.36 -4 24 C-1.59 20.85 -1.6 17.88 -2 14 C-3.29 11.16 -4.31 9.48 -6.88 7.69 C-11.83 6.09 -14.84 6.96 -19 10 Z " fill="#FEFEFE" transform="translate(420,572)"/>
<path d="M0 0 C1.29 0.01 2.59 0.01 3.92 0.02 C5.18 0.02 6.43 0.02 7.73 0.02 C9.34 0.03 10.95 0.04 12.6 0.05 C17.7 0.07 22.79 0.09 28.04 0.11 C28.04 10.67 28.04 21.23 28.04 32.11 C17.48 32.11 6.92 32.11 -3.96 32.11 C-3.98 27.02 -4 21.92 -4.02 16.68 C-4.03 15.07 -4.04 13.46 -4.05 11.8 C-4.05 10.54 -4.05 9.29 -4.06 7.99 C-4.06 6.7 -4.07 5.41 -4.07 4.07 C-3.92 0.15 -3.92 0.15 0 0 Z " fill="#FEFEFE" transform="translate(814.959228515625,364.886474609375)"/>
<path d="M0 0 C4.59 -0.89 8.45 -1.19 13 0 C17.16 3.71 19.51 9.11 22 14 C22.99 15.67 23.98 17.34 25 19 C26.23 17.34 27.46 15.67 28.69 14 C29.43 13 30.17 12.01 30.94 10.98 C32.69 8.45 33.91 6.09 35.19 3.31 C36.3 1.39 36.3 1.39 38 0 C42.41 -0.67 46.58 -0.47 51 0 C51 4.03 49.47 5.49 47.12 8.75 C46.53 9.61 46.53 9.61 45.92 10.49 C43.78 13.57 41.58 16.55 39.21 19.45 C31.16 29.76 30.49 39.14 31 52 C28.75 53.12 27.49 53.13 25 53.12 C23.95 53.13 23.95 53.13 22.88 53.13 C21 53 21 53 19 52 C19.02 51.41 19.03 50.81 19.05 50.2 C19.31 35.92 17.91 27.15 9 16 C7.45 13.82 5.98 11.6 4.5 9.38 C3.85 8.43 3.2 7.49 2.53 6.52 C1.16 4.26 0.44 2.59 0 0 Z " fill="#FEFEFE" transform="translate(346,556)"/>
<path d="M0 0 C3.96 0 7.92 0 12 0 C14.31 6.6 16.62 13.2 19 20 C19.76 18 20.53 16 21.31 13.94 C23.12 9.25 24.97 4.6 27 0 C30.63 0 34.26 0 38 0 C35.9 10.52 31.45 20.55 27.52 30.51 C25.85 34.74 24.31 38.99 22.88 43.31 C20.89 48.88 17.88 51.75 13 55 C10.96 55.2 10.96 55.2 8.81 55.12 C7.55 55.08 6.3 55.04 5 55 C1.88 48.5 1.88 48.5 3 44 C5.97 44 8.94 44 12 44 C13.5 36.99 12.24 32.78 9.38 26.31 C8.63 24.55 7.89 22.79 7.15 21.02 C6.78 20.17 6.42 19.32 6.04 18.44 C4.63 15.13 3.3 11.79 2 8.44 C1.61 7.45 1.22 6.45 0.81 5.43 C0 3 0 3 0 0 Z " fill="#FEFEFE" transform="translate(589,570)"/>
<path d="M0 0 C1.37 0.02 1.37 0.02 2.78 0.04 C3.7 0.04 4.62 0.05 5.56 0.06 C6.27 0.07 6.98 0.09 7.71 0.1 C7.73 0.8 7.74 1.5 7.76 2.22 C7.83 5.41 7.93 8.6 8.03 11.79 C8.05 12.89 8.07 13.99 8.1 15.13 C8.13 16.19 8.17 17.26 8.2 18.36 C8.23 19.34 8.26 20.32 8.28 21.33 C8.79 24.57 9.73 26.5 11.71 29.1 C14.87 29.48 16.85 29.53 19.71 28.1 C19.74 27.32 19.76 26.54 19.79 25.74 C19.91 22.24 20.03 18.73 20.15 15.22 C20.19 14 20.23 12.78 20.27 11.52 C20.31 10.35 20.36 9.18 20.4 7.98 C20.44 6.9 20.47 5.82 20.51 4.71 C20.71 2.1 20.71 2.1 21.71 0.1 C23.36 0.07 25.01 0.05 26.65 0.04 C27.57 0.02 28.49 0.01 29.43 0 C31.71 0.1 31.71 0.1 32.71 1.1 C32.8 3.84 32.83 6.55 32.81 9.29 C32.81 10.11 32.81 10.93 32.81 11.77 C32.8 14.4 32.79 17.03 32.78 19.66 C32.77 21.44 32.77 23.22 32.76 24.99 C32.75 29.36 32.74 33.73 32.71 38.1 C29.06 39.92 24.7 39.11 20.68 39.04 C17.78 38.88 17.78 38.88 15.71 40.1 C9.77 40.69 5.55 39.46 0.71 36.1 C-3.12 31.27 -3.41 26.17 -3.42 20.18 C-3.42 19.07 -3.42 17.96 -3.42 16.82 C-3.42 15.67 -3.41 14.53 -3.41 13.35 C-3.41 12.19 -3.42 11.02 -3.42 9.83 C-3.42 8.73 -3.42 7.62 -3.42 6.49 C-3.42 5.48 -3.42 4.47 -3.41 3.43 C-3.24 0.31 -3.12 0.13 0 0 Z " fill="#FEFEFE" transform="translate(435.28515625,569.90234375)"/>
<path d="M0 0 C0.99 0.66 1.98 1.32 3 2 C3 6 3 6 1.69 7.48 C0.12 8.66 -1.44 9.83 -3 11 C-3.52 10.69 -4.03 10.38 -4.56 10.06 C-7.78 8.66 -10.49 8.18 -14 8 C-17.25 9.3 -18.59 10.31 -20.38 13.31 C-21.15 16.65 -20.98 18.72 -20 22 C-18.04 24.59 -16.67 25.75 -13.62 26.88 C-10.37 27.03 -8.01 26.19 -5 25 C-5 24.34 -5 23.68 -5 23 C-1.64 24.44 0.72 26.12 3 29 C3.06 31.06 3.06 31.06 2 33 C-0.25 34.62 -0.25 34.62 -3 36 C-4.11 36.59 -4.11 36.59 -5.25 37.19 C-10.82 38.83 -15.95 38.79 -21.25 36.31 C-27.35 32.84 -30.9 28.76 -33 22 C-33.7 15.98 -33.47 11.15 -30 6 C-21.08 -3.84 -12.11 -5.43 0 0 Z " fill="#FEFEFE" transform="translate(832,572)"/>
<path d="M0 0 C1.32 0 2.64 0 4 0 C4 3.63 4 7.26 4 11 C6.2 10.97 6.2 10.97 8.44 10.94 C9.96 10.92 11.48 10.93 13 11 C14 12 14 12 14.13 13.81 C14.13 14.53 14.13 15.26 14.12 16 C14.13 17.08 14.13 17.08 14.13 18.19 C14 20 14 20 13 21 C11.48 21.07 9.96 21.08 8.44 21.06 C7.61 21.05 6.78 21.04 5.93 21.04 C4.98 21.02 4.98 21.02 4 21 C4.11 23.61 4.24 26.21 4.38 28.81 C4.41 29.55 4.44 30.29 4.47 31.05 C4.67 34.82 4.86 36.8 7 40 C10.58 40.25 10.58 40.25 14 40 C14.48 47.36 14.48 47.36 12.5 50 C8.95 51.42 5.72 51.66 2 51 C-1.75 48.98 -3.64 47.55 -6 44 C-7.38 39.32 -7.11 34.52 -7.06 29.69 C-7.06 28.85 -7.05 28.02 -7.05 27.15 C-7.04 25.1 -7.02 23.05 -7 21 C-8.65 20.67 -10.3 20.34 -12 20 C-11.7 16.41 -11.23 15.22 -8.56 12.69 C-6 11 -6 11 -4 11 C-3.8 10.29 -3.59 9.58 -3.38 8.85 C-3.11 7.93 -2.84 7.01 -2.56 6.06 C-2.3 5.15 -2.03 4.23 -1.75 3.29 C-1 1 -1 1 0 0 Z " fill="#FEFEFE" transform="translate(574,559)"/>
<path d="M0 0 C1.65 0 3.3 0 5 0 C5 3.63 5 7.26 5 11 C7.97 11 10.94 11 14 11 C14.1 17.93 14.1 17.93 14 20 C13.67 20.33 13.34 20.66 13 21 C10.36 21 7.72 21 5 21 C5.33 26.94 5.66 32.88 6 39 C10 40.33 10 40.33 14 39 C14 42.3 14 45.6 14 49 C9.76 51.12 6.62 51.61 2 51 C-1 49.62 -1 49.62 -3 48 C-3 47.34 -3 46.68 -3 46 C-3.66 46 -4.32 46 -5 46 C-5.9 42.93 -6.12 40.21 -6.1 37.02 C-6.09 35.61 -6.09 35.61 -6.09 34.18 C-6.08 33.22 -6.07 32.25 -6.06 31.25 C-6.06 30.27 -6.05 29.28 -6.05 28.27 C-6.04 25.85 -6.02 23.42 -6 21 C-7.65 20.67 -9.3 20.34 -11 20 C-11.44 17.81 -11.44 17.81 -11 15 C-9.29 13.85 -7.57 12.7 -5.82 11.6 C-2.41 8.6 -1.33 4.24 0 0 Z " fill="#FEFEFE" transform="translate(921,559)"/>
<path d="M0 0 C0.81 0 1.63 0.01 2.47 0.01 C3.28 0.01 4.1 0 4.94 0 C6.97 0.13 6.97 0.13 7.97 1.13 C8.09 2.54 8.15 3.96 8.17 5.38 C8.19 6.28 8.21 7.18 8.23 8.11 C8.25 9.09 8.27 10.07 8.29 11.07 C8.31 12.07 8.33 13.07 8.35 14.1 C8.41 17.3 8.47 20.5 8.53 23.7 C8.57 25.86 8.62 28.02 8.66 30.19 C8.77 35.5 8.87 40.82 8.97 46.13 C10.62 46.46 12.27 46.79 13.97 47.13 C14.16 53.19 14.16 53.19 13.97 55.13 C11.97 57.13 11.97 57.13 8.72 57.45 C4.67 57.11 2.36 56.34 -1.03 54.13 C-2.97 51.11 -3.28 48.75 -3.27 45.2 C-3.28 44.22 -3.28 43.24 -3.28 42.23 C-3.28 41.19 -3.27 40.14 -3.26 39.06 C-3.26 37.98 -3.26 36.9 -3.26 35.79 C-3.26 33.51 -3.25 31.23 -3.24 28.95 C-3.22 25.45 -3.22 21.95 -3.22 18.44 C-3.21 16.23 -3.21 14.02 -3.2 11.81 C-3.2 10.75 -3.2 9.7 -3.2 8.61 C-3.19 7.65 -3.18 6.68 -3.18 5.68 C-3.17 4.82 -3.17 3.97 -3.16 3.09 C-2.98 0.39 -2.7 0.18 0 0 Z " fill="#FEFEFE" transform="translate(633.03125,552.8671875)"/>
<path d="M0 0 C2.56 1.56 2.56 1.56 4 3 C3.39 6.99 1.29 9.74 -1 13 C-1.72 12.65 -2.44 12.3 -3.19 11.94 C-6.33 10.89 -7.87 11.04 -11 12 C-12.75 13.75 -12.23 16.19 -12.32 18.57 C-12.36 19.69 -12.4 20.82 -12.44 21.97 C-12.48 23.16 -12.52 24.34 -12.56 25.56 C-12.61 26.75 -12.65 27.94 -12.69 29.16 C-12.8 32.11 -12.9 35.05 -13 38 C-16.25 39.63 -19.39 39.11 -23 39 C-24 38 -24 38 -24.11 34.4 C-24.11 32.8 -24.11 31.19 -24.1 29.59 C-24.1 28.75 -24.09 27.91 -24.09 27.04 C-24.09 24.34 -24.08 21.64 -24.06 18.94 C-24.06 17.11 -24.05 15.29 -24.05 13.46 C-24.04 8.97 -24.02 4.49 -24 0 C-23.17 0.01 -22.34 0.02 -21.48 0.04 C-19.85 0.05 -19.85 0.05 -18.19 0.06 C-16.57 0.08 -16.57 0.08 -14.92 0.1 C-1.64 -0.35 -1.64 -0.35 0 0 Z " fill="#FEFEFE" transform="translate(863,570)"/>
<path d="M0 0 C2.56 1.56 2.56 1.56 4 3 C3.5 7.4 1.91 9.71 -1 13 C-1.72 12.65 -2.44 12.3 -3.19 11.94 C-6.33 10.89 -7.87 11.04 -11 12 C-12.71 13.71 -12.19 15.95 -12.25 18.28 C-12.28 19.35 -12.31 20.42 -12.35 21.52 C-12.41 23.79 -12.46 26.07 -12.52 28.34 C-12.55 29.41 -12.59 30.49 -12.62 31.59 C-12.65 32.58 -12.67 33.57 -12.7 34.59 C-13 37 -13 37 -15 39 C-17.71 39.33 -20.25 39.13 -23 39 C-24 38 -24 38 -24.11 34.4 C-24.11 32.8 -24.11 31.19 -24.1 29.59 C-24.1 28.75 -24.09 27.91 -24.09 27.04 C-24.09 24.34 -24.08 21.64 -24.06 18.94 C-24.06 17.11 -24.05 15.29 -24.05 13.46 C-24.04 8.97 -24.02 4.49 -24 0 C-23.17 0.01 -22.34 0.02 -21.48 0.04 C-19.85 0.05 -19.85 0.05 -18.19 0.06 C-16.57 0.08 -16.57 0.08 -14.92 0.1 C-1.64 -0.35 -1.64 -0.35 0 0 Z " fill="#FEFEFE" transform="translate(498,570)"/>
</svg>
