<?xml version="1.0" standalone="no"?>
<!DOCTYPE svg PUBLIC "-//W3C//DTD SVG 20010904//EN"
 "http://www.w3.org/TR/2001/REC-SVG-20010904/DTD/svg10.dtd">
<svg version="1.0" xmlns="http://www.w3.org/2000/svg"
 width="1920.000000pt" height="1280.000000pt" viewBox="0 0 1920.000000 1280.000000"
 preserveAspectRatio="xMidYMid meet">
<metadata>
Created by potrace 1.16, written by Peter Selinger 2001-2019
</metadata>
<g transform="translate(0.000000,1280.000000) scale(0.100000,-0.100000)"
fill="#000000" stroke="none">
<path d="M11757 9745 c-133 -19 -205 -43 -384 -131 -166 -81 -256 -146 -363
-261 -161 -175 -219 -257 -302 -433 -53 -110 -127 -291 -154 -375 -7 -24 -18
-33 -54 -43 -135 -39 -211 -67 -336 -122 -76 -34 -144 -66 -151 -71 -20 -17
-38 -146 -25 -182 7 -21 11 -101 9 -222 -1 -156 1 -200 16 -247 34 -113 113
-158 273 -158 l83 0 -23 -62 c-38 -100 -49 -199 -42 -360 3 -79 10 -249 15
-378 10 -243 18 -309 52 -407 38 -112 108 -196 199 -243 30 -15 39 -25 32 -32
-11 -11 -139 -38 -302 -63 -96 -15 -171 -36 -270 -75 -30 -12 -65 -24 -77 -27
-13 -3 -23 -9 -23 -13 0 -4 -18 -13 -40 -20 -22 -7 -47 -21 -56 -32 -10 -10
-25 -18 -36 -18 -10 0 -26 -8 -36 -18 -22 -22 -108 -82 -117 -82 -6 0 -73 -46
-196 -137 -242 -178 -445 -401 -614 -672 -5 -9 -13 -18 -16 -21 -4 -3 -16 -23
-28 -45 -11 -22 -60 -79 -109 -126 -97 -97 -126 -129 -143 -160 -12 -24 -4
-109 12 -109 5 0 9 -7 9 -16 0 -8 14 -29 30 -46 17 -16 30 -34 30 -39 0 -5 7
-9 15 -9 8 0 15 -4 15 -10 0 -5 7 -10 15 -10 8 0 15 -4 15 -8 0 -5 11 -15 25
-22 49 -26 44 -56 -35 -195 -21 -38 -47 -87 -56 -108 -12 -29 -21 -36 -33 -31
-58 26 -138 4 -240 -66 -103 -69 -176 -170 -214 -295 -15 -47 -35 -90 -67
-144 -24 -38 -61 -48 -142 -39 -140 15 -184 -8 -289 -149 -40 -54 -85 -115
-101 -135 -15 -20 -28 -41 -28 -46 0 -5 -9 -17 -21 -28 -20 -18 -21 -26 -16
-126 5 -84 3 -109 -8 -118 -20 -17 -75 -3 -75 18 0 10 20 98 45 197 24 99 45
188 45 197 0 23 -30 38 -78 38 -36 0 -44 -6 -113 -81 -40 -44 -85 -95 -99
-112 -14 -17 -48 -56 -77 -87 -29 -31 -80 -92 -115 -136 -34 -43 -65 -81 -68
-84 -3 -3 -13 -17 -23 -32 -9 -15 -63 -87 -120 -159 -56 -72 -111 -143 -122
-159 -75 -104 -124 -161 -238 -277 -56 -57 -107 -103 -114 -103 -7 0 -13 -9
-13 -19 0 -11 -15 -30 -32 -42 -18 -13 -34 -27 -36 -31 -2 -4 -15 -22 -30 -41
-15 -19 -34 -45 -42 -57 -22 -32 -68 -62 -96 -62 -13 0 -24 -4 -24 -9 0 -5
-10 -9 -22 -9 -13 0 -36 -7 -52 -15 -52 -27 -58 -16 -51 84 5 58 4 91 -3 95
-16 10 -25 -12 -27 -63 -5 -172 -3 -160 -30 -167 -14 -3 -25 -12 -25 -20 0 -8
-5 -14 -10 -14 -6 0 -5 11 4 27 16 32 13 108 -6 131 -11 13 -10 15 5 9 27 -10
20 12 -9 25 -22 10 -25 17 -20 42 8 38 24 56 43 49 13 -5 13 -3 4 15 -7 12
-16 22 -21 22 -15 0 -12 66 3 79 8 6 17 7 21 3 4 -4 5 9 1 29 -4 24 -2 47 7
65 11 22 13 49 7 114 -4 47 -10 95 -14 106 -5 17 -1 25 22 37 15 8 42 22 58
30 33 17 75 61 75 77 0 6 5 10 10 10 6 0 9 3 8 8 -1 4 4 19 10 34 10 25 25
111 23 133 0 6 -3 35 -6 65 -3 30 -6 64 -7 75 -1 11 -6 23 -10 26 -5 3 -11 19
-12 35 -2 16 -8 28 -14 27 -5 -1 -14 10 -21 25 -10 24 -10 25 2 10 21 -26 27
-22 27 17 0 33 -1 34 -20 23 -25 -15 -36 -3 -46 51 -5 27 -3 37 12 48 17 12
21 11 41 -14 l23 -28 0 46 c0 38 5 50 33 77 17 17 41 48 52 69 11 21 25 43 31
48 6 6 20 42 29 80 10 39 22 75 27 81 4 6 5 13 2 17 -9 9 17 50 45 72 20 16
37 19 79 17 30 -2 68 -8 86 -14 17 -5 99 -27 181 -48 83 -21 227 -60 320 -85
265 -71 354 -90 364 -80 5 6 81 226 169 490 186 560 212 640 212 665 0 26 -55
44 -210 69 -74 12 -157 26 -183 31 -27 6 -65 10 -85 10 -21 0 -52 4 -71 10
-19 5 -56 12 -83 15 -28 3 -86 13 -131 21 -45 9 -103 19 -128 24 -60 11 -88
29 -96 60 -7 30 -63 136 -110 206 -18 28 -33 59 -33 68 0 9 22 60 49 114 65
129 72 161 72 307 -1 145 -20 248 -60 319 -16 28 -36 76 -45 107 -8 30 -29 75
-46 100 -16 24 -30 53 -30 64 0 29 -28 65 -50 65 -27 0 -34 33 -20 92 10 40
10 61 0 105 -13 53 -13 56 18 119 34 68 38 94 22 125 -14 25 -62 49 -100 49
-29 0 -30 -1 -15 -16 15 -15 14 -17 -11 -30 -40 -21 -63 -17 -76 12 -11 23
-10 29 12 47 l25 20 -54 -7 c-67 -9 -88 -19 -124 -62 -28 -34 -65 -59 -73 -51
-2 2 9 28 26 58 40 73 40 119 -1 153 -40 34 -54 33 -65 -6 -11 -38 -57 -69
-74 -52 -12 12 18 80 42 95 9 6 9 9 -3 14 -9 3 -42 -4 -73 -16 -85 -31 -215
-161 -430 -426 -35 -44 -66 -73 -77 -73 -11 0 -19 2 -19 4 0 2 18 44 41 93 54
117 76 212 58 254 -21 53 -103 74 -172 45 -34 -14 -42 -22 -147 -141 -175
-200 -378 -552 -414 -715 -3 -17 -18 -32 -38 -42 -57 -27 -98 -68 -129 -129
-16 -33 -26 -59 -23 -59 3 0 32 23 63 52 59 54 104 78 146 78 40 0 32 -39 -15
-75 -56 -43 -49 -51 13 -14 85 50 274 137 345 159 98 31 197 50 293 57 l86 6
-2 -24 c-1 -13 -7 -25 -13 -25 -7 -1 -19 -2 -27 -3 -8 0 -14 -6 -13 -12 2 -6
-31 -23 -72 -37 -101 -34 -102 -34 -122 -38 -10 -2 -37 -18 -60 -35 -24 -18
-34 -29 -23 -25 11 4 52 14 90 23 83 18 350 13 403 -7 30 -11 32 -14 19 -28
-12 -11 -39 -15 -114 -14 -108 0 -165 -6 -158 -18 10 -16 -25 -31 -77 -34 -29
-1 -60 -5 -68 -9 -8 -3 -40 -11 -70 -17 -30 -7 -75 -21 -99 -31 -24 -11 -46
-18 -48 -15 -3 3 -19 -6 -35 -19 -16 -14 -38 -25 -48 -25 -10 0 -25 -9 -33
-20 -7 -10 -24 -23 -37 -28 -18 -7 -24 -17 -25 -38 0 -22 -5 -30 -22 -32 -15
-2 -25 -12 -29 -30 -10 -48 -13 -52 -39 -62 -17 -6 -25 -17 -25 -33 0 -30 -29
-70 -46 -63 -14 5 -18 -5 -15 -32 1 -8 -6 -26 -16 -40 -10 -15 -23 -49 -30
-77 -6 -27 -19 -77 -28 -110 -9 -33 -22 -92 -30 -132 -18 -96 -21 -100 -56
-67 -29 28 -57 33 -131 23 l-27 -4 4 -111 c4 -105 3 -114 -25 -180 -18 -43
-25 -73 -19 -79 5 -5 9 -19 9 -32 0 -13 11 -33 25 -45 14 -12 25 -26 25 -31 0
-6 -17 -35 -37 -66 -30 -44 -38 -65 -37 -98 l1 -42 -51 -3 c-28 -2 -72 1 -97
6 -36 6 -62 3 -117 -12 -56 -16 -80 -18 -107 -11 -29 8 -44 6 -75 -8 -22 -10
-39 -25 -39 -33 0 -10 2 -11 6 -2 11 27 22 10 20 -31 -2 -45 7 -137 23 -227
17 -96 20 -140 25 -340 5 -209 15 -285 51 -394 29 -91 24 -107 -31 -86 -22 8
-27 7 -35 -13 -19 -47 -80 -316 -74 -330 3 -9 36 -34 72 -56 68 -41 93 -63
105 -94 9 -23 2 -21 -37 8 -18 14 -35 25 -38 25 -11 0 -37 -125 -43 -200 -3
-41 -7 -138 -9 -215 -3 -77 -10 -162 -16 -190 -23 -97 -37 -211 -36 -275 1
-51 8 -76 30 -117 16 -28 35 -54 43 -57 8 -3 11 -10 8 -16 -4 -6 -11 -8 -16
-5 -5 4 -9 -3 -9 -15 0 -12 5 -18 10 -15 15 9 12 -39 -5 -71 -13 -26 -13 -30
2 -41 9 -7 12 -13 6 -13 -19 0 -43 -56 -29 -70 8 -8 5 -12 -12 -16 -12 -4 -22
-11 -22 -16 0 -5 5 -6 10 -3 13 8 13 -10 -1 -58 -6 -25 -14 -35 -22 -31 -7 4
-4 -2 6 -13 12 -14 15 -23 8 -28 -6 -3 -11 -1 -11 6 0 7 -2 10 -5 7 -7 -7 5
-39 14 -34 3 2 6 -9 6 -24 0 -16 -2 -26 -4 -24 -9 8 -30 -18 -25 -31 3 -7 1
-22 -5 -33 -7 -13 -7 -22 1 -30 9 -9 9 -12 -1 -12 -9 0 -11 -8 -8 -21 3 -12 0
-22 -9 -26 -8 -3 -12 -9 -9 -13 3 -5 1 -11 -5 -15 -5 -3 -10 -12 -10 -18 0 -7
4 -6 10 3 8 12 10 12 11 -5 1 -11 2 -37 3 -58 2 -22 -3 -45 -11 -52 -15 -15
-17 -32 -5 -37 5 -2 12 -16 16 -31 4 -17 3 -26 -2 -23 -10 6 -19 -115 -24
-299 l-3 -100 1768 -3 c1567 -2 1767 0 1767 13 0 8 6 15 13 16 6 1 19 2 27 3
8 2 24 3 35 4 28 3 6 20 -30 24 -24 2 -30 8 -30 28 0 22 5 25 38 28 43 4 40
22 -4 22 -22 0 -29 5 -29 20 0 11 6 23 14 26 8 3 11 15 8 29 -3 19 1 25 19 29
13 3 33 7 44 9 15 4 13 5 -7 6 -25 1 -48 25 -48 50 0 5 19 12 43 14 l42 3 -32
8 c-37 10 -39 14 -19 42 13 16 12 21 -1 36 -25 28 -9 50 31 43 19 -4 36 -2 40
3 3 5 -10 13 -29 16 l-35 7 5 50 c6 66 9 69 54 69 37 0 50 12 55 54 2 14 -45
18 -60 5 -16 -13 -18 -1 -8 39 5 18 13 22 45 22 22 0 39 5 39 10 0 6 -16 10
-35 10 -24 0 -35 5 -35 15 0 8 5 16 10 16 6 1 15 3 20 4 6 1 21 3 35 4 37 2
30 19 -11 27 -31 6 -35 10 -32 33 2 16 8 25 17 23 65 -14 71 -14 71 1 0 8 -13
20 -29 27 -30 12 -47 48 -31 64 6 6 10 18 10 27 0 10 10 21 21 24 12 4 18 10
13 14 -11 7 -18 106 -9 121 3 5 20 3 40 -6 40 -16 45 -17 45 -6 0 4 -10 8 -21
9 -29 3 -41 16 -33 37 5 14 14 16 41 11 26 -5 34 -3 31 6 -2 7 -13 14 -23 15
-42 6 -54 64 -14 64 10 0 19 5 19 10 0 6 -7 10 -16 10 -14 0 -14 3 -4 15 8 9
12 37 11 66 -1 35 3 51 13 55 8 3 12 12 10 19 -3 7 2 27 10 44 9 16 16 48 16
70 0 22 4 42 8 45 5 3 8 22 7 43 -2 20 3 51 10 68 23 56 36 105 30 114 -3 5
-1 29 5 53 6 24 13 54 15 67 2 13 8 28 14 34 5 5 7 22 4 37 -3 15 0 31 6 34 6
4 11 16 11 27 0 10 5 28 10 39 6 11 15 29 20 40 6 11 10 27 10 35 0 9 7 30 16
47 9 17 18 52 21 77 2 24 13 63 25 85 11 23 27 53 35 69 8 15 12 27 9 27 -3 0
1 21 9 47 8 25 12 50 9 54 -2 4 0 10 6 14 5 3 10 15 10 26 0 10 8 24 19 30 11
8 16 19 13 32 -3 10 -1 22 4 26 16 11 34 60 28 76 -7 18 25 72 35 58 7 -12 71
-13 71 -1 0 4 -9 17 -20 28 -27 27 -25 34 10 27 25 -6 30 -3 30 14 0 17 -4 19
-36 13 -32 -6 -36 -4 -32 12 2 11 11 18 20 18 9 -1 19 5 22 12 3 8 -1 14 -9
14 -17 0 -20 16 -4 25 6 4 23 -7 39 -25 16 -18 33 -29 39 -25 6 3 9 11 6 16
-4 5 -1 9 5 9 13 0 5 73 -10 78 -16 6 -12 29 6 36 10 4 14 14 11 26 -6 22 17
28 29 9 5 -8 9 -8 14 1 8 13 -10 70 -22 70 -4 0 -8 9 -8 20 0 25 20 26 27 2 5
-22 43 -48 43 -30 0 6 -8 20 -17 30 -13 15 -14 21 -4 31 10 9 14 8 23 -7 8
-15 12 -16 19 -5 13 21 -17 47 -48 41 -18 -3 -24 -1 -19 7 4 6 14 11 22 11 8
0 14 5 14 10 0 6 -4 10 -10 10 -20 0 -10 21 15 32 14 6 25 19 24 27 -3 30 1
42 11 36 6 -4 9 -12 8 -18 -4 -17 40 -59 48 -46 3 6 -1 18 -10 28 -21 23 -22
91 -2 91 10 0 13 -8 11 -23 -4 -23 20 -65 32 -54 3 4 1 17 -4 30 -14 30 -2 55
16 33 21 -25 43 -8 39 31 -4 32 -2 34 20 30 19 -4 23 -1 19 14 -6 22 4 23 52
9 23 -6 39 -6 46 0 7 6 19 8 28 4 8 -3 18 -1 22 5 3 6 11 11 17 11 6 0 5 -6
-3 -16 -7 -8 -21 -13 -31 -11 -15 4 -16 2 -7 -14 6 -13 6 -25 -1 -39 -8 -16
-8 -18 4 -14 10 4 14 -2 12 -19 -1 -18 -4 -22 -13 -16 -7 7 -13 6 -17 0 -4 -5
2 -14 11 -20 16 -9 16 -11 -7 -19 -23 -9 -23 -11 -6 -18 17 -7 17 -8 -5 -19
l-22 -12 21 -12 c21 -11 52 -6 52 9 0 5 -5 10 -12 12 -6 2 -8 10 -4 16 10 17
29 15 23 -3 -4 -8 -2 -17 4 -21 6 -3 8 -11 6 -17 -4 -12 -7 -13 -42 -16 -9 0
-15 -7 -14 -13 3 -27 -2 -37 -21 -43 -11 -3 -20 -11 -20 -16 0 -9 35 -7 46 3
3 4 12 4 20 1 8 -3 24 3 34 12 18 16 20 16 20 2 0 -19 -36 -41 -51 -31 -7 4
-9 0 -5 -13 5 -16 -1 -24 -31 -38 -21 -10 -32 -20 -25 -22 15 -6 16 -33 1 -33
-6 0 -8 -9 -4 -21 6 -18 4 -20 -14 -14 -21 6 -30 -8 -11 -20 6 -3 10 -15 10
-26 0 -10 4 -19 9 -19 5 0 7 8 4 19 -3 12 2 20 16 24 23 6 30 -18 9 -26 -10
-4 -10 -7 0 -18 10 -11 12 -11 12 0 0 7 6 11 15 8 8 -4 17 -2 20 4 4 5 0 12
-9 15 -8 3 -12 12 -9 20 4 10 -2 17 -16 21 -11 3 -21 9 -21 14 0 5 7 6 15 3 9
-4 15 0 15 10 0 9 -5 16 -11 16 -6 0 -9 6 -6 13 2 6 11 11 21 9 9 -2 17 2 17
8 1 5 3 15 4 20 1 6 3 15 4 20 2 17 29 11 27 -6 0 -9 5 -19 12 -21 9 -4 11 2
6 21 -4 17 -2 26 6 26 7 0 10 -6 7 -14 -7 -18 21 -30 38 -16 8 6 15 6 23 -2 6
-6 15 -9 18 -5 4 3 -1 13 -10 22 -9 9 -16 23 -16 31 0 8 -4 14 -10 14 -5 0 -7
7 -3 15 5 15 17 12 19 -3 2 -18 19 -48 30 -55 7 -4 11 -14 8 -22 -4 -9 0 -15
10 -15 9 0 13 6 10 13 -3 8 2 19 9 26 12 9 16 8 21 -4 3 -8 13 -15 23 -15 17
1 17 1 1 11 -10 5 -18 17 -18 25 0 12 -7 14 -31 9 -20 -5 -29 -4 -25 3 3 5 -1
13 -10 16 -13 5 -14 9 -5 20 10 11 8 16 -9 21 -14 5 -19 12 -15 23 3 8 1 18
-5 22 -7 4 -5 12 6 21 16 12 17 12 11 -3 -3 -10 -2 -18 3 -18 6 0 10 -9 10
-19 0 -10 7 -22 16 -25 9 -3 14 -13 11 -20 -5 -12 11 -26 28 -26 5 0 -28 64
-36 70 -4 3 -1 10 6 17 15 13 25 -2 25 -38 0 -10 6 -19 13 -19 6 0 18 -13 25
-29 13 -29 39 -47 51 -35 3 4 0 9 -6 11 -7 3 -13 11 -13 18 0 7 -5 15 -12 17
-12 4 -3 28 11 28 5 0 14 -13 21 -30 12 -28 40 -42 40 -20 0 6 -4 10 -10 10
-5 0 -10 9 -10 20 0 26 16 26 23 -1 3 -12 11 -19 18 -17 22 7 20 24 -6 52 -27
29 -31 41 -15 51 5 3 12 -6 16 -20 3 -14 13 -25 21 -25 8 0 12 -3 9 -8 -7 -12
17 -38 44 -47 23 -7 23 -7 7 9 -9 10 -15 22 -12 26 9 14 47 -30 41 -46 -3 -8
-1 -14 4 -14 6 0 10 -4 10 -10 0 -5 -7 -10 -16 -10 -12 0 -15 -7 -12 -25 5
-21 1 -25 -21 -26 -18 -1 -21 -3 -8 -6 14 -4 17 -11 13 -29 -4 -13 -3 -24 2
-24 8 0 34 -61 29 -67 -2 -2 -10 8 -17 22 -7 14 -17 25 -22 25 -5 0 -6 -6 -1
-12 4 -7 6 -21 5 -30 -2 -10 2 -18 7 -18 6 0 11 -9 11 -19 0 -11 7 -27 16 -36
9 -9 14 -19 11 -22 -9 -8 -33 19 -42 47 -7 23 -8 23 -21 5 -19 -25 -18 -35 4
-35 16 -1 16 -1 -1 -14 -10 -8 -17 -25 -16 -42 0 -16 -4 -44 -9 -61 -7 -23 -7
-33 0 -33 7 0 6 -5 -2 -15 -6 -8 -9 -23 -5 -35 4 -12 2 -26 -3 -33 -21 -27
-22 -63 -2 -77 26 -19 26 -33 0 -25 -16 5 -20 2 -20 -19 0 -14 -4 -26 -10 -26
-5 0 -7 6 -4 13 2 7 -7 28 -21 47 -14 19 -25 42 -25 52 0 16 -11 23 -32 19 -5
0 -8 3 -8 9 0 5 -8 18 -18 28 -18 18 -20 18 -42 -5 -12 -12 -17 -23 -11 -23 6
0 11 -9 11 -20 0 -13 -5 -18 -15 -14 -8 4 -15 12 -15 20 0 8 -7 14 -15 14 -10
0 -15 -11 -15 -35 0 -25 4 -33 14 -29 16 6 29 -35 20 -60 -3 -9 -1 -16 6 -16
6 0 9 4 6 9 -3 5 1 12 10 15 22 8 22 9 22 -21 0 -14 7 -32 16 -38 9 -7 16 -17
16 -24 0 -6 9 -11 20 -11 22 0 27 16 8 23 -10 4 -10 7 0 18 10 11 12 10 12 -4
0 -9 4 -17 8 -17 4 0 8 -9 9 -19 1 -13 -3 -18 -11 -15 -8 3 -16 -2 -19 -10 -4
-9 -2 -16 3 -16 6 0 10 -7 10 -15 0 -8 4 -15 10 -15 5 0 7 -7 4 -15 -4 -10 0
-15 15 -15 13 0 19 -5 15 -14 -3 -7 2 -16 10 -19 12 -5 16 0 16 17 0 26 -22
50 -35 38 -5 -4 -5 -1 0 7 4 7 3 16 -4 20 -13 9 -4 41 11 41 6 0 8 -7 4 -15
-3 -8 -1 -15 5 -15 5 0 9 -8 7 -17 -2 -10 3 -18 12 -18 8 0 16 -6 16 -12 1 -7
3 -15 4 -18 1 -3 3 -10 4 -17 0 -6 9 -12 20 -14 15 -2 17 2 12 27 -3 16 -1 29
4 29 6 0 9 -3 9 -8 -5 -29 3 -54 15 -49 7 3 19 0 25 -6 8 -8 11 -6 11 9 0 11
-4 24 -9 30 -15 16 -23 54 -11 54 6 0 8 -4 5 -10 -3 -5 -1 -10 4 -10 6 0 11
-7 11 -15 0 -8 3 -15 8 -15 4 0 14 -15 22 -33 14 -31 15 -31 18 -7 4 28 22 53
22 31 0 -11 44 -61 53 -61 1 0 2 11 2 24 0 13 -3 22 -6 20 -3 -2 -12 9 -20 24
-8 15 -20 33 -26 40 -16 17 -17 52 -2 52 6 0 9 -7 5 -15 -7 -20 18 -20 34 0 7
8 19 15 26 15 8 0 14 6 14 13 0 7 19 17 43 23 25 5 41 14 39 22 -1 6 4 12 12
12 8 0 17 8 20 17 5 13 9 14 15 5 5 -9 12 -4 21 15 11 22 14 25 17 11 3 -10
11 -18 20 -18 11 0 13 7 8 30 -7 34 9 42 18 9 6 -21 6 -21 39 3 18 13 37 28
41 33 6 6 10 6 14 -2 7 -18 33 -16 33 1 0 8 -7 21 -15 30 -17 17 -20 36 -5 36
6 0 10 -5 10 -10 0 -6 9 -21 21 -33 20 -22 20 -22 35 -2 14 19 16 19 25 3 6
-10 17 -18 26 -18 11 0 14 -6 10 -21 -4 -14 3 -35 19 -58 27 -40 31 -71 9 -71
-18 0 -19 -12 -3 -28 9 -9 9 -15 0 -24 -9 -9 -15 -4 -25 21 -12 29 -15 30 -19
13 -3 -11 -1 -25 5 -31 8 -8 8 -14 -1 -23 -14 -14 -16 -68 -3 -68 16 0 24 22
11 30 -8 5 -8 10 -2 14 9 5 24 -16 26 -38 1 -5 11 -13 24 -17 30 -11 42 16 16
36 -11 7 -16 16 -12 20 7 8 48 -30 48 -45 0 -14 23 -12 39 3 10 10 14 9 22 -5
17 -31 39 -22 33 12 -9 41 11 39 22 -2 12 -41 40 -45 36 -5 -3 19 1 27 13 27
9 0 15 -6 14 -12 -5 -40 2 -56 27 -61 16 -3 28 0 31 9 7 19 23 18 23 -1 0 -17
25 -20 35 -5 9 15 25 12 25 -5 0 -8 5 -15 10 -15 6 0 10 11 10 25 0 16 6 25
16 25 10 0 14 7 12 22 -2 11 3 23 10 26 7 2 12 0 11 -5 -3 -17 14 -52 27 -57
8 -3 14 -12 14 -21 0 -8 7 -15 16 -15 14 0 14 3 4 16 -11 13 -10 16 8 21 18 4
20 10 15 36 -4 21 -3 28 5 23 7 -4 12 -12 12 -17 0 -5 11 -22 25 -37 14 -15
25 -21 25 -15 0 7 -4 15 -10 18 -5 3 -10 16 -10 29 0 30 -45 53 -55 28 -6 -15
-9 -14 -25 6 -11 13 -25 22 -32 21 -27 -3 -34 2 -52 35 -21 39 -47 56 -39 25
8 -28 -10 -23 -24 6 -9 21 -8 27 5 35 10 5 12 10 5 10 -7 0 -13 7 -13 15 0 23
-41 56 -55 45 -7 -5 -15 -7 -18 -3 -4 3 -7 -1 -7 -10 0 -8 7 -23 16 -32 19
-19 54 -84 54 -100 -1 -15 -37 -55 -50 -55 -8 0 -10 -9 -6 -25 4 -14 2 -25 -3
-25 -9 0 -23 26 -25 45 -1 6 -11 20 -23 32 -24 24 -21 56 3 46 16 -6 19 12 4
22 -14 8 -1 35 15 29 7 -3 16 -1 20 5 3 6 1 11 -5 11 -6 0 -18 15 -26 33 -8
17 -21 42 -30 53 -13 20 -13 23 1 38 12 12 14 20 5 36 -15 28 -32 25 -24 -5 5
-20 3 -24 -10 -19 -9 3 -14 10 -11 14 3 5 0 12 -6 16 -9 5 -7 11 5 19 18 14
13 40 -10 49 -11 4 -13 0 -8 -19 3 -14 2 -25 -4 -25 -18 0 -25 53 -8 62 14 8
13 11 -2 28 -21 26 -32 25 -25 0 7 -26 -3 -26 -17 1 -9 15 -8 24 2 36 11 14
10 16 -13 10 -33 -8 -50 20 -24 39 13 10 14 12 1 17 -8 3 -17 1 -20 -6 -6 -15
-65 49 -72 81 -4 12 -12 22 -20 22 -8 0 -11 6 -7 16 5 14 1 16 -19 12 -14 -3
-32 0 -39 6 -20 16 -39 53 -32 60 12 12 22 6 17 -9 -4 -8 -1 -15 5 -15 6 0 11
11 11 25 0 14 -4 25 -9 25 -12 0 -23 29 -15 41 6 11 44 -27 63 -64 8 -15 18
-27 23 -27 4 0 8 -7 8 -15 0 -8 7 -15 15 -15 8 0 15 5 15 10 0 6 -4 10 -9 10
-15 0 -21 30 -10 51 5 11 14 17 20 14 5 -4 9 -2 9 3 0 5 -8 12 -17 16 -10 3
-24 9 -31 12 -11 5 -12 2 -3 -15 9 -17 9 -21 -2 -21 -8 0 -19 11 -25 25 -6 14
-16 25 -22 25 -6 0 -8 5 -5 10 3 6 -1 10 -9 10 -8 0 -20 8 -26 18 -10 15 -10
14 -5 -5 3 -12 1 -24 -5 -28 -5 -3 -10 1 -10 10 0 10 -5 13 -12 9 -8 -5 -9 -2
-5 9 3 9 3 16 -1 15 -17 -3 -40 15 -35 28 3 8 1 14 -4 14 -18 0 -22 -13 -12
-32 6 -11 8 -23 4 -26 -7 -7 -30 26 -30 43 0 6 -6 17 -13 25 -7 8 -22 28 -33
43 -12 16 -26 26 -33 24 -7 -3 -11 12 -12 42 -1 41 0 43 8 19 5 -16 16 -28 24
-28 8 0 14 -4 14 -10 0 -5 5 -10 10 -10 6 0 10 9 10 20 0 11 -4 20 -10 20 -5
0 -10 7 -10 15 0 8 -5 15 -11 15 -5 0 -7 5 -4 11 5 7 -3 9 -21 7 -16 -2 -28
-7 -27 -13 1 -5 -8 -14 -20 -18 -18 -7 -19 -10 -7 -17 12 -8 10 -10 -7 -10
-16 0 -21 4 -17 15 4 10 0 15 -11 15 -9 0 -14 4 -11 9 3 5 16 7 27 4 14 -4 25
0 31 11 5 9 16 16 23 16 27 0 12 35 -17 41 -12 3 -15 8 -9 17 12 19 48 -4 56
-35 3 -13 12 -23 20 -23 22 0 18 16 -10 44 -14 14 -21 27 -16 31 5 3 16 -2 24
-10 9 -8 21 -15 27 -15 6 0 8 -5 4 -11 -4 -7 7 -24 26 -40 18 -16 26 -29 19
-29 -10 -1 -9 -4 4 -14 24 -18 21 -24 -8 -18 -30 5 -33 -13 -5 -28 11 -6 17
-16 14 -25 -7 -17 4 -19 25 -6 9 6 10 11 2 15 -6 4 -11 13 -11 19 0 7 12 0 25
-16 25 -28 58 -40 35 -12 -7 8 -9 15 -4 16 5 0 -1 4 -14 10 -13 5 -20 13 -17
19 3 5 1 10 -5 10 -7 0 -5 6 4 15 8 8 20 15 26 15 6 0 8 5 5 10 -4 7 -12 7
-25 0 -26 -14 -30 -13 -30 11 0 19 2 20 17 8 13 -11 17 -11 20 -1 6 17 30 15
37 -4 10 -25 7 -34 -9 -34 -8 0 -15 -4 -15 -9 0 -4 16 -3 35 3 33 10 48 26 25
26 -5 0 -10 9 -10 20 0 28 -27 38 -93 35 -44 -2 -57 1 -53 10 2 7 -5 16 -17
19 -18 5 -20 8 -7 16 10 6 16 6 18 0 2 -6 10 -10 18 -10 8 0 14 -4 14 -10 0
-5 7 -10 15 -10 8 0 15 5 15 10 0 6 -4 10 -10 10 -5 0 -10 5 -10 10 0 7 6 7
18 2 9 -5 24 -7 32 -4 13 5 13 3 1 -11 -12 -15 -11 -17 7 -17 14 0 20 5 16 14
-7 20 34 42 49 27 13 -13 50 -15 42 -2 -6 10 60 10 70 0 3 -3 27 -4 54 -1 30
2 51 0 55 -7 4 -6 20 -11 36 -11 19 0 30 -6 33 -18 4 -16 5 -16 6 1 1 16 3 16
26 1 23 -15 25 -15 19 0 -5 12 -2 15 10 10 9 -3 14 -10 11 -14 -3 -4 2 -11 11
-14 12 -5 15 -2 10 11 -6 15 -4 14 14 -2 20 -19 21 -19 14 1 -7 16 -6 17 8 6
10 -8 49 -14 101 -15 47 -1 84 -4 82 -7 -2 -3 22 -5 53 -6 74 -1 139 -19 179
-50 17 -13 38 -24 47 -24 8 0 18 -9 21 -20 3 -11 11 -20 16 -20 5 0 9 -7 9
-15 0 -8 7 -15 15 -15 8 0 15 -9 15 -20 0 -10 8 -23 17 -29 27 -15 9 -23 -20
-10 -15 7 -23 17 -20 25 3 8 0 14 -6 14 -6 0 -11 -5 -11 -11 0 -6 -7 -8 -16
-5 -14 5 -15 4 -4 -9 7 -8 16 -12 21 -9 5 3 9 0 9 -6 0 -6 4 -9 8 -6 4 2 19
-4 32 -15 29 -22 16 -25 -20 -4 -32 18 -46 19 -31 2 6 -8 7 -18 3 -22 -4 -5
-2 -5 5 -1 6 3 14 2 18 -4 3 -5 1 -10 -5 -10 -6 0 1 -12 15 -27 33 -37 32 -47
-5 -28 -16 8 -35 15 -42 14 -7 0 -3 -4 10 -9 12 -5 22 -14 22 -20 0 -6 6 -10
13 -9 30 4 45 -3 55 -26 13 -29 11 -30 -27 -11 -16 9 -33 11 -41 6 -10 -6 -3
-10 23 -15 43 -8 44 -11 17 -35 l-20 -18 20 -5 c11 -3 20 -10 20 -17 0 -6 -5
-8 -12 -3 -21 12 -56 14 -63 3 -4 -6 -2 -9 4 -8 5 2 17 -6 25 -17 9 -11 16
-14 16 -7 0 6 4 12 9 12 5 0 9 -16 8 -35 -1 -19 -5 -35 -8 -35 -8 0 -5 -33 5
-48 5 -8 0 -12 -15 -12 -18 0 -19 -3 -9 -15 14 -17 4 -39 -13 -28 -7 4 -5 -1
3 -12 14 -17 13 -17 -10 -10 -22 7 -23 6 -11 -9 11 -13 11 -16 0 -16 -11 -1
-10 -4 3 -13 19 -15 18 -75 -3 -88 -11 -7 -11 -11 -2 -17 24 -15 -1 -32 -35
-23 -34 10 -72 4 -72 -11 0 -5 10 -9 23 -8 47 4 67 0 67 -15 0 -8 6 -15 13
-15 8 0 7 -4 -3 -10 -11 -7 -20 -4 -32 13 -10 12 -18 17 -18 10 0 -6 8 -19 17
-29 23 -23 45 -65 37 -73 -3 -3 -10 2 -15 12 -15 27 -26 20 -21 -13 3 -19 0
-30 -7 -30 -7 0 -10 4 -6 9 6 11 -13 26 -22 17 -3 -3 6 -24 21 -46 14 -22 26
-44 26 -49 0 -5 6 -11 13 -14 6 -2 9 -8 5 -12 -5 -5 -16 2 -27 14 -18 21 -19
21 -24 1 -3 -13 -10 -18 -21 -14 -9 3 -16 1 -16 -5 0 -6 0 -14 0 -18 0 -5 6
-8 12 -8 7 0 14 -9 16 -19 3 -14 0 -17 -13 -12 -21 8 -45 -10 -44 -33 0 -10 4
-8 10 7 12 30 33 23 37 -11 3 -22 -1 -27 -17 -27 -12 0 -21 -2 -21 -4 0 -2 17
-23 39 -46 34 -37 41 -40 58 -29 13 7 18 19 15 31 -3 12 1 18 12 18 9 0 16 -6
16 -14 0 -8 3 -21 6 -30 4 -11 0 -16 -12 -16 -16 0 -17 -2 -4 -10 8 -5 23 -7
33 -4 11 3 17 0 17 -10 0 -9 5 -16 10 -16 6 0 10 6 10 14 0 8 9 18 21 21 24 8
39 -3 20 -14 -10 -7 -11 -13 -2 -30 7 -11 17 -21 24 -21 8 0 8 3 -2 9 -10 6
-10 10 -1 16 6 4 17 -1 24 -11 7 -9 17 -14 22 -11 15 9 38 -9 29 -22 -5 -9
-10 -9 -21 0 -10 8 -14 8 -14 0 0 -6 3 -12 8 -12 52 -8 64 -7 54 3 -16 16 -15
28 3 28 15 0 16 -24 1 -49 -12 -18 14 -33 32 -19 10 9 14 6 19 -10 5 -20 15
-27 37 -23 5 1 15 -7 23 -19 15 -21 53 -28 53 -10 0 16 44 -30 68 -71 12 -20
22 -43 22 -52 0 -8 7 -17 15 -21 8 -3 15 -16 15 -29 0 -13 14 -43 31 -67 19
-26 29 -50 26 -62 -7 -26 2 -48 19 -48 10 0 14 -12 14 -39 0 -25 5 -41 15 -45
8 -3 12 -12 9 -20 -7 -19 28 -98 55 -125 12 -12 33 -21 49 -20 l27 0 -32 16
c-45 22 -41 35 7 30 22 -2 40 0 40 5 0 4 -6 8 -14 8 -16 0 -41 28 -33 37 4 3
14 0 23 -8 13 -10 18 -11 21 -2 2 7 11 9 19 6 8 -3 14 -2 14 1 0 4 -13 12 -30
17 -35 13 -41 34 -7 26 12 -2 33 -1 47 2 25 7 25 7 -7 19 -38 13 -45 35 -9 26
14 -3 32 -2 41 4 14 7 12 11 -14 22 -17 7 -31 16 -31 21 0 13 14 11 29 -3 10
-11 14 -10 22 4 5 10 17 15 27 12 9 -2 -1 5 -23 16 -33 16 -36 19 -15 18 14 0
36 4 50 10 l25 10 -33 8 c-18 3 -35 11 -38 16 -4 6 5 8 23 4 23 -5 32 -3 37 9
3 10 11 13 18 9 9 -5 9 -3 -1 9 -11 14 -11 20 -1 32 7 9 10 18 7 22 -4 3 0 15
8 25 7 11 11 27 8 34 -3 8 0 14 7 14 6 0 10 8 9 18 -2 9 2 27 9 38 6 12 9 24
5 27 -3 4 0 13 7 22 7 8 10 22 6 30 -3 9 1 18 10 22 10 4 14 13 10 29 -3 12
-2 26 4 29 6 3 7 17 4 31 -3 13 -2 24 4 24 5 0 12 7 16 15 3 8 2 14 -2 14 -21
-3 -23 3 -6 22 15 17 16 22 4 29 -12 7 -10 13 10 34 17 19 20 26 8 26 -16 0
-19 54 -4 78 4 7 2 20 -6 29 -10 13 -10 17 0 20 18 7 15 30 -5 38 -17 6 -17 7
1 21 19 14 19 14 1 28 -18 13 -18 15 -2 30 23 23 21 35 -3 29 -23 -6 -28 15
-5 23 8 4 15 13 15 21 0 9 -6 13 -15 10 -8 -4 -17 -2 -21 4 -3 6 3 13 14 16
23 6 19 33 -4 33 -8 0 -14 7 -14 16 0 10 6 14 15 10 10 -4 15 1 15 15 0 16 -5
20 -20 16 -11 -3 -23 -1 -26 5 -3 5 3 12 15 15 30 8 27 33 -4 33 -26 0 -33 14
-15 25 6 4 17 1 25 -5 20 -17 20 -6 -9 120 -13 58 -22 109 -19 113 3 4 0 13
-6 20 -5 7 -12 29 -14 48 -2 19 -6 39 -9 44 -3 6 -18 64 -33 130 -15 66 -34
145 -42 175 -8 30 -18 84 -24 120 -6 48 -15 71 -34 90 -24 24 -65 70 -110 122
-34 39 -85 106 -85 111 0 3 -28 34 -62 69 l-63 63 70 9 c46 6 94 5 140 -2 39
-6 102 -11 140 -10 107 0 351 -29 650 -78 340 -55 339 -55 343 -77 5 -24 -36
-105 -56 -111 -12 -4 -18 -19 -19 -48 -3 -42 -39 -174 -53 -193 -9 -12 -24
-85 -21 -101 1 -7 -6 -14 -14 -18 -19 -7 -17 -62 2 -78 7 -6 13 -16 13 -23 0
-6 32 -41 70 -76 66 -60 135 -137 170 -189 8 -12 20 -28 25 -34 6 -6 22 -30
37 -52 26 -40 26 -42 9 -70 -10 -16 -25 -35 -34 -43 -10 -7 -17 -17 -17 -22 0
-5 -16 -32 -35 -59 -19 -27 -35 -55 -35 -61 0 -10 -16 -51 -43 -106 -10 -23
-25 -31 -74 -39 -157 -25 -274 -126 -280 -239 -1 -27 -4 -65 -7 -82 -3 -18 0
-35 5 -38 5 -4 9 -18 8 -33 -2 -47 13 -136 27 -162 8 -14 23 -63 35 -110 11
-47 26 -98 34 -115 7 -16 22 -52 34 -79 12 -26 20 -50 17 -53 -2 -2 8 -28 23
-57 15 -28 31 -65 35 -80 4 -15 16 -41 28 -57 12 -15 22 -37 23 -47 0 -10 11
-34 22 -53 12 -19 24 -46 27 -59 3 -14 12 -43 20 -65 8 -22 15 -50 16 -62 0
-12 5 -23 11 -25 5 -2 11 -29 12 -61 1 -31 5 -57 10 -57 4 0 7 -8 7 -18 0 -10
4 -22 9 -28 10 -10 32 -180 37 -286 1 -38 5 -72 8 -76 7 -12 1 -116 -8 -130
-3 -6 -2 -13 4 -17 14 -9 12 -55 -2 -55 -10 0 -10 -2 0 -8 14 -9 13 -156 -1
-179 -4 -7 -5 -23 -1 -36 3 -14 1 -27 -4 -31 -5 -3 -8 -32 -6 -65 2 -33 -1
-63 -6 -66 -6 -3 -10 -13 -10 -21 0 -12 62 -14 428 -14 l428 0 13 36 c9 26 10
39 2 47 -6 6 -11 20 -11 31 0 16 2 18 9 7 6 -9 9 8 10 47 0 33 8 76 17 94 14
31 15 39 1 79 -11 32 -12 46 -4 51 7 4 8 8 2 8 -6 0 -5 3 1 8 15 10 28 52 16
52 -16 0 -25 109 -11 126 6 8 13 47 14 86 1 43 7 74 14 76 13 4 15 58 2 66
-13 8 -2 98 14 116 7 8 19 41 26 73 8 38 19 62 32 68 13 8 17 17 13 34 -4 16
1 30 19 47 14 12 25 30 25 39 0 26 21 79 32 79 16 0 62 61 74 99 7 20 16 35
22 34 6 -2 16 13 22 32 6 19 17 38 24 42 24 15 41 130 19 125 -7 -1 -13 5 -13
13 0 9 8 14 23 12 16 -1 22 3 21 16 -1 9 2 17 6 17 5 0 -5 13 -21 30 -22 21
-29 36 -24 50 5 14 2 20 -9 20 -9 0 -16 4 -16 9 0 5 -9 11 -20 14 -15 4 -20
14 -21 41 -1 20 -2 41 -3 48 -1 6 -16 26 -33 45 -18 18 -33 37 -33 41 0 16 18
33 31 30 16 -4 22 70 8 88 -6 8 -3 13 9 16 21 6 74 110 60 119 -13 8 2 39 19
39 8 0 11 5 8 11 -4 6 1 17 11 25 15 12 16 16 5 21 -11 4 -8 10 10 25 16 13
20 21 12 25 -7 2 -13 9 -13 14 0 6 8 6 19 -1 27 -14 28 -13 33 14 3 15 0 27
-8 30 -14 5 -13 11 6 76 19 68 34 100 45 101 5 0 -1 5 -15 11 -19 9 -21 12 -9
15 16 4 27 36 33 96 2 15 6 30 9 34 11 10 8 43 -4 43 -5 0 -7 -4 -4 -10 3 -5
1 -10 -4 -10 -6 0 -11 12 -11 26 0 14 4 23 9 19 5 -3 12 -1 16 5 3 5 15 10 26
10 13 0 19 7 19 23 0 12 9 37 20 55 11 18 20 44 20 58 0 13 7 41 15 61 8 19
15 44 15 54 0 13 5 17 17 12 12 -5 15 -2 10 10 -3 9 -2 17 3 17 6 0 10 9 10
19 0 11 6 26 13 33 12 11 12 16 0 27 -10 9 -11 16 -3 26 8 10 7 14 -2 18 -9 4
-9 6 -1 6 16 1 22 -11 25 -53 2 -20 6 -36 10 -36 4 0 10 -10 13 -21 10 -30 23
-6 17 29 -5 25 -4 26 12 12 16 -13 20 -12 32 5 8 10 17 15 21 11 4 -4 1 -11
-7 -17 -10 -6 -12 -11 -4 -16 6 -5 14 -17 18 -28 6 -16 9 -17 16 -5 5 9 5 19
-1 27 -15 17 -1 37 15 24 9 -7 16 -7 24 1 15 15 15 28 1 28 -5 0 -7 -4 -4 -10
10 -17 -4 -11 -25 10 -16 16 -18 25 -10 45 5 14 7 32 4 40 -4 8 -3 23 2 33 4
9 8 20 8 24 2 15 16 20 16 5 0 -9 5 -17 11 -17 6 0 9 6 6 14 -3 8 -3 17 1 21
3 3 11 -11 17 -32 l11 -38 18 33 c9 18 14 37 11 43 -4 6 4 8 22 4 23 -5 25 -4
11 5 -22 14 -22 24 -1 56 l16 26 12 -23 c9 -16 14 -19 20 -8 5 7 4 14 -3 17
-17 5 -15 41 4 59 11 12 12 18 4 23 -7 4 -11 16 -9 26 1 11 -1 27 -5 36 -4 9
-3 26 3 37 8 15 8 33 0 67 -11 42 -10 48 7 62 18 14 18 14 1 8 -10 -3 -23 -6
-28 -6 -4 0 -6 -8 -3 -17 4 -13 1 -12 -13 5 -18 23 -19 23 -40 3 -18 -17 -23
-18 -39 -6 -16 11 -16 17 -6 39 6 14 18 26 27 26 17 0 20 16 5 25 -14 8 -13
31 3 47 6 7 13 24 15 38 2 14 10 30 18 36 16 13 54 7 54 -8 0 -5 5 -6 10 -3 6
4 20 -5 30 -18 15 -18 30 -25 55 -25 19 0 35 3 35 7 0 4 9 7 20 8 11 1 20 -4
20 -13 0 -8 5 -14 11 -14 6 0 9 -6 6 -14 -7 -17 18 -40 33 -31 5 3 10 1 10 -5
0 -7 7 -9 16 -6 8 3 12 2 9 -4 -3 -6 1 -10 9 -10 9 0 16 -4 16 -10 0 -5 -6
-10 -13 -10 -8 0 -14 -7 -14 -15 0 -10 6 -13 19 -9 10 3 18 1 18 -5 0 -6 5
-11 11 -11 6 0 8 9 4 20 -3 11 -2 20 3 20 5 0 15 -18 22 -41 8 -22 16 -42 20
-44 11 -7 -2 60 -14 68 -7 6 -4 7 7 3 11 -3 22 2 29 14 7 11 18 20 24 20 17 0
24 36 10 50 -8 9 -8 14 1 17 7 2 9 11 7 18 -4 10 0 13 15 10 27 -5 26 -2 -4
31 -15 16 -23 20 -19 11 4 -10 1 -17 -6 -17 -8 0 -10 8 -5 23 16 50 18 80 5
72 -8 -5 -11 0 -10 16 3 38 1 49 -11 49 -8 0 -8 -5 1 -15 9 -11 9 -15 1 -15
-6 0 -14 7 -17 15 -4 8 -14 15 -23 15 -14 -1 -14 -2 2 -14 9 -7 17 -19 17 -25
0 -7 5 -9 10 -6 6 3 10 -1 10 -9 0 -23 -27 -20 -40 4 -6 11 -15 18 -20 15 -6
-3 -7 1 -3 10 3 10 0 21 -8 26 -10 6 -10 9 -2 9 7 0 10 7 7 15 -8 21 6 19 22
-2 7 -10 16 -14 20 -10 5 4 2 12 -5 16 -7 5 -11 13 -7 19 3 6 -2 13 -11 15
-15 4 -15 5 2 6 19 1 18 3 -5 22 -22 18 -23 20 -4 14 29 -8 50 18 29 35 -11 9
-15 9 -15 1 0 -8 -5 -9 -19 -1 -25 13 -51 13 -51 0 0 -5 8 -10 18 -10 15 -1
15 -2 -2 -12 -18 -10 -18 -11 4 -23 15 -8 19 -15 11 -19 -6 -4 -11 -2 -11 3 0
6 -6 11 -14 11 -15 0 -29 53 -15 58 5 2 7 7 5 11 -3 4 11 6 30 5 22 -2 32 1
28 7 -3 6 -15 8 -26 6 -14 -4 -18 -2 -14 9 4 12 1 14 -14 9 -25 -8 -25 -2 -2
21 15 16 15 17 0 12 -10 -4 -19 -1 -22 8 -4 10 -13 13 -26 9 -14 -4 -22 -1
-27 11 -4 10 -2 19 5 22 8 2 8 10 0 28 -12 25 -20 29 -32 17 -3 -4 -13 -8 -20
-9 -10 -1 -12 6 -6 32 4 18 5 36 2 39 -4 3 1 3 11 -1 21 -7 22 2 3 21 -7 8
-17 11 -21 7 -4 -4 -4 7 0 23 4 17 9 50 11 75 7 107 17 138 40 119 11 -9 14
-8 14 4 0 8 -6 17 -12 20 -7 2 -9 8 -5 13 5 5 16 -2 26 -15 15 -20 19 -21 24
-7 4 9 1 16 -6 16 -24 0 -40 40 -27 69 14 34 49 38 72 8 11 -14 18 -17 18 -8
0 10 3 11 13 2 8 -6 17 -7 21 -3 4 4 13 0 20 -8 15 -19 52 -40 70 -40 8 0 19
-6 23 -14 12 -20 57 -1 49 20 -5 12 -2 15 10 10 12 -4 15 -2 10 9 -3 8 0 14 6
12 7 -1 14 7 16 18 2 11 13 26 23 33 11 7 17 17 14 22 -3 4 2 13 10 20 14 11
12 15 -12 30 -16 10 -37 27 -49 38 -28 27 -66 39 -58 18 4 -9 1 -16 -6 -16 -8
0 -10 9 -6 24 6 25 -14 51 -22 28 -2 -7 -8 -10 -12 -7 -5 3 -7 11 -4 18 3 8
-10 17 -36 23 -22 6 -40 7 -40 3 0 -5 -4 -9 -10 -9 -5 0 -10 8 -10 19 0 10 -9
21 -20 24 -11 3 -20 0 -20 -6 0 -6 -6 -3 -14 8 -8 13 -13 50 -14 100 0 44 -5
103 -12 130 -13 59 -56 154 -79 175 -9 8 -29 30 -44 49 -16 19 -52 52 -80 75
-29 22 -54 44 -57 47 -3 4 -32 28 -65 53 -33 25 -65 50 -72 56 -7 5 -16 10
-22 10 -5 0 -11 4 -13 8 -1 5 -31 28 -66 52 -58 41 -67 44 -125 44 -34 0 -78
-4 -97 -8 -23 -4 -50 -2 -78 8 -24 9 -65 18 -92 22 -58 8 -65 26 -24 65 21 20
25 30 21 61 -5 36 -3 39 61 87 189 140 353 372 449 631 20 52 47 124 60 160
14 36 29 85 33 110 42 216 44 241 44 425 0 105 -5 231 -12 280 -7 50 -17 125
-23 169 -6 43 -14 88 -19 100 -18 44 -23 62 -26 90 -6 39 -28 82 -42 78 -7 -1
-12 4 -12 11 0 7 -8 22 -18 33 -10 11 -16 26 -14 33 3 9 0 11 -8 6 -8 -5 -10
-18 -5 -39 3 -17 9 -52 12 -78 3 -26 11 -52 19 -59 8 -6 14 -20 14 -30 0 -15
-7 -19 -33 -19 -30 0 -34 4 -50 49 -9 27 -17 55 -17 63 0 20 -50 89 -60 83 -5
-3 -7 -12 -3 -20 11 -32 -21 -10 -46 30 -11 19 -12 18 -7 -6 8 -36 -18 -59
-33 -30 -6 11 -11 27 -11 36 0 14 -73 95 -85 95 -3 0 -5 -7 -5 -15 0 -8 -5
-15 -11 -15 -5 0 -7 5 -4 10 3 6 2 10 -3 10 -5 0 -14 18 -21 40 -12 41 -39 71
-29 32 10 -37 -11 -24 -40 24 -15 26 -37 59 -50 74 -12 16 -29 43 -37 62 -8
18 -14 29 -15 24 0 -5 -7 -3 -15 4 -20 16 -19 6 1 -14 8 -9 18 -28 20 -43 3
-15 12 -35 21 -45 15 -17 11 -38 -8 -38 -6 0 -21 26 -35 58 -14 31 -37 81 -50
110 -17 35 -23 63 -20 84 3 17 -1 49 -8 70 -8 21 -10 38 -5 38 5 0 6 8 2 18
-13 35 33 -16 52 -58 17 -38 44 -59 31 -24 -3 9 -9 28 -13 42 -3 15 -19 50
-34 77 -18 31 -26 59 -23 72 6 23 -1 28 85 -64 25 -27 42 -29 63 -8 23 23 32
18 69 -35 l17 -24 6 32 c9 44 28 41 52 -8 55 -112 102 -181 87 -130 -11 40
-16 107 -6 92 7 -11 9 -11 14 1 3 9 -1 18 -9 21 -9 3 -13 10 -9 16 10 17 -32
84 -74 118 -23 18 -41 39 -41 46 0 23 -104 115 -209 184 -87 57 -363 192 -393
192 -27 0 -57 19 -102 65 -27 29 -137 75 -178 75 -6 0 -36 19 -67 42 -30 23
-62 42 -70 43 -9 1 -32 11 -51 23 -19 12 -43 22 -52 22 -10 0 -76 16 -149 36
-72 19 -136 33 -142 31 -20 -6 33 -29 101 -43 36 -8 70 -18 76 -24 5 -5 22
-10 37 -10 15 0 32 -7 39 -15 7 -8 20 -15 29 -15 23 0 63 -29 56 -41 -7 -10
-54 -2 -69 12 -6 5 -20 9 -32 9 -13 0 -25 4 -28 9 -5 7 -66 22 -66 16 0 -1 18
-14 40 -29 22 -14 40 -31 40 -37 0 -13 -56 -2 -87 17 -27 17 -37 18 -27 3 4
-8 -3 -9 -23 -5 -16 4 -41 3 -54 -3 -18 -6 -35 -5 -59 6 -19 8 -55 17 -80 20
-25 3 -49 11 -53 19 -8 15 -24 23 -76 39 l-24 7 21 -23 c12 -12 20 -24 18 -26
-5 -6 -45 18 -67 39 -10 9 -45 22 -78 29 -35 7 -62 17 -66 26 -4 13 1 14 32 8
21 -4 88 -9 148 -11 61 -2 133 -6 160 -9 28 -3 44 -2 38 1 -20 9 -15 22 10 27
34 6 4 13 -103 26 -153 18 -298 20 -403 6z m383 -300 c27 -3 37 -6 90 -24 19
-7 55 -17 80 -23 70 -15 94 -28 122 -67 19 -27 33 -36 57 -37 17 -1 38 -10 48
-21 19 -22 131 -113 138 -113 12 0 1 13 -47 60 -50 48 -56 66 -11 35 16 -11
28 -12 51 -4 23 8 37 7 54 -2 31 -17 75 -65 99 -108 10 -20 24 -43 29 -51 12
-19 80 -161 80 -167 0 -16 -23 17 -51 72 -18 36 -48 83 -66 105 -18 21 -33 42
-33 47 0 9 -48 63 -55 63 -6 0 -1 -32 7 -45 31 -50 56 -109 53 -125 -2 -11 0
-22 6 -25 5 -4 16 -21 25 -38 l15 -32 -23 29 c-13 16 -34 52 -48 79 -25 49
-53 77 -65 65 -6 -6 29 -72 56 -103 14 -16 59 -105 64 -125 12 -48 28 -90 34
-90 5 0 12 -12 16 -27 11 -47 54 -130 69 -136 8 -3 22 -20 32 -38 20 -40 88
-112 78 -84 -6 19 -6 19 9 0 9 -11 17 -26 17 -33 0 -7 7 -15 15 -18 8 -4 15
-12 15 -19 0 -7 9 -15 19 -18 11 -3 32 -32 51 -73 18 -38 42 -76 54 -85 12
-10 17 -21 13 -26 -12 -12 -98 90 -132 156 -31 61 -53 91 -67 91 -5 0 -6 -10
-2 -22 4 -13 9 -34 10 -48 1 -14 3 -28 3 -32 1 -4 8 -14 17 -22 9 -9 11 -16 4
-16 -6 0 -9 -4 -6 -9 4 -5 3 -17 0 -26 -6 -15 -8 -14 -25 2 -10 10 -31 29 -45
43 l-26 25 7 -25 c4 -14 21 -45 37 -70 20 -31 28 -53 24 -71 -3 -15 2 -36 12
-50 12 -18 6 -16 -28 12 -71 57 -120 79 -84 37 11 -13 28 -40 38 -60 11 -21
23 -38 28 -38 4 0 8 -7 8 -16 0 -13 -7 -11 -32 10 -18 14 -132 101 -253 193
-121 91 -230 177 -242 190 -37 39 -79 50 -304 84 -421 62 -636 48 -924 -60
-41 -15 -79 -21 -143 -21 -48 0 -103 -5 -122 -10 -40 -12 -140 4 -140 22 0 6
-11 26 -26 45 -25 34 -68 45 -76 21 -3 -9 -11 -10 -28 -2 l-23 10 33 33 c31
30 37 47 56 146 3 17 12 37 20 46 8 8 14 20 14 24 0 5 25 61 56 125 84 169
154 232 409 363 117 61 231 96 355 112 63 8 129 16 145 18 29 4 305 -2 355 -8z
m930 -640 c0 -8 11 -22 25 -31 14 -9 25 -23 25 -30 0 -8 10 -14 25 -14 18 0
31 -10 45 -32 10 -18 23 -38 28 -44 5 -6 13 -20 16 -31 4 -12 18 -29 32 -38
27 -17 81 -121 70 -133 -8 -7 -28 21 -36 51 -3 10 -8 17 -12 15 -3 -2 -17 6
-30 18 -38 34 -52 40 -39 16 6 -12 7 -23 2 -26 -11 -7 -33 18 -24 27 3 4 -2 7
-12 7 -14 0 -15 3 -6 14 9 10 8 16 -4 26 -8 7 -15 16 -15 20 0 15 -59 72 -69
66 -4 -3 -11 9 -15 26 -7 35 -32 68 -53 68 -7 0 -13 8 -13 18 0 9 -7 26 -15
36 -19 25 -19 37 0 30 8 -4 15 -1 15 6 0 7 14 -1 30 -18 17 -18 30 -39 30 -47z
m326 -66 c25 -39 58 -111 75 -160 29 -88 31 -121 4 -99 -9 8 -11 4 -7 -16 l5
-25 -33 20 c-18 10 -38 17 -46 14 -13 -5 -50 54 -40 65 3 3 6 0 6 -6 0 -7 5
-12 10 -12 6 0 10 9 10 20 0 24 -32 44 -47 29 -7 -7 -20 2 -42 29 -17 22 -31
44 -31 49 0 4 -11 25 -25 45 -42 62 -28 95 16 38 13 -16 27 -30 31 -30 8 0 -5
48 -21 78 -9 18 -8 20 13 18 33 -4 46 -14 61 -50 11 -25 15 -28 20 -14 4 10 2
31 -3 48 -6 16 -9 30 -6 30 2 0 25 -32 50 -71z m-960 -447 c10 -10 55 -45 99
-77 85 -62 195 -168 195 -187 0 -7 -7 -5 -17 4 -10 9 -57 30 -104 46 -47 17
-125 49 -172 71 -48 23 -91 41 -97 41 -13 0 -13 36 1 63 30 58 61 71 95 39z
m-1368 -115 c6 -7 22 -51 36 -97 44 -152 83 -257 104 -288 38 -53 92 -176 92
-209 0 -63 19 -70 191 -73 370 -7 405 -3 455 46 28 29 47 71 39 84 -3 5 16 20
43 34 94 48 152 115 202 236 13 30 27 59 31 64 9 11 124 -9 209 -36 122 -39
313 -145 429 -239 33 -27 63 -49 66 -49 2 0 23 -20 46 -45 23 -25 57 -55 76
-66 26 -16 31 -24 21 -30 -7 -5 -8 -9 -3 -9 6 -1 -1 -6 -15 -11 l-24 -10 29
-25 c43 -38 73 -48 135 -45 41 1 51 -1 40 -9 -13 -9 -13 -11 0 -20 22 -15 30
-12 30 10 0 11 5 20 11 20 6 0 8 -9 4 -20 -6 -18 3 -25 28 -21 13 2 8 -11 -10
-26 -17 -12 -16 -13 7 -11 14 2 25 9 25 16 0 18 34 42 60 42 11 0 31 7 43 16
31 21 118 29 180 15 149 -32 225 -152 193 -309 -17 -87 -54 -152 -144 -253
-131 -149 -188 -202 -247 -230 -94 -46 -279 -62 -402 -37 -52 11 -60 10 -76
-5 -29 -30 1 -68 73 -93 33 -11 74 -26 90 -33 32 -13 111 -7 133 11 6 6 12 8
12 4 0 -3 8 1 18 8 96 79 134 107 138 103 13 -13 -19 -86 -55 -125 -58 -63
-180 -282 -187 -336 -10 -80 -15 -105 -30 -149 -11 -33 -15 -66 -11 -101 4
-30 0 -75 -8 -110 -10 -42 -11 -66 -4 -85 16 -41 11 -193 -10 -290 -21 -97
-41 -133 -147 -273 -39 -51 -91 -127 -115 -168 -43 -74 -151 -296 -163 -335
-8 -29 8 -48 42 -51 55 -4 133 -16 129 -20 -2 -2 -24 -7 -48 -10 -47 -7 -69
-19 -69 -38 0 -14 -72 -135 -120 -201 -64 -88 -183 -200 -201 -189 -5 3 -9 1
-9 -5 0 -5 5 -13 10 -16 15 -9 -28 -81 -73 -121 -26 -24 -44 -33 -60 -30 -12
3 -49 7 -82 11 -51 5 -170 33 -515 121 -36 9 -72 21 -80 25 -27 16 -74 36
-160 69 -143 54 -228 92 -272 122 -14 10 -33 18 -41 18 -8 0 -20 7 -27 15 -7
8 -21 15 -31 15 -11 0 -19 7 -19 15 0 8 -19 25 -41 37 -23 13 -52 29 -65 36
-18 10 -23 19 -19 38 3 13 7 35 10 49 3 14 10 25 16 25 17 0 35 23 43 53 8 33
34 46 50 26 7 -9 32 -15 65 -16 45 -2 54 1 58 17 7 27 33 25 33 -2 0 -16 3
-19 11 -11 9 9 6 19 -8 40 -29 42 -27 72 5 84 24 9 30 7 49 -18 13 -15 23 -22
23 -15 0 7 5 10 10 7 6 -3 10 -15 10 -26 0 -14 7 -19 25 -19 17 0 23 -4 19
-14 -3 -8 4 -19 16 -26 28 -15 36 -7 14 14 -12 13 -14 20 -5 29 18 18 12 29
-10 16 -25 -13 -33 -6 -48 43 -12 35 -42 60 -49 39 -2 -6 -8 -9 -12 -6 -5 3
-7 12 -4 20 3 8 -6 27 -20 42 -14 15 -26 34 -26 41 0 7 -4 11 -9 8 -4 -3 -16
2 -25 12 -9 9 -32 33 -51 54 -19 20 -35 39 -35 42 0 9 -38 62 -68 94 -52 58
-3 77 93 37 35 -15 68 -24 73 -21 6 3 13 2 17 -4 4 -6 12 -7 18 -3 14 9 19 10
48 12 11 0 17 6 14 11 -3 6 1 10 9 10 8 0 18 -4 21 -10 13 -22 24 -9 14 17
l-10 28 23 -23 c28 -25 50 -29 41 -6 -4 12 0 14 22 8 23 -6 27 -4 22 9 -3 9
-2 17 3 19 13 5 14 107 2 153 -6 22 -11 49 -11 60 -1 31 -6 59 -15 73 -4 7 -5
20 -2 28 3 8 -2 27 -12 42 -16 24 -16 26 0 19 15 -5 16 -3 7 21 -7 17 -7 28 0
30 6 2 6 15 0 34 -4 17 -6 34 -4 39 3 4 -1 10 -7 12 -10 4 -9 8 2 17 12 9 12
13 2 17 -10 4 -10 9 3 23 14 16 19 17 43 4 29 -15 40 -11 24 8 -11 14 -5 68 8
68 5 0 15 6 22 13 41 40 220 136 281 151 16 4 52 18 80 31 28 14 59 25 69 25
10 0 27 9 37 19 11 11 21 17 24 15 2 -2 10 2 17 11 7 8 19 15 26 15 8 0 14 5
14 11 0 5 3 8 8 6 4 -3 13 2 21 11 13 14 12 15 -16 9 -21 -4 -33 -2 -37 6 -3
9 -7 8 -15 -3 -9 -13 -11 -13 -11 1 0 12 -10 15 -45 15 -25 -1 -45 1 -45 4 0
5 -42 7 -250 10 -74 1 -180 9 -235 17 -55 8 -129 17 -165 20 -36 3 -70 9 -75
13 -6 5 -47 12 -90 15 -44 4 -82 10 -85 14 -3 4 -21 11 -40 14 -79 14 -93 20
-130 57 -5 5 -32 10 -60 12 -8 0 -21 5 -28 11 -10 8 -16 7 -21 -1 -5 -8 -15
-4 -33 13 -29 27 -48 34 -29 11 16 -19 -5 -32 -24 -16 -12 10 -15 9 -16 -6 0
-14 -2 -15 -6 -4 -3 8 -12 19 -19 23 -8 4 -14 13 -14 19 0 6 -6 19 -14 27 -8
9 -16 23 -18 31 -2 8 -12 22 -23 32 -17 15 -18 19 -5 29 13 9 13 10 -2 5 -10
-3 -20 -1 -23 4 -4 6 -1 10 4 10 15 0 14 33 -1 48 -9 9 -8 12 5 12 9 0 17 4
17 10 0 5 -7 7 -15 4 -10 -4 -15 0 -15 14 0 30 40 155 55 172 19 22 38 99 31
131 -6 34 14 43 61 30 18 -5 38 -8 45 -7 71 14 88 19 88 26 0 4 15 10 33 13
55 8 137 41 137 55 0 9 7 11 20 7 13 -4 22 -1 26 9 3 9 10 16 16 16 5 0 7 -4
4 -9 -3 -5 0 -11 8 -14 32 -12 326 8 326 22 0 15 -79 96 -139 144 -36 29 -82
68 -101 87 -19 19 -65 50 -102 68 -61 31 -71 33 -129 28 -105 -10 -179 -12
-179 -4 0 17 107 110 133 115 26 5 27 8 21 37 -4 17 -8 38 -9 46 -6 48 -18 90
-26 90 -5 0 -9 16 -9 35 0 38 -18 86 -37 98 -7 4 -13 15 -13 22 0 8 -4 15 -9
15 -20 0 -71 53 -71 74 0 36 25 61 130 131 55 37 100 70 100 74 0 3 20 28 43
54 45 48 83 61 105 34z m289 -468 c23 -14 39 -30 35 -34 -4 -5 -2 -5 5 -1 7 4
27 0 46 -8 96 -39 306 -61 410 -41 35 7 39 5 35 -11 -2 -10 -18 -29 -37 -41
-45 -31 -120 -30 -271 1 -63 13 -137 27 -165 31 -72 9 -91 27 -113 108 -8 28
-8 35 1 30 7 -4 31 -19 54 -34z m-1099 2 c-4 -33 3 -40 32 -34 24 4 30 2 30
-12 0 -10 3 -15 7 -12 7 7 53 -31 53 -44 0 -13 -94 -39 -150 -40 -31 -1 -66 3
-78 10 -26 14 -48 53 -57 102 l-6 35 43 -1 c24 -1 52 1 62 5 21 7 66 1 64 -9z
m368 -443 c-28 -37 -112 -118 -121 -118 -9 0 -39 -32 -58 -62 -20 -31 -37 -37
-31 -10 2 9 5 37 7 62 2 25 7 52 12 61 14 23 62 45 115 53 25 4 56 15 70 26
34 27 35 25 6 -12z m-5285 -782 c15 -33 6 -63 -37 -127 -40 -59 -128 -154
-158 -171 -17 -9 -18 -7 -13 24 34 211 65 276 117 248 26 -14 26 -14 40 20 15
36 36 39 51 6z m210 -537 c115 -15 213 -45 281 -85 135 -82 293 -233 286 -273
-2 -9 -14 -18 -27 -19 -17 -3 -37 9 -75 46 -178 171 -343 244 -556 246 -165 2
-257 -20 -436 -103 -72 -34 -100 -42 -135 -39 -62 4 -60 32 5 71 108 63 257
116 411 147 110 22 138 23 246 9z m931 -1066 c10 -9 18 -22 18 -30 0 -7 4 -13
9 -13 5 0 11 -8 14 -17 3 -10 20 -42 36 -71 49 -84 47 -86 -66 -77 -54 4 -101
9 -105 12 -16 9 -8 93 14 130 52 94 51 92 80 66z m96 -624 c24 -10 30 -55 11
-90 -15 -28 -3 -56 29 -64 33 -8 52 -23 52 -41 0 -18 -18 -18 -53 1 -15 8 -44
17 -64 21 -20 4 -77 23 -127 43 l-91 36 -3 71 -3 70 113 -19 c62 -11 123 -23
136 -28z m-1773 -331 c38 -46 48 -50 136 -59 43 -4 89 -15 103 -24 14 -9 35
-16 48 -15 50 4 88 -1 88 -11 0 -6 -7 -9 -15 -5 -17 6 -21 -9 -5 -19 14 -9 12
-25 -2 -22 -9 1 -12 -8 -10 -25 2 -22 -1 -28 -17 -28 -30 0 -36 -19 -9 -30
l23 -9 -23 -7 c-21 -6 -23 -11 -17 -43 3 -20 15 -43 26 -53 28 -24 23 -31 -12
-13 -23 13 -29 20 -23 37 4 15 2 19 -7 16 -22 -8 -12 -67 14 -89 25 -21 19
-24 -18 -7 -19 8 -24 16 -19 31 4 14 2 18 -7 15 -20 -7 -12 -60 11 -77 31 -21
23 -33 -11 -16 -19 11 -29 22 -25 31 3 8 1 14 -4 14 -6 0 -10 -7 -10 -15 0 -8
-4 -15 -9 -15 -10 0 -51 -79 -51 -97 0 -7 9 -15 20 -18 48 -15 49 -78 3 -127
-22 -24 -30 -53 -64 -245 -22 -120 -42 -237 -45 -261 -8 -53 -26 -63 -93 -55
-86 10 -84 2 -46 223 19 107 41 229 49 270 9 50 11 83 4 99 -7 20 -5 28 8 38
10 7 15 13 12 13 -4 0 0 12 7 27 13 25 13 29 -3 35 -13 5 -10 7 10 7 20 1 26
5 22 16 -4 8 1 17 10 21 9 3 16 10 16 15 0 4 -7 6 -15 3 -13 -5 -14 -2 -5 21
13 34 13 35 -5 29 -8 -4 -15 -1 -15 5 0 6 5 11 10 11 6 0 10 9 10 21 0 16 -4
19 -21 14 -15 -5 -19 -4 -15 4 4 6 14 11 23 11 13 0 15 9 11 45 l-5 44 56 21
c39 14 46 18 21 14 -82 -14 -77 -16 -84 34 -3 25 -5 47 -3 49 2 1 32 9 68 17
l64 14 -56 1 c-40 1 -59 5 -63 16 -3 9 -12 12 -21 9 -10 -4 -26 3 -41 16 -18
18 -24 34 -24 67 0 24 4 43 9 43 5 0 21 -15 36 -32z m4851 -1053 c-4 -10 1
-15 14 -15 11 0 20 7 20 15 0 27 18 16 25 -15 3 -16 14 -32 24 -35 21 -6 26
-45 5 -45 -15 0 -19 -28 -6 -46 4 -6 15 -14 26 -17 16 -6 17 -4 12 19 -6 22
-5 24 7 13 7 -8 20 -29 28 -46 7 -18 17 -33 21 -33 5 0 8 -4 8 -10 0 -5 9 -19
21 -31 l21 -21 -23 -21 c-14 -13 -18 -22 -11 -25 14 -4 16 -32 3 -32 -5 0 -11
8 -15 18 -3 9 -8 22 -11 28 -3 6 4 14 17 18 22 6 22 7 4 18 -15 8 -21 8 -24 0
-2 -7 -11 -12 -21 -12 -9 0 -22 -5 -28 -11 -14 -14 -48 14 -38 31 3 5 -1 10
-9 10 -9 0 -16 6 -16 14 0 8 -3 21 -6 30 -3 9 -1 16 5 16 6 0 11 -7 11 -15 0
-8 6 -15 14 -15 23 0 15 42 -13 68 -33 30 -45 28 -37 -8 8 -41 -11 -38 -20 2
-3 18 -15 41 -26 50 -21 18 -17 38 7 38 11 0 12 7 4 32 -12 42 -11 48 2 48 6
0 9 -7 5 -15z"/>
<path d="M10897 7723 c-16 -16 -3 -32 58 -73 36 -23 82 -56 102 -71 33 -27 72
-37 85 -23 3 3 -1 23 -10 45 -17 43 -69 90 -126 114 -37 15 -98 20 -109 8z"/>
<path d="M13470 7323 c-32 -6 -50 -21 -50 -41 0 -12 12 -14 75 -8 91 8 125 -5
185 -70 35 -38 40 -50 40 -90 0 -39 2 -45 14 -35 19 16 40 105 32 136 -4 15
-29 40 -67 66 -55 37 -68 41 -132 44 -40 2 -83 1 -97 -2z"/>
<path d="M4851 3384 c-11 -14 -22 -44 -25 -67 -13 -106 -13 -126 -2 -138 8 -9
8 -10 -1 -5 -9 5 -13 -2 -13 -23 0 -28 3 -31 35 -32 58 -3 60 -4 65 -16 3 -7
6 17 8 52 3 102 6 115 22 116 10 0 11 2 3 6 -7 2 -13 21 -14 41 0 30 -5 21
-21 -43 -10 -44 -23 -83 -26 -87 -6 -6 -6 147 0 190 1 6 12 12 25 12 13 0 23
-6 23 -12 0 -9 3 -8 10 2 23 37 -60 41 -89 4z"/>
<path d="M2943 5827 c-109 -73 -331 -226 -493 -342 -162 -115 -443 -313 -625
-440 -383 -269 -495 -348 -815 -575 -129 -92 -280 -198 -335 -235 -55 -38 -89
-65 -75 -61 14 4 70 12 125 17 55 6 156 19 225 29 168 27 347 25 606 -6 l51
-6 99 120 c346 419 705 856 798 970 59 72 109 132 112 132 2 0 34 -22 72 -50
38 -27 138 -90 223 -139 265 -154 371 -220 686 -428 168 -112 308 -203 312
-203 5 0 133 123 168 162 7 7 26 24 43 38 42 34 55 57 39 76 -6 8 -20 14 -30
14 -11 0 -28 9 -39 20 -11 11 -25 21 -32 23 -7 1 -25 18 -39 38 -15 20 -56 54
-91 75 -72 43 -99 63 -148 108 -20 18 -56 46 -80 62 -25 16 -53 36 -62 44 -9
9 -107 87 -217 175 -121 97 -201 167 -201 178 0 24 15 21 63 -12 23 -15 76
-51 117 -79 231 -156 346 -236 352 -246 4 -6 10 -8 13 -5 6 7 1 13 -260 314
-99 114 -200 230 -223 259 -84 99 -92 106 -117 106 -15 0 -102 -52 -222 -133z"/>
<path d="M4609 5373 c-97 -71 -209 -175 -289 -268 -154 -178 -178 -212 -106
-147 36 33 50 41 60 33 10 -9 25 -1 61 34 27 25 51 45 55 45 4 0 13 14 20 30
7 17 18 30 25 30 28 0 194 164 228 224 13 23 31 53 41 69 10 15 16 27 14 27
-3 0 -52 -34 -109 -77z"/>
<path d="M4535 5082 c-5 -4 -15 -16 -21 -27 -6 -11 -26 -30 -44 -43 -19 -12
-40 -35 -47 -50 -8 -17 -28 -33 -48 -41 -22 -8 -35 -19 -37 -34 -2 -13 -19
-30 -43 -44 -22 -12 -42 -32 -45 -44 -3 -13 -23 -30 -47 -43 -31 -15 -43 -27
-43 -43 0 -16 -12 -28 -39 -43 -26 -13 -41 -28 -43 -42 -2 -16 -16 -29 -45
-42 -34 -15 -43 -25 -43 -44 0 -15 -16 -42 -40 -68 -22 -24 -40 -48 -40 -53 0
-14 60 -39 82 -33 10 2 31 21 46 41 31 41 43 52 56 48 13 -4 72 63 80 91 4 12
18 29 31 38 13 8 29 28 35 45 7 16 21 34 32 40 10 5 26 28 34 50 9 21 20 39
24 39 4 0 13 14 20 30 7 17 27 43 45 58 17 16 35 40 38 54 4 13 18 30 32 38
14 7 25 19 25 26 0 7 16 31 35 54 19 23 35 44 35 46 0 6 -14 4 -25 -4z"/>
<path d="M2631 4346 c-28 -65 -142 -379 -201 -555 l-51 -154 32 -33 c18 -19
34 -32 36 -30 2 2 39 138 82 302 43 165 91 340 106 389 15 50 30 98 32 108 11
36 -19 15 -36 -27z"/>
<path d="M255 3942 c-27 -20 -96 -69 -152 -110 l-103 -74 0 -241 1 -242 39 90
c83 188 268 615 266 614 0 0 -23 -17 -51 -37z"/>
<path d="M16065 3110 c22 -91 46 -173 56 -191 6 -12 13 -40 15 -63 2 -22 7
-49 11 -61 7 -22 9 -31 11 -58 1 -10 5 -16 10 -14 4 3 8 -12 10 -34 3 -50 30
-112 56 -131 13 -9 18 -48 7 -48 -12 0 -2 -38 17 -67 8 -13 11 -23 6 -23 -4 0
1 -7 12 -15 11 -8 14 -15 7 -15 -7 0 -13 -4 -13 -9 0 -5 6 -16 13 -23 6 -7 13
-28 14 -47 1 -19 11 -41 23 -51 13 -11 17 -21 10 -25 -12 -7 -14 -105 -1 -105
4 0 11 -24 15 -52 8 -65 14 -101 32 -203 9 -44 17 -89 19 -100 9 -52 14 -75
19 -83 6 -10 18 -89 18 -119 0 -13 3 -23 7 -23 7 0 13 -46 15 -118 0 -28 3
-52 6 -52 3 0 5 -17 6 -37 1 -55 11 -113 23 -127 5 -6 8 -31 6 -54 -2 -23 -1
-42 3 -42 4 0 6 -23 6 -50 -1 -32 4 -56 12 -65 9 -9 10 -16 4 -20 -5 -3 -10
-11 -10 -16 0 -6 4 -8 9 -5 5 3 11 -1 15 -9 3 -8 1 -17 -4 -20 -6 -4 -10 -20
-10 -36 0 -20 4 -28 11 -23 8 4 9 -3 4 -24 -4 -19 -1 -40 7 -54 7 -13 13 -54
14 -93 0 -38 9 -95 18 -125 10 -30 22 -79 27 -109 10 -54 31 -105 49 -116 5
-3 13 9 18 27 5 19 5 34 0 36 -5 2 -4 10 3 18 9 11 9 17 0 28 -6 8 -11 42 -10
77 0 35 -4 91 -10 124 -6 33 -13 110 -16 170 -13 250 -16 294 -30 389 -12 80
-12 101 -3 108 10 6 10 10 0 17 -8 4 -14 12 -14 17 0 5 -5 20 -10 34 -5 13 -7
34 -4 46 4 13 1 26 -4 29 -6 4 -8 10 -6 14 3 4 1 23 -4 42 -5 19 -11 45 -14
59 -2 14 -11 57 -20 95 -15 70 -33 194 -42 290 -10 117 -23 205 -34 240 -9 32
-20 94 -25 147 -1 18 -5 49 -8 68 -4 19 -9 62 -12 95 -3 33 -10 78 -15 100 -5
22 -13 60 -19 85 -5 25 -14 58 -20 73 -6 16 -9 33 -5 38 3 5 1 9 -5 9 -5 0
-12 15 -16 33 -10 47 -44 115 -74 146 -28 30 -80 54 -104 49 -8 -2 -32 15 -52
37 -32 35 -36 37 -30 15z"/>
<path d="M15997 1564 c-3 -16 -2 -33 1 -39 3 -5 5 -22 3 -37 -5 -50 31 -128
59 -128 6 0 10 -6 7 -12 -2 -7 4 -23 15 -34 18 -20 18 -23 2 -38 -15 -16 -15
-17 9 -11 22 6 27 3 33 -19 4 -16 13 -26 24 -26 10 0 20 -5 22 -12 5 -14 38
-4 38 12 0 5 -7 10 -16 10 -13 0 -15 7 -11 33 5 31 4 34 -19 29 -22 -4 -24 -1
-24 34 0 20 -3 34 -7 31 -11 -12 -31 13 -26 33 3 11 0 20 -6 20 -6 0 -11 11
-11 25 0 14 -9 34 -20 45 -11 11 -20 29 -20 40 0 11 -4 20 -10 20 -5 0 -16 12
-23 26 l-14 27 -6 -29z"/>
<path d="M8318 913 c-12 -22 -13 -32 -4 -46 9 -14 8 -21 -6 -30 -11 -9 -14
-22 -11 -41 5 -23 3 -27 -13 -24 -11 2 -18 11 -18 21 1 9 -4 17 -11 17 -8 0
-11 -8 -8 -19 3 -13 -2 -23 -16 -30 -13 -7 -21 -22 -21 -37 0 -14 -5 -24 -11
-22 -6 2 -9 6 -7 9 2 3 -3 13 -10 21 -7 9 -10 23 -6 32 4 11 1 16 -11 16 -12
0 -16 6 -12 20 3 12 0 20 -8 20 -9 0 -11 -8 -8 -21 4 -15 0 -27 -12 -35 -10
-8 -15 -17 -12 -21 4 -4 13 -1 19 5 17 17 28 15 28 -6 0 -10 5 -23 11 -29 8
-8 5 -15 -10 -25 -14 -10 -18 -21 -15 -35 6 -22 34 -40 34 -23 0 6 7 10 15 10
8 0 15 9 15 20 0 10 9 24 20 30 14 8 19 17 15 30 -3 10 -1 21 5 25 15 10 19 4
24 -36 3 -19 5 -36 6 -39 0 -3 7 9 14 25 11 26 11 31 -2 36 -12 4 -11 9 7 26
12 11 19 27 16 35 -3 8 1 21 10 28 13 11 15 9 15 -9 0 -13 6 -21 17 -21 13 0
14 3 5 12 -7 7 -8 17 -2 28 7 14 6 17 -7 16 -10 0 -21 10 -27 27 -9 24 -7 31
7 42 18 13 22 25 9 25 -4 0 -15 -12 -24 -27z"/>
<path d="M9390 892 c0 -4 9 -15 20 -25 19 -16 28 -57 13 -57 -13 0 -30 14 -36
30 -4 12 -6 11 -6 -2 -1 -12 -9 -18 -24 -18 -30 0 -40 -10 -26 -26 7 -9 6 -19
-5 -37 -9 -13 -14 -26 -11 -29 4 -3 -8 -11 -25 -17 -28 -9 -33 -8 -37 9 -3 11
-11 20 -18 20 -7 0 -15 6 -18 13 -3 10 -9 10 -26 0 -28 -17 -28 -17 -36 17 -4
17 -13 30 -20 30 -7 0 -16 6 -18 13 -3 7 -6 5 -6 -5 -1 -24 -31 -23 -31 0 0
28 -11 34 -32 15 -20 -18 -39 -10 -20 9 17 17 15 33 -3 18 -8 -6 -22 -9 -32
-6 -15 5 -22 -2 -32 -29 -7 -19 -16 -35 -20 -35 -17 0 -20 14 -6 30 9 10 13
25 9 34 -9 24 -24 19 -24 -9 0 -33 -16 -32 -33 1 -9 17 -17 23 -21 15 -14 -21
-27 -11 -15 12 11 21 10 21 -12 -3 -13 -13 -24 -33 -24 -44 0 -32 -23 -29 -30
4 -9 42 -27 47 -60 16 -20 -19 -25 -30 -20 -47 l7 -22 -23 22 c-23 21 -23 23
-6 35 19 14 23 36 7 36 -5 0 -10 -4 -10 -10 0 -16 -27 -12 -34 5 -3 8 -10 15
-17 15 -6 0 -8 -7 -5 -16 7 -18 -23 -94 -36 -94 -5 0 -11 13 -14 29 -8 37 -36
46 -54 17 -10 -17 -10 -19 1 -8 18 17 32 15 25 -3 -3 -8 0 -15 5 -15 7 0 9
-11 7 -25 -3 -13 0 -26 6 -29 7 -3 5 -9 -5 -18 -16 -13 -19 -51 -6 -64 12 -12
8 -24 -7 -24 -19 0 -28 -27 -10 -34 8 -3 14 -14 14 -25 0 -14 -5 -18 -20 -14
-22 6 -28 -12 -7 -20 19 -7 22 -77 2 -77 -8 0 -15 8 -16 18 -1 11 -4 8 -8 -8
-5 -17 -3 -28 6 -33 19 -12 16 -27 -6 -27 -25 0 -36 -16 -19 -27 7 -4 19 -18
26 -31 10 -19 11 -27 1 -38 -7 -8 -18 -13 -25 -10 -22 8 -27 -14 -8 -30 18
-13 18 -14 -3 -20 -25 -7 -29 -19 -11 -30 6 -4 14 -2 16 4 2 7 8 12 13 12 14
0 11 -28 -3 -32 -7 -3 -13 -13 -13 -24 0 -10 -7 -19 -15 -19 -8 0 -20 -7 -27
-15 -10 -12 -9 -17 3 -27 23 -17 10 -30 -45 -43 -27 -6 -52 -18 -55 -26 -3 -8
-12 -14 -21 -14 -19 0 -19 10 1 24 12 9 13 17 5 39 -13 33 -34 36 -25 3 4 -16
1 -25 -11 -30 -14 -5 -16 -2 -12 13 3 11 0 22 -7 24 -8 3 -8 8 2 18 19 20 14
29 -16 29 -36 0 -78 -28 -63 -43 7 -7 15 -6 26 3 8 7 16 11 18 9 27 -48 28
-49 10 -74 -10 -13 -26 -25 -35 -25 -22 0 -23 13 -3 30 24 20 17 30 -17 23
-28 -6 -31 -4 -26 15 3 12 1 23 -6 26 -7 3 -4 10 8 20 10 8 16 22 13 30 -9 23
13 30 28 10 7 -11 17 -16 20 -12 12 11 -3 55 -20 62 -22 8 -57 -26 -49 -47 9
-24 -18 -21 -34 3 -10 17 -9 23 6 36 12 10 17 24 14 40 -6 30 -28 26 -24 -4 2
-15 -2 -22 -13 -22 -11 0 -15 5 -11 15 3 9 0 15 -9 15 -22 0 -18 27 5 43 18
12 18 15 5 20 -9 4 -15 1 -15 -7 0 -9 -7 -12 -19 -9 -24 6 -61 -13 -61 -31 0
-9 -7 -12 -20 -9 -24 6 -25 16 -5 33 22 18 18 28 -8 23 -17 -3 -26 2 -34 20
-12 26 -2 47 24 47 7 0 13 5 13 10 0 6 -4 10 -10 10 -5 0 -10 11 -10 25 0 14
-5 25 -10 25 -6 0 -9 -12 -8 -27 2 -20 -2 -28 -16 -31 -14 -3 -17 0 -13 12 4
9 2 16 -3 16 -16 0 -11 38 6 48 17 10 11 52 -7 52 -6 0 -8 -4 -5 -9 8 -12 -3
-41 -15 -41 -5 0 -9 6 -9 14 0 8 -7 16 -15 20 -18 6 -19 1 -5 -24 7 -13 6 -21
-5 -30 -8 -7 -15 -18 -15 -24 0 -6 7 -3 15 8 15 20 40 12 31 -10 -3 -7 -1 -16
4 -19 6 -4 10 -15 10 -26 0 -10 5 -19 10 -19 6 0 10 -14 10 -31 0 -30 -19 -59
-39 -59 -17 0 -13 17 5 24 12 5 14 13 9 34 -8 33 -11 36 -25 27 -9 -6 -9 -10
1 -16 11 -8 10 -12 -6 -24 -18 -15 -20 -13 -30 22 -11 38 -11 38 -24 14 -10
-18 -10 -25 -1 -31 9 -6 7 -13 -9 -29 -20 -20 -20 -22 -4 -28 9 -4 19 -1 21 5
2 7 11 12 20 12 12 0 13 -3 5 -11 -9 -9 -9 -16 0 -29 8 -14 8 -22 -3 -34 -7
-9 -9 -20 -5 -24 4 -4 10 -1 12 6 3 6 12 12 20 12 9 0 13 -6 10 -14 -3 -8 -1
-16 6 -19 8 -2 6 -9 -6 -21 -11 -11 -15 -26 -12 -37 4 -11 2 -19 -4 -19 -6 0
-11 5 -11 10 0 6 -9 10 -19 10 -11 0 -23 -4 -26 -10 -11 -17 -23 -11 -18 9 3
13 11 17 24 14 10 -3 19 0 19 6 0 6 7 11 15 11 8 0 15 5 15 10 0 6 -11 8 -26
4 -18 -5 -29 -1 -39 12 -7 11 -17 15 -21 11 -5 -4 -2 -12 6 -18 13 -8 11 -12
-7 -28 -25 -20 -29 -37 -13 -43 6 -2 2 -20 -10 -43 -15 -30 -17 -41 -7 -47 22
-14 29 -8 22 21 -5 23 -1 31 19 45 31 20 33 20 33 1 0 -8 -4 -15 -8 -15 -5 0
-7 -13 -6 -30 2 -28 4 -30 45 -30 31 0 42 4 42 15 0 8 -4 15 -10 15 -17 0 -11
30 8 37 9 4 21 13 25 20 5 7 13 10 19 7 6 -4 14 0 19 7 6 11 11 11 21 1 7 -7
8 -12 2 -12 -17 0 -69 -48 -61 -56 4 -4 13 -2 19 4 15 15 28 15 28 2 0 -6 -14
-17 -30 -24 -27 -11 -21 -12 71 -14 l101 -2 -6 24 c-4 16 0 30 11 42 17 17 16
17 -9 11 -21 -6 -29 -2 -42 18 -16 24 -16 26 10 50 41 38 59 29 32 -15 -14
-22 -3 -39 14 -22 26 26 45 2 27 -33 -3 -6 -6 -25 -8 -42 l-3 -33 79 0 c48 0
73 4 64 9 -7 5 -10 14 -7 20 11 18 26 13 26 -9 0 -13 7 -20 20 -20 11 0 20 5
20 12 0 9 3 9 12 0 15 -15 84 -16 93 -2 4 7 11 8 18 1 8 -6 21 -1 41 15 25 22
27 26 12 37 -11 9 -13 16 -6 27 8 13 11 13 19 1 5 -8 19 -12 35 -9 21 4 27 1
32 -18 3 -13 10 -24 15 -24 5 0 9 -9 9 -20 0 -13 7 -20 20 -20 22 0 26 10 10
26 -13 13 -2 44 16 44 10 0 12 8 8 30 -5 23 -3 30 10 30 11 0 16 9 16 30 0 17
-4 30 -10 30 -13 0 -1 29 21 51 17 17 17 16 12 -17 -4 -22 -2 -34 6 -34 6 0
11 5 11 10 0 6 9 10 20 10 15 0 20 -7 20 -29 0 -17 5 -33 10 -36 17 -11 11
-35 -9 -35 -11 0 -21 -3 -23 -7 -1 -5 -20 -16 -42 -26 -34 -16 -37 -20 -31
-45 9 -36 12 -38 33 -19 10 10 22 14 25 10 4 -3 16 2 27 12 11 10 21 15 21 12
1 -4 3 -11 4 -17 1 -5 3 -14 4 -20 0 -5 18 -10 39 -10 l37 1 -22 18 c-19 15
-20 20 -8 25 8 3 14 11 13 18 -2 8 11 12 42 11 38 0 44 -3 42 -19 -2 -11 -9
-25 -15 -33 -10 -12 -8 -13 12 -8 14 3 31 1 38 -5 7 -6 13 -9 14 -7 7 35 2 59
-13 59 -21 0 -32 17 -34 53 -1 23 2 27 17 22 22 -7 70 22 63 39 -3 7 2 18 9
25 12 9 16 8 21 -4 4 -11 13 -14 31 -9 17 4 27 2 31 -9 3 -9 13 -18 22 -22 14
-5 14 -4 1 12 -8 10 -14 28 -13 40 1 14 -6 25 -17 28 -28 9 -6 45 26 45 28 0
32 -9 13 -29 -11 -10 -10 -12 2 -9 8 2 14 -3 12 -10 -2 -14 14 -16 23 -2 3 6
12 10 19 10 13 0 14 -12 1 -74 -6 -31 -4 -41 8 -48 9 -5 14 -15 11 -23 -8 -21
10 -19 29 3 19 20 23 37 7 27 -5 -3 -19 0 -30 8 -19 13 -19 16 -6 30 9 8 21
18 28 21 10 5 10 7 1 12 -18 8 -16 44 3 44 8 0 12 -5 9 -10 -3 -6 1 -13 10
-16 11 -5 13 -10 5 -19 -8 -10 -6 -15 10 -20 13 -4 19 -12 16 -21 -3 -8 -1
-14 4 -14 6 0 10 7 10 15 0 8 6 15 14 15 25 0 30 22 9 39 -31 26 -36 64 -12
95 11 14 17 26 12 27 -4 1 3 4 16 8 35 9 36 27 4 39 -15 5 -37 13 -48 18 -16
6 -17 8 -4 11 9 2 22 15 29 28 15 27 40 41 40 21 0 -8 14 -13 35 -14 32 -1 34
0 22 18 -6 11 -20 23 -30 26 -21 7 -18 23 7 38 13 9 19 7 27 -6 6 -10 16 -18
23 -18 15 0 12 -63 -4 -68 -25 -9 -51 -47 -45 -67 13 -42 11 -50 -15 -47 -16
2 -29 -4 -37 -17 -11 -17 -9 -20 15 -26 18 -4 30 -2 37 8 6 8 25 18 43 21 28
7 33 5 42 -18 5 -14 13 -26 18 -26 9 0 32 -44 32 -60 0 -6 -7 -10 -15 -10 -23
0 -18 -17 8 -24 37 -10 57 -7 57 9 0 8 -5 15 -10 15 -7 0 -7 6 0 20 6 11 18
20 26 20 9 0 12 5 8 11 -3 6 -1 15 6 19 18 11 4 40 -19 40 -11 0 -25 -8 -30
-17 -10 -16 -11 -16 -17 5 -4 12 -17 25 -30 28 -13 3 -24 12 -24 19 0 7 -9 15
-20 18 -13 3 -18 10 -14 21 3 9 1 16 -5 16 -6 0 -11 -7 -11 -15 0 -8 -9 -15
-20 -15 -11 0 -20 3 -20 8 0 11 51 32 80 32 15 0 35 10 46 22 19 21 19 21 0
14 -24 -8 -56 19 -56 48 0 20 1 20 20 -4 10 -14 22 -21 27 -17 4 5 1 12 -7 17
-12 7 -11 12 5 30 11 12 20 31 20 43 0 17 5 21 23 19 15 -2 22 2 22 13 0 9 5
13 10 10 14 -9 52 4 45 15 -3 5 -19 7 -35 3 -18 -3 -30 -1 -30 5 0 6 -7 18
-16 27 -13 12 -14 19 -4 30 14 17 40 20 40 5 0 -5 -4 -10 -10 -10 -5 0 -8 -10
-6 -22 1 -13 6 -22 9 -20 4 1 12 2 18 2 8 0 8 4 1 13 -18 21 3 39 49 41 27 2
43 8 42 15 -2 6 4 11 13 11 8 0 12 5 9 10 -4 6 -11 8 -16 4 -5 -3 -16 -1 -23
5 -10 8 -17 7 -26 -4 -7 -8 -26 -15 -42 -15 l-29 0 18 32 c10 18 24 39 31 46
6 7 12 14 12 16 0 1 -25 1 -55 0 -30 -1 -55 3 -55 8 0 5 -9 7 -19 3 -34 -11
-68 5 -74 33 -5 24 -47 64 -47 44z"/>
<path d="M10090 717 c-14 -6 -26 -12 -28 -12 -1 -1 4 -15 13 -31 19 -37 19
-50 0 -58 -8 -3 -14 -15 -12 -28 1 -15 -3 -23 -13 -23 -26 0 -30 -19 -9 -41
17 -18 19 -30 14 -68 -7 -47 -26 -73 -45 -61 -16 10 -11 -8 10 -35 26 -34 25
-43 -5 -36 -28 7 -30 4 -14 -25 16 -31 4 -53 -21 -39 -18 10 -20 8 -20 -19 0
-16 -5 -33 -10 -36 -6 -4 -8 -11 -4 -16 3 -5 9 -7 14 -4 11 7 40 -5 40 -16 0
-5 -6 -9 -13 -9 -9 0 -12 -11 -9 -36 4 -34 3 -36 -17 -31 -11 3 -21 1 -21 -3
0 -5 -3 -15 -6 -23 -3 -8 3 -22 12 -32 15 -14 15 -18 3 -26 -9 -5 27 -9 95 -9
92 0 111 3 122 17 9 13 9 22 2 30 -6 7 -7 13 -2 13 30 -1 51 -46 26 -54 -9 -2
-3 -4 13 -3 27 2 30 5 27 32 -2 17 -8 35 -14 42 -6 8 -3 15 11 23 17 8 19 15
11 29 -7 14 -6 22 6 32 12 10 14 23 10 51 -5 29 -2 39 11 47 15 8 16 12 6 22
-18 18 -16 39 3 39 12 0 15 6 9 23 -17 55 -17 67 -1 73 11 4 14 13 10 30 -5
18 -2 24 10 24 12 0 16 8 14 30 -1 17 -6 30 -10 30 -14 0 -9 29 6 37 17 9 10
63 -8 63 -13 0 -38 49 -30 61 3 5 0 9 -6 9 -8 0 -10 -9 -6 -25 5 -20 3 -25
-13 -25 -13 0 -24 11 -33 36 -13 37 -23 39 -72 19 -16 -7 -18 -5 -13 8 7 20
-6 21 -43 4z"/>
<path d="M14180 553 c-41 -45 -43 -48 -22 -51 12 -2 20 -8 16 -13 -3 -6 -1
-16 5 -23 8 -9 7 -18 -4 -32 -8 -10 -15 -14 -15 -7 0 30 -72 -24 -84 -64 -6
-20 -4 -23 21 -23 26 -1 27 -1 8 -12 -11 -7 -26 -18 -33 -25 -18 -17 -32 -17
-32 2 0 8 -3 15 -8 15 -13 0 -122 -118 -122 -132 0 -8 -5 -19 -12 -26 -9 -9
-9 -12 0 -12 7 0 15 7 18 15 9 22 34 19 34 -4 0 -21 -22 -33 -44 -25 -9 4 -13
-3 -13 -22 0 -16 -9 -35 -22 -45 -11 -9 -21 -23 -21 -31 0 -8 -5 -19 -12 -26
-9 -9 33 -12 189 -12 197 0 246 8 189 30 -14 5 -26 14 -26 18 0 5 19 27 43 49
23 21 58 59 77 83 19 25 43 53 53 62 19 20 22 38 7 38 -15 0 -12 33 6 58 8 12
24 22 34 22 10 0 21 8 24 18 8 23 73 98 80 91 3 -3 9 -16 15 -29 6 -16 10 -19
10 -9 1 20 28 33 36 18 4 -5 -4 -18 -17 -29 l-23 -19 23 -1 c12 0 22 -4 22
-10 0 -5 8 -18 18 -28 9 -9 22 -31 27 -47 8 -22 17 -30 35 -30 33 0 43 -15 23
-37 -14 -16 -13 -20 18 -49 18 -17 34 -40 36 -50 3 -21 14 -37 51 -74 12 -12
22 -34 22 -49 0 -25 2 -26 63 -26 36 0 68 5 75 12 9 9 12 9 12 0 0 -9 33 -12
123 -11 67 1 114 3 105 6 -10 2 -18 13 -18 24 0 18 -10 23 -37 20 -6 -1 -9 7
-6 17 3 12 -2 22 -11 25 -9 4 -15 17 -15 29 2 33 -18 78 -35 78 -8 0 -16 10
-18 23 -2 12 -9 21 -15 20 -22 -5 -63 42 -56 65 3 12 -1 28 -10 36 -8 9 -18
21 -21 28 -4 9 -9 8 -18 -6 -30 -43 -47 -61 -53 -54 -9 9 21 64 40 71 8 4 15
14 15 23 0 12 -6 15 -26 10 -25 -7 -26 -5 -19 21 l7 28 -24 -22 c-14 -13 -30
-23 -36 -23 -22 0 -12 31 19 60 31 27 32 50 3 50 -8 0 -14 6 -14 13 0 40 -72
62 -96 30 -9 -12 -13 -13 -14 -5 0 10 -30 13 -130 11 -72 0 -133 -5 -136 -11
-3 -5 -11 -2 -17 6 -11 14 -15 14 -39 2 -17 -9 -30 -11 -34 -5 -8 13 -75 8
-70 -6 4 -13 -12 -45 -24 -45 -5 0 -7 14 -3 30 5 25 3 29 -11 24 -11 -4 -16
-1 -16 10 0 28 -25 17 -70 -31z"/>
</g>
</svg>
