<?xml version="1.0" standalone="no"?>
<!DOCTYPE svg PUBLIC "-//W3C//DTD SVG 20010904//EN"
 "http://www.w3.org/TR/2001/REC-SVG-20010904/DTD/svg10.dtd">
<svg version="1.0" xmlns="http://www.w3.org/2000/svg"
 width="1920.000000pt" height="1072.000000pt" viewBox="0 0 1920.000000 1072.000000"
 preserveAspectRatio="xMidYMid meet">

<g transform="translate(0.000000,1072.000000) scale(0.100000,-0.100000)"
fill="#000000" stroke="none">
<path d="M12685 10051 c4 -7 -7 -11 -30 -11 -20 0 -34 -4 -31 -8 2 -4 -44 -7
-102 -6 -59 0 -93 -1 -77 -3 52 -8 48 -19 -12 -33 -32 -7 -60 -16 -63 -21 -6
-9 -154 -42 -183 -41 -10 0 -15 -4 -11 -10 5 -8 1 -9 -10 -5 -10 4 -15 3 -11
-3 3 -6 1 -11 -4 -11 -6 -1 -14 -2 -18 -3 -21 -3 -72 -49 -67 -58 4 -7 2 -8
-5 -4 -6 4 -22 -6 -39 -25 -15 -18 -39 -46 -54 -61 -16 -16 -28 -33 -28 -37 0
-5 -17 -38 -38 -72 -22 -35 -59 -102 -83 -148 -24 -47 -52 -94 -62 -105 -10
-12 -29 -39 -43 -62 -21 -35 -22 -44 -12 -72 10 -26 9 -37 -6 -69 l-18 -38 22
20 22 20 -14 -30 c-14 -32 -86 -115 -100 -115 -19 0 -49 -41 -40 -56 7 -13 12
-12 35 6 31 25 37 12 7 -15 -31 -28 -48 -68 -38 -94 4 -13 4 -20 -1 -16 -5 3
-11 -1 -14 -7 -2 -7 -10 6 -17 30 -7 23 -17 42 -22 42 -12 0 -9 -22 7 -50 17
-30 19 -66 3 -76 -6 -4 -9 -3 -6 2 3 5 2 18 -3 29 -6 17 -8 15 -8 -11 -1 -17
-8 -48 -16 -67 -17 -41 -21 -71 -6 -48 7 11 9 11 14 0 3 -8 6 -5 6 8 1 28 11
53 21 53 5 0 7 -8 5 -17 -12 -59 -13 -93 -3 -87 6 4 8 -1 3 -16 -5 -17 -4 -21
6 -15 9 6 10 3 4 -11 -16 -38 -17 -65 -5 -94 7 -17 15 -29 17 -26 3 2 0 14 -6
25 -9 15 -8 26 1 41 18 28 26 25 33 -14 5 -24 1 -45 -14 -72 -11 -22 -20 -34
-21 -28 0 7 -7 15 -16 18 -14 5 -15 4 -5 -8 6 -7 13 -28 16 -44 2 -24 0 -29
-11 -25 -18 7 -80 -40 -86 -65 -4 -13 7 -7 33 19 39 39 59 49 59 28 0 -5 4 -7
10 -4 6 4 7 -1 3 -11 -4 -11 -2 -15 4 -11 18 12 23 -21 5 -35 -16 -12 -16 -11
-2 6 9 12 10 17 2 12 -20 -12 -55 -86 -40 -86 7 0 19 9 26 20 14 24 29 26 29
5 0 -8 -4 -15 -9 -15 -5 0 -7 -4 -4 -9 8 -13 -14 -111 -24 -111 -5 0 -10 -6
-13 -12 -2 -7 -2 -2 0 12 3 14 9 28 15 31 7 4 7 9 0 13 -14 8 -35 -58 -27 -84
4 -11 11 -18 16 -15 5 3 6 -1 3 -10 -6 -14 -8 -14 -20 2 -12 17 -13 17 -14 -4
0 -14 6 -23 15 -23 8 0 15 -7 15 -15 0 -8 4 -15 8 -15 4 0 16 -13 25 -30 12
-20 23 -27 34 -23 12 5 15 2 10 -10 -3 -9 -2 -19 3 -22 6 -4 10 2 10 12 1 17
1 17 11 0 6 -11 8 -32 5 -48 -3 -16 -1 -29 4 -29 5 0 7 -6 4 -14 -3 -8 -1 -17
5 -21 6 -3 11 -13 11 -21 0 -8 -4 -12 -10 -9 -5 3 -10 2 -10 -4 0 -5 4 -12 8
-15 11 -7 2 -66 -10 -66 -26 0 -118 -140 -117 -180 0 -21 2 -20 13 11 14 40
53 93 139 188 58 65 68 90 43 110 -12 10 -29 71 -20 71 2 0 12 -20 23 -45 11
-25 24 -45 29 -45 5 0 13 -15 19 -33 8 -26 7 -34 -3 -34 -7 0 -15 6 -18 14 -3
7 -9 13 -13 13 -11 0 -57 -68 -60 -88 -1 -9 -9 -22 -17 -28 -18 -13 -22 -29
-5 -18 7 4 10 3 7 -2 -55 -116 -60 -148 -28 -184 11 -13 20 -32 20 -44 0 -14
3 -17 10 -10 8 8 5 27 -10 64 -11 29 -19 55 -16 58 15 14 37 -14 52 -65 9 -32
19 -62 23 -68 4 -5 15 -34 25 -63 18 -52 19 -131 2 -187 -4 -11 1 -5 9 14 17
36 21 108 12 211 -4 42 -4 56 2 39 5 -15 19 -40 31 -56 32 -44 33 -152 2 -211
-13 -23 -27 -55 -33 -70 -9 -25 -7 -25 21 8 38 44 70 103 70 130 0 12 4 19 9
15 5 -3 11 7 13 22 3 27 4 27 15 7 18 -31 23 -104 10 -128 -7 -11 -24 -37 -38
-56 -14 -19 -30 -42 -34 -50 -8 -13 -7 -13 11 0 10 8 31 28 46 45 l28 30 -16
-40 c-9 -22 -16 -41 -15 -42 6 -14 -3 -23 -17 -19 -12 4 -27 -3 -43 -21 l-24
-27 27 17 c35 22 45 22 26 0 -14 -16 -48 -87 -48 -100 0 -3 16 15 36 39 40 47
69 64 77 44 5 -13 -92 -100 -106 -94 -13 5 -48 -83 -42 -106 5 -17 4 -18 -4
-6 -17 23 -14 -74 3 -113 8 -18 28 -48 46 -67 19 -21 26 -25 16 -10 -9 14 -24
41 -34 60 -9 19 -20 37 -23 40 -3 3 0 19 7 35 7 17 13 26 14 20 0 -5 13 -25
28 -43 23 -28 28 -30 28 -13 0 11 -4 17 -8 15 -4 -3 -16 13 -28 36 l-20 40 20
40 c11 22 24 40 28 40 4 1 25 16 47 36 23 20 32 32 20 28 -13 -5 -10 1 10 17
17 13 40 35 52 49 13 14 23 20 23 14 0 -7 -14 -26 -32 -43 -17 -17 -27 -31
-21 -31 5 0 18 9 28 20 10 12 24 19 31 16 8 -3 11 0 8 8 -3 7 2 19 11 26 17
14 17 14 20 -17 1 -12 -1 -20 -6 -18 -4 3 -10 1 -14 -5 -4 -6 -11 -8 -16 -5
-5 4 -9 1 -9 -6 0 -7 -11 -25 -25 -39 -15 -16 -32 -53 -42 -91 -9 -35 -22 -73
-29 -84 -10 -16 -10 -22 1 -32 11 -10 14 -10 18 0 3 7 14 -8 26 -33 12 -25 19
-36 15 -25 -3 11 -8 45 -10 75 -6 64 5 80 78 123 l46 27 -19 -40 c-32 -65 -35
-123 -10 -165 11 -20 21 -53 21 -73 0 -20 4 -53 10 -72 7 -26 6 -39 -4 -56
-17 -25 -4 -46 23 -37 14 4 14 3 -1 -9 -9 -7 -25 -19 -35 -26 -19 -14 -17 -14
35 4 9 3 1 -9 -18 -26 -28 -26 -30 -29 -8 -16 36 21 40 20 32 -10 -5 -19 -4
-25 5 -20 6 4 11 18 11 32 0 15 6 24 15 24 8 0 15 -4 15 -8 0 -5 13 -21 28
-38 47 -48 46 -56 -16 -120 -13 -13 -27 -24 -31 -24 -5 0 -11 -9 -14 -20 -3
-11 -1 -20 3 -20 11 0 -8 -58 -22 -66 -6 -4 -5 2 1 14 6 11 11 27 11 34 -1 7
-7 0 -14 -17 -10 -25 -9 -35 7 -68 10 -21 16 -41 13 -44 -3 -3 -49 35 -103 85
-224 207 -372 301 -508 323 -114 18 -156 4 -314 -104 -148 -101 -189 -148
-217 -243 -24 -84 -20 -261 11 -461 38 -243 33 -345 -24 -507 -23 -65 -40
-120 -38 -122 2 -2 14 7 28 20 36 34 92 61 97 48 2 -6 10 -8 18 -5 8 3 14 0
14 -7 0 -7 6 -10 14 -7 14 6 18 0 60 -97 31 -69 30 -66 11 -66 -10 0 -15 10
-15 27 0 14 -11 45 -25 68 -13 23 -21 46 -17 50 4 4 -3 2 -16 -4 -20 -10 -25
-9 -40 9 l-17 21 -49 -32 c-27 -18 -51 -41 -53 -50 -3 -10 -12 -20 -22 -22
-13 -4 -13 -5 2 -6 10 0 16 -5 12 -10 -3 -5 8 -24 25 -42 28 -31 37 -49 25
-49 -3 0 -20 17 -40 38 -40 42 -43 40 -72 -40 -12 -33 -26 -51 -48 -61 -47
-23 -197 -164 -263 -247 -33 -41 -90 -121 -128 -177 -64 -94 -222 -295 -419
-533 -45 -53 -114 -125 -154 -159 -40 -35 -70 -65 -68 -68 3 -2 31 3 63 11 55
14 60 14 77 -2 16 -17 16 -20 0 -60 -14 -38 -15 -45 -2 -58 13 -12 23 -13 67
-3 39 9 58 10 77 1 27 -13 30 -28 16 -101 -7 -36 -6 -46 9 -61 10 -10 20 -17
22 -15 2 2 32 4 68 6 45 1 64 -2 62 -10 -1 -6 5 -11 14 -11 10 0 14 -6 11 -14
-4 -10 -1 -13 9 -9 12 4 14 -9 11 -90 -1 -53 -6 -99 -10 -103 -11 -12 -38 17
-28 30 5 6 12 41 15 77 5 63 4 66 -17 65 -16 -1 -23 6 -25 22 -3 20 -9 22 -61
22 -32 0 -62 -5 -69 -12 -10 -10 -15 -10 -22 2 -5 8 -6 18 -4 22 3 4 -1 5 -9
2 -20 -7 -32 13 -17 30 6 8 13 25 16 37 16 73 16 71 -7 64 -18 -6 -20 -4 -14
14 5 16 2 21 -13 21 -31 0 -122 -30 -122 -40 0 -6 -6 -10 -12 -10 -7 0 -13
-10 -14 -22 0 -13 -4 -35 -8 -51 -7 -24 -5 -27 14 -27 16 0 20 -4 16 -15 -4
-13 4 -15 47 -14 28 1 58 6 65 12 21 17 38 -8 21 -30 -13 -16 -12 -17 3 -5 17
14 38 9 38 -9 0 -14 -46 -11 -59 5 -11 13 -29 14 -104 1 -21 -3 -35 2 -52 19
-13 13 -22 25 -20 27 2 2 5 18 8 34 3 17 8 37 12 46 7 19 -20 50 -38 44 -7 -2
-23 -7 -37 -9 -14 -3 -36 -7 -48 -10 -15 -3 -31 2 -44 13 -19 18 -19 21 -3 51
9 17 15 36 13 41 -2 6 -36 -12 -76 -38 -72 -47 -73 -49 -69 -84 l5 -36 -82 -7
c-44 -3 -198 -6 -341 -6 -143 0 -433 -5 -645 -10 -447 -11 -2602 -61 -3905
-90 -495 -11 -988 -22 -1095 -25 -901 -22 -3314 -75 -3407 -75 -40 0 -73 -4
-73 -9 0 -5 80 -7 178 -5 97 2 429 9 737 14 308 6 850 17 1205 25 355 8 830
17 1055 20 401 5 603 9 1975 40 371 9 1172 26 1780 40 608 14 1328 30 1601 36
273 7 503 9 512 6 11 -4 16 -32 21 -114 10 -169 11 -1062 0 -1073 -8 -8 -45
-13 -174 -25 -178 -17 -307 -28 -490 -40 -640 -46 -783 -55 -862 -55 -47 0
-93 -3 -102 -6 -13 -5 -14 -74 -9 -633 l6 -628 -33 -11 c-18 -7 -57 -12 -87
-12 -34 0 -52 -4 -48 -10 3 -5 0 -10 -8 -10 -23 0 -369 -39 -622 -70 -499 -61
-884 -100 -997 -100 -95 0 -88 19 -88 -246 l0 -234 100 0 c76 0 107 4 125 16
14 9 34 14 45 11 24 -6 23 -13 21 141 -2 134 15 199 58 222 20 10 519 58 1291
125 250 21 307 29 318 42 7 10 12 12 12 5 0 -8 16 -12 43 -11 23 1 34 3 25 6
-11 3 -15 10 -11 21 5 14 3 15 -8 5 -14 -14 -39 -17 -39 -5 0 12 43 35 80 43
l35 7 -42 1 c-23 0 -48 4 -57 7 -21 8 -21 33 0 41 9 3 14 13 11 24 -3 11 0 19
6 19 6 0 3 6 -6 13 -14 10 -15 17 -6 48 19 60 -10 120 -33 69 -4 -10 -7 -5 -7
13 -1 16 3 26 9 22 6 -3 10 1 10 10 0 8 -7 18 -15 21 -8 4 -15 15 -15 27 0 11
3 18 6 14 3 -3 14 2 23 11 13 12 15 21 8 30 -8 10 -7 16 2 21 7 5 11 17 9 27
-2 15 -8 10 -22 -19 -17 -37 -36 -46 -21 -10 5 10 7 24 6 32 -1 8 3 17 10 21
8 5 9 15 4 26 -5 11 -10 33 -11 49 -1 17 -3 32 -4 35 -1 3 -2 9 -1 14 1 5 -4
6 -12 3 -7 -3 -14 0 -14 6 0 7 -3 23 -7 37 -5 17 -4 21 2 11 7 -9 11 -10 17
-2 4 7 2 17 -4 24 -5 7 -6 19 -1 26 4 8 5 41 2 73 -4 44 -1 62 9 68 7 5 13 24
12 44 -1 20 3 36 9 36 5 0 6 -5 2 -11 -4 -7 -1 -10 6 -7 31 10 21 28 -17 29
-21 0 -47 4 -58 8 -12 5 39 10 123 13 78 3 146 8 149 12 4 4 10 66 13 139 4
103 9 139 23 160 28 43 56 47 512 72 503 28 640 36 738 43 53 4 97 5 97 1 0
-4 -7 -13 -16 -20 -9 -8 -25 -32 -35 -55 -9 -23 -22 -45 -28 -48 -22 -14 -10
-24 18 -16 27 8 31 5 58 -38 16 -26 75 -104 131 -173 56 -70 102 -131 102
-137 0 -5 14 -36 31 -68 27 -52 30 -66 25 -115 -5 -54 -49 -176 -79 -222 -14
-22 -57 -56 -240 -191 -116 -85 -238 -143 -317 -151 -59 -6 -68 -4 -92 17 -14
13 -47 68 -74 123 -29 60 -66 119 -93 148 -52 56 -110 90 -131 77 -7 -5 -42
-14 -76 -20 -47 -9 -61 -16 -57 -26 3 -8 15 -14 28 -14 12 0 39 -16 59 -36 32
-31 35 -38 24 -52 -11 -13 -10 -15 5 -9 14 5 21 -1 33 -28 17 -42 18 -66 2
-100 -9 -21 -18 -25 -53 -25 -48 0 -99 37 -89 64 7 19 16 20 31 5 21 -21 43
-2 41 35 -3 35 -3 35 -28 19 -14 -8 -33 -24 -43 -36 -16 -18 -21 -19 -57 -8
-34 10 -40 16 -40 38 0 19 -3 24 -10 17 -18 -18 -71 -4 -82 22 -6 13 -14 24
-17 25 -47 6 -51 5 -45 -13 4 -13 1 -19 -8 -17 -33 4 -48 -2 -48 -21 0 -42
117 -94 505 -225 208 -71 239 -79 326 -83 74 -3 102 -1 125 11 17 9 88 65 159
126 77 67 141 115 162 120 19 6 49 21 66 34 18 13 59 38 92 55 33 17 56 31 52
32 -4 0 -25 -9 -47 -20 -22 -11 -41 -20 -43 -20 -3 0 11 29 29 64 37 69 57
120 80 206 25 90 25 96 4 115 -29 26 -25 47 21 98 22 26 37 51 34 57 -7 11 23
150 52 243 10 33 19 47 29 43 7 -3 46 -12 86 -20 166 -35 238 -62 238 -89 0
-19 1 -19 19 -3 23 21 44 97 35 131 -5 20 -12 25 -33 23 -14 -1 -51 6 -81 14
-30 9 -77 22 -105 29 -89 22 -83 28 25 29 127 0 149 5 143 30 -3 12 2 20 14
23 10 3 0 6 -22 7 -22 1 -48 3 -58 5 -40 8 -223 -16 -251 -33 -28 -17 -37 -16
-190 5 -89 13 -180 26 -204 29 l-43 5 20 32 c13 22 17 37 11 47 -5 8 -6 18 -4
22 3 5 0 7 -8 6 -9 -2 -12 8 -10 38 3 35 0 42 -17 47 -11 2 -22 0 -25 -7 -6
-12 2 70 10 116 3 15 9 26 12 25 4 -1 7 3 7 8 0 6 -3 9 -7 7 -15 -4 -8 19 7
24 10 4 15 18 14 43 -1 23 -3 28 -6 13 -3 -13 -9 -19 -15 -16 -6 4 -17 -1 -24
-11 -21 -28 -28 -11 -30 68 -1 40 -4 156 -8 260 l-7 187 69 0 c38 0 110 3 160
6 l92 7 0 162 c0 201 3 206 104 215 66 5 67 5 86 -25 60 -93 94 -138 149 -195
33 -36 61 -69 61 -75 0 -5 9 -23 19 -39 l20 -30 36 79 c19 43 37 76 39 74 128
-143 191 -223 231 -290 26 -46 72 -120 101 -164 90 -138 106 -219 58 -293 -16
-24 -15 -25 12 -48 47 -38 60 -38 122 0 52 31 102 71 102 81 0 2 -21 3 -47 2
-43 -2 -48 0 -47 19 2 29 45 134 56 134 4 0 -1 -23 -12 -52 -12 -33 -16 -54
-9 -58 5 -4 7 -14 3 -23 -5 -14 -1 -16 27 -11 19 4 40 12 48 18 12 9 13 7 8
-9 -6 -16 -3 -15 13 5 39 47 80 109 80 119 0 6 -5 11 -11 11 -6 0 -8 8 -4 19
5 16 0 19 -40 23 -25 2 -50 -1 -55 -6 -6 -6 -14 2 -20 20 -9 23 -8 34 5 56 9
16 14 28 11 28 -3 0 1 19 9 41 19 52 19 49 -5 49 -23 0 -23 0 -10 34 11 29 15
27 -83 31 -27 1 -53 7 -58 12 -18 18 8 25 44 14 18 -6 51 -12 74 -14 32 -1 43
-7 47 -22 3 -11 5 -22 5 -24 0 -2 5 -7 12 -12 10 -6 8 -24 -9 -82 -28 -97 -24
-107 44 -107 53 0 58 -3 53 -36 0 -4 4 -10 10 -13 9 -6 -44 -102 -61 -109 -5
-2 -8 -8 -8 -13 0 -12 41 5 120 51 38 22 77 40 88 40 28 0 131 70 175 119 46
52 113 154 155 237 29 57 38 66 110 108 44 25 121 81 171 125 50 44 102 83
116 87 14 3 76 2 138 -3 61 -6 139 -11 171 -12 33 -1 63 -4 67 -7 4 -2 10 -23
14 -47 4 -23 14 -57 22 -75 17 -35 14 -89 -12 -237 -8 -44 -16 -141 -17 -217
-2 -75 -6 -134 -9 -132 -7 4 -19 -98 -13 -105 2 -2 6 15 10 38 6 37 14 46 37
42 5 -1 7 9 6 21 -2 13 5 37 14 53 9 17 16 26 17 20 1 -15 20 18 20 35 0 13
-1 13 -10 0 -8 -13 -10 -13 -10 2 0 9 4 19 9 23 6 3 6 18 0 38 -13 46 -11 56
9 50 14 -3 22 7 35 44 9 26 17 60 17 75 0 29 19 78 30 78 4 0 10 13 13 29 21
104 179 146 317 85 36 -15 80 -71 80 -100 0 -8 5 -25 11 -37 7 -11 12 -51 11
-89 0 -66 -2 -70 -51 -135 -64 -85 -87 -131 -107 -218 -23 -98 -75 -236 -101
-269 -13 -16 -41 -33 -67 -41 l-44 -13 -54 71 c-30 40 -73 86 -96 102 -22 17
-41 36 -41 43 -1 6 -12 12 -26 12 -17 0 -25 6 -25 18 0 14 -2 15 -10 2 -5 -8
-10 -27 -10 -41 0 -28 -33 -63 -97 -103 -53 -33 -54 -39 -4 -21 34 12 42 11
67 -4 39 -24 94 -88 94 -109 0 -21 -55 -45 -110 -48 -49 -4 -105 -13 -126 -21
-12 -4 -15 -3 -10 5 7 11 -18 17 -53 13 -8 -2 -10 3 -6 11 3 7 0 5 -8 -4 -13
-17 -15 -17 -31 0 -9 10 -16 26 -16 35 0 12 -8 17 -25 17 -23 0 -24 -2 -15
-20 6 -12 8 -30 5 -40 -4 -12 -2 -20 4 -20 6 0 11 -16 11 -37 l0 -36 343 6
c188 4 356 11 372 16 26 8 23 9 -30 11 l-60 1 65 24 c92 34 131 79 164 186 15
49 43 109 66 144 23 33 63 96 90 141 53 87 130 167 153 158 19 -7 35 -39 46
-94 9 -40 27 -300 33 -483 l3 -68 35 3 35 3 6 280 c6 299 12 348 59 500 17 54
30 104 30 113 0 8 -18 -6 -42 -32 -22 -26 -83 -81 -133 -121 -51 -40 -118 -99
-150 -131 -45 -44 -56 -51 -51 -33 36 124 29 245 -23 355 -22 47 -26 64 -16
64 8 0 16 -4 19 -9 3 -5 18 -12 33 -16 15 -3 45 -15 67 -26 22 -10 57 -19 79
-19 35 0 38 2 31 23 -23 74 -65 103 -244 164 -66 23 -77 31 -92 62 -32 68 -33
66 29 69 107 7 137 5 141 -6 2 -7 8 -12 13 -12 4 0 6 6 4 13 -4 9 11 12 54 13
42 1 62 -3 65 -13 3 -7 10 -13 16 -13 6 0 8 5 4 12 -5 7 -3 8 5 3 9 -5 10 -10
2 -18 -7 -7 -14 -7 -23 1 -15 12 -93 10 -105 -2 -5 -5 2 -5 14 -2 12 4 32 2
44 -4 15 -8 19 -9 15 -1 -10 15 10 14 26 -2 7 -8 19 -12 26 -9 6 2 12 -2 12
-8 0 -7 7 -10 15 -6 8 3 15 1 15 -4 0 -6 6 -10 13 -10 12 0 56 -56 90 -114
l18 -31 -5 30 c-16 97 -17 119 -11 155 5 30 12 41 28 45 12 3 110 11 217 19
460 35 601 47 695 62 66 11 219 19 448 25 220 6 356 13 369 20 12 6 60 12 107
12 l86 0 -70 6 -70 6 47 32 c105 73 212 235 257 389 23 78 53 265 72 447 13
122 23 147 60 147 27 0 39 38 39 124 0 57 6 88 28 140 15 38 32 68 37 68 5 0
21 -32 36 -72 14 -39 29 -71 32 -71 19 -1 81 16 180 48 84 27 107 38 107 52 0
25 -79 245 -130 361 -58 133 -136 327 -177 445 -73 207 -121 308 -190 397 -25
31 -42 62 -38 67 3 6 24 11 45 11 49 0 141 34 179 66 47 40 84 215 57 277 -18
45 -47 49 -109 13 -23 -13 -71 -34 -107 -47 -36 -12 -72 -28 -81 -36 -26 -22
-36 -15 -57 45 -12 31 -32 72 -46 90 -20 28 -25 31 -28 15 -3 -11 -8 -2 -12
22 -14 79 -37 158 -61 206 -14 27 -21 49 -15 49 14 0 12 70 -5 191 -34 236
-74 333 -185 447 -22 23 -39 46 -36 51 6 9 -59 103 -117 170 -81 93 -192 186
-254 213 -15 7 -30 15 -33 18 -3 3 -16 11 -30 18 -14 7 -42 22 -62 33 -21 10
-46 21 -55 23 -19 3 -46 14 -103 40 l-35 16 35 -5 c19 -3 28 -2 20 2 -8 3 -32
21 -53 39 -20 19 -43 34 -51 34 -8 0 -34 18 -57 40 -42 39 -43 40 -12 31 17
-5 42 -16 56 -25 14 -10 28 -13 31 -8 8 14 -13 29 -80 56 -33 13 -59 30 -59
37 0 7 -24 25 -52 38 -54 26 -74 48 -27 31 15 -6 41 -8 60 -4 33 6 39 4 136
-49 32 -18 48 -22 52 -14 3 9 5 9 5 0 1 -7 11 -18 24 -24 l22 -12 -20 24 c-24
29 -57 54 -69 54 -6 0 -25 15 -44 33 -19 17 -39 32 -45 32 -6 0 -8 2 -5 5 9
10 131 -68 162 -104 90 -99 136 -127 66 -38 -45 56 -87 94 -135 121 -16 10
-21 15 -10 12 20 -6 20 -6 1 9 -11 8 -26 15 -34 15 -7 0 -10 5 -7 10 3 6 19
10 34 10 51 0 101 61 101 122 0 35 -4 43 -39 86 -57 71 -75 107 -78 162 -1 30
-5 64 -7 75 -2 11 -5 24 -5 29 -1 5 -4 7 -7 3 -7 -7 -43 36 -64 76 -8 16 -27
38 -42 49 -15 10 -33 29 -40 41 -10 20 -10 21 5 8 31 -25 18 -1 -24 44 -22 24
-38 49 -35 54 4 5 1 13 -5 17 -8 5 -9 3 -4 -6 17 -27 -14 1 -36 33 l-23 32 25
-22 c40 -37 57 -30 52 19 -5 51 -23 87 -70 139 -20 22 -28 36 -19 33 13 -5 11
0 -6 19 -14 14 -35 48 -48 74 -13 26 -35 61 -49 77 -14 16 -20 26 -13 22 17
-10 15 9 -3 24 -8 7 -15 18 -15 25 0 7 -10 20 -22 28 -22 16 -22 16 9 7 25 -6
33 -5 37 7 4 9 0 21 -8 27 -7 6 -26 31 -41 54 -14 24 -39 51 -55 60 -16 9 -31
25 -34 34 -2 10 -11 18 -20 18 -9 0 -16 5 -16 12 0 6 -3 8 -6 5 -4 -4 -23 2
-43 13 -20 10 -73 31 -118 46 -46 15 -83 31 -83 35 0 15 19 19 46 9 48 -19 37
-2 -14 21 -28 13 -48 27 -46 31 3 4 1 8 -5 8 -16 0 -22 35 -12 63 8 21 7 25
-5 20 -10 -4 -12 0 -8 10 3 9 1 24 -6 34 -10 16 -10 16 -5 -3 12 -43 -77 -35
-115 11 -7 9 -23 21 -34 27 -19 10 -20 10 -7 -5 7 -10 9 -17 3 -17 -5 0 -15 7
-22 15 -7 8 -16 12 -21 9 -5 -3 -9 0 -9 5 0 6 -7 11 -15 11 -9 0 -34 9 -56 21
-23 11 -38 16 -34 10z m-645 -295 c0 -2 -7 -7 -16 -10 -8 -3 -12 -2 -9 4 6 10
25 14 25 6z m595 -58 c5 -13 16 -23 23 -21 6 3 12 -1 12 -8 0 -8 6 -5 16 7 8
10 12 12 8 4 -7 -13 -6 -13 10 0 30 24 42 20 93 -31 26 -27 53 -49 58 -49 12
0 85 -94 85 -109 0 -6 31 -41 70 -78 67 -66 71 -71 89 -148 11 -44 25 -116 31
-160 19 -134 40 -180 54 -114 5 26 9 29 27 24 18 -6 21 -4 16 9 -5 11 -1 16
13 16 30 0 41 -29 24 -62 -20 -38 -9 -51 33 -45 44 7 63 0 63 -25 0 -15 5 -18
20 -13 23 7 26 -4 8 -24 -11 -11 -10 -12 2 -5 12 7 12 3 -2 -16 -9 -14 -22
-24 -28 -22 -6 1 -9 -2 -5 -8 13 -21 -25 -21 -58 -1 -19 12 -45 21 -58 20 -13
0 -18 -3 -11 -6 8 -3 10 -9 4 -16 -5 -7 -12 -38 -16 -70 -3 -31 -15 -81 -26
-110 -11 -28 -20 -63 -20 -76 0 -23 -1 -23 -13 -7 -12 16 -14 14 -30 -19 -9
-20 -21 -34 -26 -31 -5 3 -12 -1 -15 -10 -3 -8 -10 -12 -16 -9 -6 3 -7 -1 -4
-10 4 -11 2 -14 -9 -9 -8 3 -29 -7 -48 -24 -52 -44 -115 -76 -252 -126 -152
-55 -282 -87 -322 -79 -48 9 -93 50 -124 111 -16 32 -48 75 -71 97 -48 45
-130 153 -130 171 0 6 -10 31 -23 55 -38 75 -43 170 -10 234 18 35 31 44 94
70 67 27 76 35 96 75 12 25 22 57 23 73 0 22 -4 27 -22 26 -32 -1 -78 -17 -55
-18 9 -1 17 -5 17 -10 0 -5 -13 -8 -30 -7 -16 1 -30 -2 -30 -7 0 -4 -4 -5 -10
-2 -15 10 -12 23 8 28 12 3 9 5 -8 6 -35 2 -73 33 -65 53 8 21 36 28 108 28
49 0 57 3 57 19 0 10 -8 29 -19 42 -15 18 -29 23 -64 24 -52 0 -52 -5 -16 109
11 32 19 69 19 82 0 36 65 101 134 133 210 100 210 100 266 97 37 -2 46 -7 55
-28z m729 -137 c4 -5 -3 -7 -14 -4 -23 6 -26 13 -6 13 8 0 17 -4 20 -9z m86
-171 c0 -5 -2 -10 -4 -10 -3 0 -8 5 -11 10 -3 6 -1 10 4 10 6 0 11 -4 11 -10z
m-1725 -90 c-9 -16 -18 -30 -20 -30 -6 0 6 32 18 48 17 22 18 13 2 -18z m1775
-155 c13 -14 21 -25 18 -25 -2 0 -15 11 -28 25 -13 14 -21 25 -18 25 2 0 15
-11 28 -25z m104 -168 l28 -42 -36 37 c-36 36 -43 48 -28 48 4 0 20 -19 36
-43z m-204 -17 c0 -5 -5 -10 -11 -10 -5 0 -7 5 -4 10 3 6 8 10 11 10 2 0 4 -4
4 -10z m-1785 -65 c-9 -20 -19 -35 -22 -31 -3 3 2 22 12 41 22 47 30 39 10
-10z m38 20 c-3 -9 -8 -14 -10 -11 -3 3 -2 9 2 15 9 16 15 13 8 -4z m1728
-195 c12 0 19 -7 19 -20 0 -11 8 -28 18 -38 20 -20 23 -103 4 -110 -7 -2 -12
-15 -12 -28 0 -16 -6 -24 -18 -24 -10 0 -22 -4 -28 -9 -24 -24 -66 52 -54 99
7 30 39 39 56 15 17 -22 26 -3 14 29 -27 73 -100 35 -100 -52 0 -84 60 -149
115 -124 45 21 73 109 56 181 -8 38 0 64 14 42 3 -6 12 -8 20 -4 8 3 15 0 15
-6 0 -7 -7 -14 -15 -17 -8 -4 -15 -12 -15 -20 0 -8 6 -11 15 -8 11 5 15 -1 15
-20 0 -29 -16 -35 -23 -8 -2 9 -4 3 -4 -15 0 -18 6 -34 13 -37 9 -3 10 -15 4
-39 -12 -56 -6 -51 -129 -103 l-44 -18 -15 22 c-8 12 -23 22 -33 22 -15 0 -19
7 -19 33 0 18 -6 41 -13 52 -17 26 -15 134 3 145 7 4 14 19 16 32 1 12 3 26 3
31 1 4 12 7 25 7 13 0 30 7 37 16 12 15 15 14 27 -5 8 -11 23 -21 33 -21z
m363 -55 c5 -22 4 -26 -4 -15 -5 8 -10 24 -10 34 0 26 6 18 14 -19z m60 3 c15
-72 24 -101 25 -80 1 34 18 18 23 -23 4 -39 3 -41 -18 -21 -7 8 -19 16 -25 18
-7 2 -14 28 -15 56 -2 29 -6 57 -9 62 -4 6 -2 10 4 10 6 0 13 -10 15 -22z
m-604 -188 c12 -23 12 -24 -3 -11 -10 7 -17 20 -17 29 0 18 3 16 20 -18z
m-1596 -85 c-4 -8 -8 -15 -10 -15 -2 0 -4 7 -4 15 0 8 4 15 10 15 5 0 7 -7 4
-15z m2295 -68 c1 -14 -2 -15 -12 -5 -11 10 -14 35 -7 58 3 9 19 -34 19 -53z
m-49 -6 c0 -17 -12 -41 -21 -41 -5 0 -9 11 -9 25 0 16 6 25 15 25 8 0 15 -4
15 -9z m-767 -33 c4 -14 0 -29 -10 -40 -9 -10 -11 -18 -5 -18 6 0 14 5 17 10
12 20 27 10 21 -15 -6 -23 -5 -24 19 -13 14 6 27 9 30 6 9 -9 -21 -69 -30 -61
-4 5 -5 2 -1 -4 4 -7 1 -22 -7 -34 -11 -15 -16 -17 -20 -7 -3 8 -9 2 -16 -16
-6 -16 -14 -26 -18 -23 -9 10 -32 -25 -33 -50 0 -13 -4 -23 -10 -23 -5 0 -7
-7 -4 -15 7 -18 -11 -19 -55 -4 -25 9 -40 8 -73 -5 -49 -20 -80 -5 -32 16 32
14 55 38 48 50 -8 12 -33 9 -69 -8 -35 -16 -71 -16 -68 1 1 6 -9 16 -22 22
-36 19 -42 52 -14 74 28 21 68 29 129 25 32 -3 48 1 56 12 9 13 15 14 26 4 12
-10 17 -7 29 16 8 15 16 29 19 32 3 3 18 24 33 48 30 46 52 54 60 20z m807 7
c10 -12 7 -17 -14 -26 -32 -15 -41 -7 -24 20 15 25 21 26 38 6z m-2223 -247
c-3 -8 -6 -5 -6 6 -1 11 2 17 5 13 3 -3 4 -12 1 -19z m2090 -44 c-3 -3 -12 -4
-19 -1 -8 3 -5 6 6 6 11 1 17 -2 13 -5z m-59 -87 c12 1 22 -3 22 -8 0 -5 11
-9 25 -9 14 0 25 -4 25 -9 0 -12 -34 -7 -97 14 -55 18 -74 33 -25 19 15 -4 37
-7 50 -7z m-80 -34 c-16 -2 -40 -2 -55 0 -16 2 -3 4 27 4 30 0 43 -2 28 -4z
m202 -163 c8 0 22 -5 30 -11 11 -8 9 -9 -10 -3 -23 6 -24 6 -10 -12 14 -18 14
-18 -10 -3 -14 9 -46 28 -72 43 -27 15 -48 30 -48 31 0 2 24 -7 53 -20 28 -14
59 -25 67 -25z m240 -95 c63 -29 126 -57 140 -60 14 -4 47 -19 74 -32 26 -13
55 -22 64 -18 9 3 13 3 10 -1 -4 -3 32 -27 80 -51 85 -44 178 -108 204 -141
16 -20 4 -13 -63 35 -26 18 -51 33 -58 33 -6 0 -11 4 -11 9 0 5 -15 13 -32 16
-44 10 -157 63 -308 145 -69 37 -150 78 -180 90 -89 35 -100 41 -65 35 17 -3
82 -30 145 -60z m-2152 -17 c-9 -5 -9 -8 -1 -8 8 0 8 -7 0 -30 -16 -42 -27
-37 -27 10 0 22 5 40 10 40 6 0 10 10 11 23 0 22 0 22 10 -2 7 -18 6 -27 -3
-33z m-53 -42 c8 -40 -3 -86 -15 -66 -4 7 -4 26 0 41 5 17 5 31 -1 34 -12 8
-12 25 1 25 5 0 12 -15 15 -34z m102 -38 c-3 -8 -6 -5 -6 6 -1 11 2 17 5 13 3
-3 4 -12 1 -19z m-237 -8 c0 -5 -2 -10 -4 -10 -3 0 -8 5 -11 10 -3 6 -1 10 4
10 6 0 11 -4 11 -10z m215 -11 c-5 -15 -4 -19 4 -15 14 9 14 3 0 -28 -7 -14
-16 -23 -20 -20 -13 8 -11 58 3 72 17 17 20 15 13 -9z m-55 -100 c-7 -16 -16
-26 -22 -23 -5 3 -6 -5 -2 -20 9 -36 -2 -33 -15 4 -6 18 -6 28 -1 25 6 -4 10
-1 10 5 0 6 5 8 11 4 8 -4 9 1 4 15 -4 13 -1 28 7 38 12 15 13 15 16 -1 2 -10
-2 -31 -8 -47z m67 -246 c-3 -10 -5 -4 -5 12 0 17 2 24 5 18 2 -7 2 -21 0 -30z
m115 -65 c-7 -7 -12 -8 -12 -2 0 14 12 26 19 19 2 -3 -1 -11 -7 -17z m38 7 c0
-8 -4 -15 -10 -15 -5 0 -7 7 -4 15 4 8 8 15 10 15 2 0 4 -7 4 -15z m-169 -18
c-10 -9 -11 -8 -5 6 3 10 9 15 12 12 3 -3 0 -11 -7 -18z m152 -62 c-7 -21 -13
-19 -13 6 0 11 4 18 10 14 5 -3 7 -12 3 -20z m-12 -113 c-5 -10 -18 -25 -27
-33 -16 -12 -17 -12 -9 1 10 18 37 50 42 50 2 0 -1 -8 -6 -18z m2711 -75 c15
-36 34 -90 42 -119 8 -29 18 -62 22 -72 4 -12 -14 -2 -52 28 -32 26 -71 57
-86 69 -16 12 -28 25 -28 29 0 13 53 -12 74 -35 12 -12 32 -31 45 -42 l24 -20
-8 25 c-4 14 -25 62 -46 107 -41 86 -47 107 -27 101 6 -2 24 -34 40 -71z
m-2912 29 c0 -2 -7 -7 -16 -10 -8 -3 -12 -2 -9 4 6 10 25 14 25 6z m-60 -50
c0 -2 -7 -9 -15 -16 -13 -11 -14 -10 -9 4 5 14 24 23 24 12z m281 -37 c-6 -17
-8 -35 -5 -40 3 -5 0 -9 -6 -9 -6 0 -9 -4 -5 -9 3 -5 1 -13 -5 -16 -6 -4 -8
-15 -5 -26 4 -10 2 -27 -4 -36 -8 -15 -10 -16 -14 -3 -15 45 -16 69 -3 79 7 6
16 26 20 43 6 32 25 62 34 54 2 -3 -1 -19 -7 -37z m44 -76 c3 -10 1 -19 -4
-21 -6 -2 -9 -7 -6 -11 2 -4 0 -21 -5 -37 -6 -21 -9 -23 -9 -9 -1 17 -3 17
-11 5 -8 -12 -10 -11 -10 6 0 28 20 84 30 84 4 0 11 -8 15 -17z m17 -98 c-7
-15 -8 -24 -2 -20 5 3 10 -3 10 -14 0 -24 -6 -26 -25 -8 -10 11 -11 21 -2 50
7 23 15 33 21 27 6 -6 5 -19 -2 -35z m184 -123 c-4 -35 -14 -64 -25 -76 -18
-18 -19 -17 -19 55 0 40 4 84 9 98 l10 24 16 -22 c12 -18 14 -36 9 -79z m-229
6 c-3 -8 -6 -5 -6 6 -1 11 2 17 5 13 3 -3 4 -12 1 -19z m69 -94 c-3 -9 -6 -18
-6 -20 0 -2 -7 -4 -15 -4 -18 0 -19 12 -3 28 17 17 31 15 24 -4z m155 -7 c-10
-9 -11 -8 -5 6 3 10 9 15 12 12 3 -3 0 -11 -7 -18z m29 -40 c0 -22 -9 -43 -29
-65 l-30 -32 6 38 c6 39 32 92 45 92 4 0 8 -15 8 -33z m-110 -22 c0 -5 -5 -3
-10 5 -5 8 -10 20 -10 25 0 6 5 3 10 -5 5 -8 10 -19 10 -25z m184 -32 c-10
-21 -21 -40 -24 -43 -3 -3 -11 -21 -17 -40 -6 -19 -11 -27 -12 -17 -1 25 63
175 67 155 2 -10 -5 -34 -14 -55z m54 -22 c-2 -17 -1 -28 4 -25 14 9 31 -104
22 -143 l-7 -28 -13 30 -14 30 4 -37 c5 -40 -13 -64 -39 -54 -9 3 -15 0 -15
-9 0 -8 -9 -24 -20 -35 -26 -26 -25 -45 2 -47 13 -1 27 -8 33 -16 8 -12 13
-12 22 -2 7 7 9 16 6 19 -4 3 4 20 16 37 13 17 18 30 11 27 -7 -2 -20 -17 -29
-34 -10 -19 -22 -28 -33 -26 -10 2 -18 5 -18 7 0 9 57 63 72 68 24 9 32 -22
11 -47 -14 -16 -11 -15 10 3 30 27 36 26 43 -14 5 -30 -12 -85 -27 -85 -5 0
-9 -7 -9 -15 0 -8 -4 -15 -8 -15 -5 0 -28 -18 -51 -39 l-43 -40 39 11 c41 13
133 74 133 89 0 6 4 8 9 4 5 -3 11 5 13 17 3 19 5 20 18 7 8 -9 27 -23 43 -33
24 -16 27 -16 27 -2 0 8 -13 30 -29 48 -36 42 -51 71 -51 99 0 19 2 20 18 8
15 -13 16 -12 4 2 -11 15 -10 64 2 76 7 7 56 -39 56 -54 0 -7 5 -12 11 -10 7
1 32 -24 57 -57 40 -51 44 -61 33 -78 -10 -16 -10 -19 1 -12 7 5 27 9 43 10
17 1 39 5 51 8 18 6 29 -5 81 -81 32 -48 72 -109 86 -135 15 -26 33 -51 41
-55 7 -4 20 -21 29 -38 22 -43 101 -115 126 -115 17 0 21 -6 21 -33 0 -29 -7
-38 -55 -72 -57 -39 -67 -50 -37 -41 49 16 172 -115 266 -284 37 -67 13 -126
-67 -169 -15 -8 -24 -19 -20 -24 3 -6 1 -7 -4 -4 -6 4 -42 -4 -79 -17 -38 -14
-83 -26 -99 -28 -17 -2 -33 -7 -37 -13 -4 -5 -8 3 -8 18 0 16 -5 37 -11 48
-10 19 -11 19 -31 -6 -15 -20 -17 -29 -8 -39 7 -9 7 -16 1 -20 -5 -4 -14 1
-19 11 -9 15 -15 15 -50 5 -38 -11 -60 -29 -98 -77 -14 -18 -15 -18 -10 -1 5
13 2 17 -9 12 -23 -8 -39 29 -23 54 7 11 16 20 21 20 4 0 5 16 1 35 -4 23 -2
35 5 35 7 0 9 10 5 28 -13 53 -23 58 -22 12 0 -72 -6 -95 -40 -141 -18 -23
-32 -46 -32 -51 0 -4 -19 -20 -42 -34 -24 -15 -50 -37 -59 -48 -17 -21 -164
-300 -230 -436 -66 -135 -142 -199 -279 -235 -87 -23 -95 -23 -94 -2 2 22 -3
21 -50 -4 -21 -11 -47 -18 -57 -16 -11 3 -16 0 -13 -7 6 -16 -70 -51 -92 -42
-13 5 -15 14 -10 38 3 17 7 32 9 32 1 1 21 16 44 34 23 17 45 32 48 32 12 0
79 55 105 84 27 33 85 114 113 161 17 28 16 27 -15 -6 -18 -20 -57 -63 -85
-97 -58 -67 -194 -157 -225 -149 -11 3 -16 1 -11 -6 4 -7 0 -8 -12 -3 -15 5
-16 4 -6 -8 16 -19 -2 -30 -27 -17 -16 9 -18 7 -15 -13 4 -18 -3 -26 -36 -40
-56 -26 -75 -16 -67 32 5 29 22 52 82 109 41 40 90 84 108 98 40 31 196 227
196 246 0 8 -12 -2 -27 -21 -85 -110 -220 -223 -269 -225 -11 -1 -26 -5 -34
-10 -10 -6 -12 -4 -7 9 5 12 3 16 -5 13 -7 -2 -12 -10 -10 -16 2 -9 -3 -9 -17
-1 -31 16 -37 12 -12 -11 19 -18 21 -24 9 -35 -7 -7 -24 -15 -38 -16 -22 -3
-25 1 -26 32 -2 46 7 61 81 140 53 56 184 225 210 270 4 8 -10 -5 -32 -30 -60
-67 -148 -93 -215 -65 -25 10 -22 17 19 45 64 43 118 104 201 225 45 65 97
128 116 141 64 44 235 124 287 135 66 14 108 32 190 80 80 46 189 85 301 106
18 3 25 10 21 19 -3 9 3 14 18 15 19 1 20 2 6 6 -10 3 -26 -2 -35 -10 -23 -20
-62 -31 -62 -18 0 6 6 11 13 11 7 0 21 6 31 13 16 12 -6 35 -231 246 -280 263
-385 369 -378 381 3 5 -2 15 -10 23 -18 18 -19 56 -3 92 15 33 23 32 38 -5 14
-35 55 -70 79 -70 10 0 7 5 -9 13 -39 20 -69 72 -65 114 2 28 11 44 36 65 18
15 36 28 40 28 4 0 11 10 15 23 3 12 15 31 26 41 20 19 20 18 14 -80 -4 -56
-3 -105 3 -113 6 -9 7 1 4 30 -3 24 0 55 5 69 l9 24 17 -29 c10 -17 14 -21 11
-10 -4 11 -8 27 -9 35 0 8 -5 18 -9 21 -5 4 -2 19 7 35 l16 29 -5 -30 -6 -30
16 34 c8 18 17 45 20 59 9 52 22 41 18 -15 -2 -39 0 -52 6 -38 5 11 6 24 4 28
-6 10 6 77 14 77 3 0 3 -13 1 -29z m-218 -39 c0 -5 -7 -17 -15 -28 -14 -19
-14 -19 -15 2 0 11 3 24 7 27 9 10 23 9 23 -1z m-75 -84 c-14 -16 -25 -35 -25
-41 0 -7 9 -1 20 13 22 30 34 23 21 -13 -13 -34 -28 -41 -46 -23 -19 19 -19
40 0 56 8 7 15 19 15 27 0 8 5 11 10 8 6 -3 10 -1 10 5 0 6 5 8 10 5 6 -4 0
-18 -15 -37z m3123 20 c21 -18 13 -29 -35 -49 -27 -12 -81 -36 -122 -55 -40
-19 -77 -34 -82 -34 -13 0 -11 48 2 56 6 3 17 21 25 39 12 29 21 35 76 48 64
15 113 13 136 -5z m-3158 -110 c0 -10 4 -17 8 -14 8 5 -13 -92 -22 -101 -7 -7
-36 65 -36 92 0 14 5 35 11 46 8 16 13 18 25 8 8 -6 14 -20 14 -31z m2540
-212 c0 -6 -7 -1 -15 10 -8 10 -14 26 -14 34 0 16 28 -28 29 -44z m-1034 -192
c17 -5 21 -14 23 -61 1 -36 -1 -53 -8 -48 -6 3 -11 24 -11 47 0 38 -2 40 -24
34 -14 -3 -26 -1 -28 5 -2 7 -23 2 -56 -15 -74 -38 -92 -58 -92 -106 0 -37 2
-40 19 -30 27 14 29 13 33 -9 3 -19 4 -19 58 0 30 10 63 29 73 41 19 22 57 35
57 19 0 -11 66 -3 140 19 22 6 36 6 38 1 2 -6 11 -7 19 -4 12 5 15 2 10 -11
-5 -12 -2 -16 10 -14 14 2 19 -10 28 -64 10 -57 9 -68 -2 -68 -8 0 -13 6 -11
13 1 6 -1 33 -5 58 -7 42 -10 46 -31 42 -18 -4 -26 0 -30 15 -6 19 -9 19 -59
6 -29 -7 -62 -19 -75 -26 -17 -9 -25 -9 -34 0 -14 14 -42 16 -34 3 11 -16 -5
-39 -23 -34 -10 2 -46 -5 -81 -17 -43 -14 -66 -18 -68 -11 -2 6 -8 9 -13 5 -5
-3 -9 -1 -9 5 0 6 -7 8 -15 5 -12 -5 -15 4 -15 45 l0 52 -32 -16 -33 -16 25
21 c14 11 35 30 46 40 12 11 28 20 36 20 8 0 39 13 69 30 56 31 69 34 105 24z
m-86 -58 c0 -9 10 -13 30 -12 34 2 40 -9 10 -19 -11 -4 -18 -11 -15 -16 4 -5
-1 -12 -10 -15 -10 -4 -13 -13 -10 -25 4 -13 1 -19 -9 -19 -9 0 -16 6 -16 14
0 18 -22 26 -51 19 -15 -4 -20 -3 -15 5 4 7 13 12 19 12 16 0 47 36 47 55 0 8
5 15 10 15 6 0 10 -6 10 -14z m1542 -70 c7 -13 7 -16 -1 -12 -6 4 -18 22 -27
39 -14 30 -14 31 1 12 9 -11 21 -28 27 -39z m-1292 -51 c0 -18 4 -23 15 -19
10 4 15 0 15 -10 0 -13 4 -15 19 -6 26 13 31 13 31 -5 0 -8 -9 -15 -20 -15
-11 0 -20 -7 -20 -15 0 -8 -4 -15 -10 -15 -5 0 -10 -11 -10 -25 0 -14 -4 -25
-10 -25 -5 0 -10 11 -10 25 0 18 -4 23 -15 19 -8 -4 -15 -1 -15 6 0 8 -9 10
-25 6 -14 -4 -25 -2 -25 3 0 5 11 12 25 15 14 4 23 11 20 16 -3 6 0 10 8 10 9
0 12 9 9 30 -3 18 0 30 7 30 6 0 11 -11 11 -25z m-114 -16 c0 -13 4 -47 8 -76
7 -49 9 -51 31 -43 20 8 24 5 30 -17 5 -20 10 -24 28 -18 12 3 40 11 62 16 22
6 42 15 46 20 3 5 13 7 23 3 12 -4 15 -13 10 -28 -6 -17 -4 -19 7 -9 21 17 34
3 35 -37 0 -19 2 -54 4 -77 4 -38 5 -40 27 -32 16 6 23 5 23 -4 0 -6 4 -18 9
-25 12 -20 100 4 128 34 12 13 27 24 34 24 8 0 8 4 1 13 -5 6 -12 35 -15 62
-3 28 -6 51 -6 53 -1 2 -11 2 -22 0 -15 -2 -23 3 -25 15 -1 11 -4 21 -7 23 -7
7 -122 -19 -128 -29 -11 -16 -39 0 -33 18 4 9 12 14 19 12 6 -3 44 2 84 10 70
14 73 14 90 -6 10 -12 23 -21 30 -21 6 0 11 -6 11 -12 1 -42 14 -125 21 -133
13 -17 -5 -37 -27 -28 -16 6 -17 4 -7 -8 16 -20 3 -37 -28 -37 -15 0 -50 -5
-79 -12 -41 -10 -54 -10 -60 0 -4 6 -10 11 -14 11 -21 -2 -35 16 -40 53 -17
108 -19 116 -42 116 -8 0 -14 5 -14 11 0 11 -18 9 -80 -6 -62 -15 -80 -17 -80
-6 0 6 -3 10 -7 9 -24 -5 -43 19 -53 65 -6 29 -16 64 -22 79 -5 15 -7 32 -3
38 11 18 30 5 31 -21z m264 -99 c-6 -11 -16 -17 -25 -14 -27 11 -13 31 23 33
10 1 10 -4 2 -19z m121 -57 c1 -10 1 -22 0 -27 -1 -5 5 -6 14 -3 9 4 15 1 15
-9 0 -10 5 -12 13 -7 21 13 37 12 37 -3 0 -8 -3 -13 -7 -13 -27 4 -42 -3 -37
-16 4 -8 1 -15 -5 -15 -6 0 -11 -11 -11 -25 0 -14 -4 -25 -10 -25 -5 0 -10 11
-10 25 0 18 -4 23 -15 19 -11 -5 -13 -2 -9 10 5 14 2 15 -20 7 -14 -6 -28 -6
-31 -1 -3 4 8 11 24 15 22 5 28 11 24 22 -4 11 -3 14 6 9 8 -5 10 1 6 23 -3
18 -1 31 5 31 5 0 11 -8 11 -17z m1139 -140 c0 -7 -2 -13 -5 -13 -7 0 -55 73
-55 84 0 15 59 -57 60 -71z m-812 -56 c1 -28 5 -64 8 -79 5 -27 -10 -47 -22
-27 -3 6 0 15 7 20 10 6 11 9 2 9 -9 0 -13 18 -13 56 0 51 -2 55 -20 49 -16
-5 -20 -2 -20 15 0 17 -4 19 -27 14 -16 -3 -41 -13 -57 -20 -32 -16 -50 -7
-40 19 6 18 24 23 24 8 0 -5 26 -1 57 8 55 16 58 16 78 -1 16 -14 22 -32 23
-71z m-76 -7 c5 0 8 -7 4 -15 -4 -13 -2 -14 14 -5 16 9 20 8 20 -5 0 -8 -7
-15 -15 -15 -8 0 -15 -7 -15 -15 0 -8 -4 -15 -10 -15 -5 0 -10 -11 -10 -25 0
-14 -4 -25 -10 -25 -5 0 -10 9 -10 20 0 11 -5 20 -11 20 -5 0 -7 5 -4 10 4 7
-3 8 -22 4 l-28 -7 33 30 c17 16 32 39 32 50 0 28 14 39 18 14 2 -12 8 -21 14
-21z m-106 -50 c-1 -78 0 -81 21 -76 17 5 20 2 16 -14 -3 -11 -2 -20 2 -20 17
0 105 35 105 42 0 13 19 9 38 -8 15 -13 18 -28 15 -89 -2 -62 0 -73 12 -69 10
4 15 0 15 -12 0 -16 2 -17 10 -4 5 8 10 10 10 4 0 -5 -6 -18 -12 -27 -25 -32
-42 -3 -50 80 -4 43 -8 83 -9 89 -3 14 -32 10 -93 -14 l-49 -19 -24 23 c-19
19 -23 33 -23 87 0 34 -5 68 -11 74 -13 13 -4 33 15 33 10 0 13 -20 12 -80z
m298 -19 c4 -5 1 -22 -5 -38 -12 -28 -12 -28 -18 -5 l-6 24 -27 -21 c-14 -12
-31 -21 -37 -21 -18 0 -12 30 7 36 9 3 28 11 42 19 31 16 37 17 44 6z m-35
-128 c-5 -13 -9 -36 -9 -49 0 -31 -20 -22 -21 9 0 12 -3 16 -6 9 -2 -6 -9 -10
-14 -6 -5 3 0 17 11 31 11 14 20 36 20 48 0 12 3 25 7 29 13 12 22 -44 12 -71z
m-3495 32 c3 -8 12 -15 21 -15 8 0 15 -5 15 -10 0 -7 6 -7 19 0 12 6 22 6 26
1 3 -5 -4 -12 -14 -16 -12 -4 -18 -12 -14 -21 3 -7 0 -14 -6 -14 -8 0 -9 -5
-1 -19 15 -30 12 -38 -6 -13 -8 12 -19 20 -24 17 -4 -3 -10 0 -12 6 -3 9 -9 9
-25 0 -13 -6 -24 -7 -28 -2 -3 5 3 12 13 15 13 4 19 16 19 36 0 17 -4 30 -9
30 -4 0 -8 5 -8 10 0 16 27 12 34 -5z m306 -65 c0 -5 6 -7 14 -4 8 3 16 -3 19
-15 3 -12 -1 -22 -11 -26 -14 -5 -31 9 -32 27 0 9 -48 -5 -88 -26 -38 -20 -42
-20 -42 0 0 9 6 14 12 12 7 -3 35 6 63 18 57 26 65 28 65 14z m63 -53 c-4 -6
-10 -2 -14 9 -12 31 -9 40 6 20 8 -10 11 -24 8 -29z m-233 -7 c0 -5 -2 -10 -4
-10 -3 0 -8 5 -11 10 -3 6 -1 10 4 10 6 0 11 -4 11 -10z m-130 -10 c0 -5 -2
-10 -4 -10 -3 0 -8 5 -11 10 -3 6 -1 10 4 10 6 0 11 -4 11 -10z m1850 -41 c0
-24 -16 -33 -24 -13 -9 24 -7 31 9 31 8 0 15 -8 15 -18z m210 17 c0 -3 -4 -8
-10 -11 -5 -3 -10 -1 -10 4 0 6 5 11 10 11 6 0 10 -2 10 -4z m-28 -40 c7 4 8
2 4 -4 -4 -6 -13 -9 -21 -6 -8 4 -12 11 -8 17 5 8 8 7 11 -1 2 -7 9 -9 14 -6z
m-102 -16 c0 -5 -4 -10 -10 -10 -5 0 -10 5 -10 10 0 6 5 10 10 10 6 0 10 -4
10 -10z m50 6 c0 -3 -4 -8 -10 -11 -5 -3 -10 -1 -10 4 0 6 5 11 10 11 6 0 10
-2 10 -4z m-13 -32 c-3 -3 -12 -4 -19 -1 -8 3 -5 6 6 6 11 1 17 -2 13 -5z
m-3012 -1313 c-6 -19 17 -36 43 -32 6 1 12 -3 12 -9 0 -5 -7 -10 -15 -10 -16
0 -65 -46 -65 -60 0 -6 -7 -10 -15 -10 -13 0 -14 4 -4 21 8 15 8 19 0 15 -6
-4 -11 -2 -11 5 0 6 -8 9 -20 6 -13 -3 -20 0 -20 9 0 8 9 14 21 14 24 0 49 22
49 43 0 16 9 27 22 27 5 0 7 -8 3 -19z m185 -182 c0 -26 36 -60 56 -52 8 3 14
-1 14 -11 0 -13 -7 -15 -32 -11 -21 3 -28 2 -19 -4 14 -9 -2 -27 -17 -17 -4 3
-8 -7 -8 -21 1 -15 -5 -28 -11 -30 -8 -3 -13 5 -13 21 0 14 -5 26 -11 26 -6 0
-9 7 -5 15 4 12 -1 14 -24 10 -22 -4 -30 -1 -30 10 0 9 9 15 25 15 14 0 25 5
25 10 0 6 7 10 15 10 9 0 15 9 15 25 0 14 5 25 10 25 6 0 10 -10 10 -21z
m-230 -15 c0 -8 -5 -12 -10 -9 -6 4 -8 11 -5 16 9 14 15 11 15 -7z m114 -20
c-1 -10 -4 -34 -7 -51 -5 -32 0 -38 30 -34 6 1 13 -9 15 -21 2 -19 10 -23 43
-26 22 -1 45 -3 50 -4 6 -1 19 2 31 6 29 9 51 -16 29 -34 -11 -9 -19 -9 -28
-2 -7 6 -44 12 -82 14 -50 2 -69 7 -67 16 1 6 -3 12 -9 12 -29 0 -40 29 -33
90 4 38 11 59 18 57 6 -2 10 -12 10 -23z m-54 -29 c0 -8 -4 -15 -10 -15 -5 0
-10 7 -10 15 0 8 5 15 10 15 6 0 10 -7 10 -15z m360 -120 c8 -2 21 -4 28 -4 7
-1 11 -5 8 -10 -4 -5 -20 -7 -37 -4 -17 2 -36 0 -43 -6 -10 -8 -17 -7 -26 3
-18 22 -2 39 29 31 14 -4 33 -9 41 -10z m76 -12 c-3 -16 -9 -57 -12 -93 -7
-73 -15 -88 -34 -65 -8 10 -9 19 -2 28 5 6 13 32 17 57 4 25 8 54 10 65 2 11
4 23 4 28 1 4 6 7 12 7 7 0 9 -10 5 -27z m-156 -13 c0 -20 -2 -25 -9 -23 -4 1
-5 -15 -3 -35 3 -24 1 -34 -6 -27 -11 12 -23 81 -15 89 10 10 33 7 33 -4z
m100 -30 c0 -9 -8 -12 -27 -9 -3 0 -10 -6 -15 -15 -5 -9 -15 -13 -21 -10 -9 5
-9 3 0 -6 13 -14 1 -40 -18 -40 -18 0 -8 42 16 65 24 25 65 34 65 15z m-134
-90 c6 -6 20 -13 32 -15 12 -3 32 -7 44 -10 12 -2 27 0 34 6 9 7 14 4 19 -11
9 -28 -9 -48 -28 -32 -8 7 -17 9 -20 5 -4 -3 -7 -2 -7 4 0 11 -7 12 -60 15
-35 2 -50 12 -50 36 0 15 22 16 36 2z m164 -96 c0 -8 -4 -14 -9 -14 -5 0 -11
-19 -15 -42 -4 -24 -9 -53 -13 -65 -4 -17 -1 -23 10 -23 10 0 17 -11 19 -27 3
-27 5 -28 61 -28 47 0 57 -2 57 -17 0 -9 5 -20 10 -23 17 -11 11 -25 -11 -25
-14 0 -19 5 -16 14 7 17 -13 26 -56 26 -52 0 -76 10 -70 28 5 11 3 13 -7 7
-10 -6 -12 -4 -7 8 3 9 1 17 -5 19 -7 3 -7 21 2 61 6 31 12 67 14 80 1 12 6
28 10 35 9 15 26 6 26 -14z m82 -39 c-2 -15 0 -25 7 -25 7 0 9 -4 6 -10 -3 -5
3 -10 14 -10 12 0 21 -4 21 -10 0 -5 -9 -10 -21 -10 -24 0 -44 -17 -53 -48
-12 -36 -24 -25 -21 18 2 36 0 40 -21 40 -13 0 -24 5 -24 11 0 7 10 9 25 7 17
-4 25 -1 25 8 0 8 4 14 10 14 5 0 12 11 16 25 8 32 23 23 16 -10z m1465 -142
c-3 -10 -5 -2 -5 17 0 19 2 27 5 18 2 -10 2 -26 0 -35z m20 -15 c-3 -7 -5 -2
-5 12 0 14 2 19 5 13 2 -7 2 -19 0 -25z m-1371 -74 c-8 -21 3 -56 15 -49 5 4
9 1 9 -4 0 -6 -8 -11 -17 -11 -9 0 -32 -14 -50 -32 l-33 -32 9 32 c9 28 7 32
-10 32 -11 0 -17 5 -14 10 3 6 15 10 26 10 10 0 19 5 19 11 0 5 4 8 9 5 4 -3
13 6 19 19 13 28 28 35 18 9z m-1462 -446 c-5 -8 -2 -9 11 -4 15 5 16 4 5 -9
-10 -12 -15 -13 -21 -3 -7 12 -3 28 7 28 3 0 2 -5 -2 -12z m214 -238 c35 -6
81 -18 103 -26 42 -17 49 -39 30 -100 -5 -16 -12 -40 -15 -54 -13 -56 -22 -57
-68 -5 -64 72 -148 179 -148 188 0 10 23 9 98 -3z m-1035 -747 c-7 -2 -19 -2
-25 0 -7 3 -2 5 12 5 14 0 19 -2 13 -5z m-8 -173 c-3 -5 -14 -10 -23 -10 -15
0 -15 2 -2 10 20 13 33 13 25 0z m135 -122 c0 -6 -7 -5 -15 2 -8 7 -15 17 -15
22 0 6 7 5 15 -2 8 -7 15 -17 15 -22z"/>
<path d="M12721 9674 c0 -11 3 -14 6 -6 3 7 2 16 -1 19 -3 4 -6 -2 -5 -13z"/>
<path d="M12547 9409 c-21 -5 -51 -16 -67 -24 -29 -15 -48 -54 -35 -74 7 -13
37 -14 51 -3 5 5 41 22 79 38 60 25 82 29 154 27 90 -1 93 5 17 31 -53 17
-138 19 -199 5z"/>
<path d="M12638 9250 c33 -14 27 -30 -13 -30 -34 0 -47 13 -22 23 7 3 5 6 -5
6 -13 1 -18 -7 -18 -26 0 -14 -3 -24 -6 -20 -9 9 -65 -53 -59 -64 4 -5 15 -9
26 -9 21 0 27 -20 7 -21 -7 0 -4 -4 7 -9 31 -13 37 -12 30 10 -5 16 -2 20 17
21 29 2 39 4 58 11 8 4 31 11 51 18 20 6 44 19 53 29 15 17 15 19 1 25 -9 3
-14 10 -11 15 6 10 -43 25 -52 16 -3 -3 2 -5 11 -5 29 0 18 -16 -12 -18 -19
-1 -31 3 -35 14 -4 12 -2 15 9 10 8 -3 15 -1 15 4 0 6 -17 10 -37 9 -33 0 -35
-1 -15 -9z m-21 -86 c-2 -3 -15 -7 -28 -9 -23 -4 -23 -4 -5 10 16 12 45 11 33
-1z"/>
<path d="M12650 9113 c-19 -3 -39 -9 -45 -15 -7 -7 2 -8 30 -3 34 6 88 27 60
23 -5 -1 -26 -3 -45 -5z"/>
<path d="M12360 8885 c-7 -9 -10 -18 -7 -21 9 -10 71 5 93 21 18 13 15 14 -27
15 -30 0 -51 -5 -59 -15z"/>
<path d="M12401 8755 c-18 -8 -44 -15 -57 -15 -28 0 -90 -52 -100 -83 -4 -12
-12 -26 -18 -30 -8 -6 -8 -10 1 -13 6 -3 30 -30 53 -60 42 -54 43 -54 96 -54
79 0 187 57 288 151 42 39 73 76 69 80 -15 15 -154 39 -226 39 -40 -1 -87 -7
-106 -15z m243 -49 c5 -20 6 -20 19 -2 10 14 16 16 21 7 9 -14 -12 -43 -24
-36 -5 3 -12 0 -15 -6 -4 -5 -14 -8 -22 -5 -9 4 -21 2 -27 -3 -6 -5 -22 -9
-36 -9 -28 0 -185 -40 -214 -54 -22 -12 -38 6 -34 37 2 14 16 24 48 34 25 7
53 18 64 23 27 14 135 36 178 36 29 0 37 -5 42 -22z"/>
<path d="M12177 8693 c-14 -13 -7 -71 11 -90 9 -10 13 -13 8 -6 -4 7 -6 33 -4
58 3 43 -1 53 -15 38z"/>
<path d="M13340 8571 c0 -6 4 -13 10 -16 6 -3 7 1 4 9 -7 18 -14 21 -14 7z"/>
<path d="M13465 8501 c-3 -5 -1 -12 5 -16 5 -3 10 1 10 9 0 18 -6 21 -15 7z"/>
<path d="M13066 8163 c-6 -14 -5 -15 5 -6 7 7 10 15 7 18 -3 3 -9 -2 -12 -12z"/>
<path d="M12988 8163 c7 -3 16 -2 19 1 4 3 -2 6 -13 5 -11 0 -14 -3 -6 -6z"/>
<path d="M12906 5255 c-8 -8 -19 -15 -25 -15 -5 0 -13 -5 -17 -11 -4 -8 1 -9
17 -4 13 4 26 12 27 16 2 5 13 9 23 9 11 0 17 5 14 10 -9 14 -21 12 -39 -5z"/>
<path d="M12895 5190 c-13 -6 -15 -9 -5 -9 8 0 22 4 30 9 18 12 2 12 -25 0z"/>
<path d="M12851 5084 c0 -11 3 -14 6 -6 3 7 2 16 -1 19 -3 4 -6 -2 -5 -13z"/>
<path d="M12371 4285 c-17 -20 -43 -59 -57 -87 -14 -28 -47 -74 -72 -102 -26
-28 -38 -44 -27 -36 54 38 90 81 122 145 19 39 44 80 56 93 11 12 18 22 15 22
-3 0 -20 -16 -37 -35z"/>
<path d="M12838 10033 c6 -2 18 -2 25 0 6 3 1 5 -13 5 -14 0 -19 -2 -12 -5z"/>
<path d="M12888 10033 c6 -2 18 -2 25 0 6 3 1 5 -13 5 -14 0 -19 -2 -12 -5z"/>
<path d="M12274 10010 c-12 -5 -25 -14 -29 -20 -4 -7 7 -4 24 4 17 9 31 19 31
21 0 6 1 6 -26 -5z"/>
<path d="M13090 9857 c14 -8 27 -12 30 -10 7 6 -23 23 -40 23 -8 0 -4 -6 10
-13z"/>
<path d="M17146 9556 c-8 -42 2 -108 15 -100 5 3 12 -2 15 -10 3 -9 14 -16 24
-16 11 0 21 -4 24 -9 9 -13 93 -23 137 -16 38 7 39 8 39 48 0 23 -4 48 -8 55
-5 6 -57 24 -118 39 -60 15 -112 31 -115 36 -4 5 -9 -7 -13 -27z"/>
<path d="M11676 9216 c-9 -14 -16 -31 -16 -38 0 -7 10 2 21 20 12 18 19 35 17
38 -3 2 -13 -7 -22 -20z"/>
<path d="M11540 8970 c0 -19 11 -26 23 -14 8 8 -3 34 -14 34 -5 0 -9 -9 -9
-20z"/>
<path d="M16271 8884 c1 -66 15 -180 18 -149 2 19 3 18 11 -3 16 -39 49 -46
150 -32 l90 13 0 81 c0 45 -4 86 -8 91 -4 6 -55 19 -114 29 -58 9 -116 20
-127 23 -20 5 -21 1 -20 -53z"/>
<path d="M11502 8610 c0 -14 2 -19 5 -12 2 6 2 18 0 25 -3 6 -5 1 -5 -13z"/>
<path d="M11402 8290 c-18 -29 -15 -48 4 -22 8 12 14 27 12 32 -2 6 -9 1 -16
-10z"/>
<path d="M15350 8127 c0 -42 3 -57 10 -47 8 12 10 12 16 -3 8 -21 72 -50 96
-44 9 3 25 -4 34 -14 9 -10 23 -19 31 -19 16 0 55 -21 65 -35 4 -5 8 34 8 88
l0 97 -29 0 c-17 0 -58 6 -93 14 -35 8 -80 16 -100 19 l-38 6 0 -62z"/>
<path d="M11485 8029 c-4 -6 -4 -30 0 -54 6 -42 7 -43 24 -27 9 9 15 26 13 36
-4 14 -2 17 8 11 9 -5 11 -4 6 4 -4 6 -12 9 -17 6 -5 -4 -9 3 -9 14 0 22 -14
28 -25 10z"/>
<path d="M11395 7996 c10 -14 19 -26 22 -26 7 0 -17 39 -28 46 -6 3 -3 -5 6
-20z"/>
<path d="M11439 7993 c8 -15 8 -24 1 -28 -6 -4 -8 -16 -4 -27 7 -22 12 -47 13
-62 2 -22 19 11 24 46 4 29 3 36 -9 31 -9 -3 -12 0 -9 9 3 7 -2 22 -10 33 -16
19 -16 19 -6 -2z"/>
<path d="M11560 7952 c0 -4 8 -19 17 -32 15 -21 15 -23 1 -12 -9 7 -18 9 -20
5 -3 -4 -4 -3 -2 3 1 6 -2 17 -7 25 -9 15 -9 16 -12 -41 -2 -18 -10 -26 -34
-34 -38 -10 -45 -29 -8 -22 13 3 27 0 30 -5 4 -5 14 -9 23 -9 15 0 15 2 2 10
-12 8 -11 10 7 10 16 0 21 -4 17 -15 -4 -10 0 -15 11 -15 15 0 17 6 12 35 -4
23 -2 33 4 29 6 -3 1 12 -10 35 -20 39 -31 51 -31 33z"/>
<path d="M13990 7929 c0 -5 5 -7 10 -4 6 3 10 8 10 11 0 2 -4 4 -10 4 -5 0
-10 -5 -10 -11z"/>
<path d="M14076 7905 c4 -8 8 -15 10 -15 2 0 4 7 4 15 0 8 -4 15 -10 15 -5 0
-7 -7 -4 -15z"/>
<path d="M11606 7825 c-4 -14 -14 -25 -24 -25 -15 0 -15 -2 -2 -10 24 -15 40
-12 40 9 0 11 5 21 11 23 7 2 6 8 -4 16 -12 10 -16 8 -21 -13z"/>
<path d="M11364 7826 c-10 -8 -16 -18 -11 -22 4 -4 7 -2 7 4 0 7 12 12 26 12
14 0 23 4 19 10 -8 14 -18 13 -41 -4z"/>
<path d="M11631 7771 c-7 -5 -22 -6 -32 -4 -20 6 -24 -4 -11 -24 6 -9 16 -6
37 12 30 24 33 33 6 16z"/>
<path d="M11565 7720 c-3 -5 -1 -10 4 -10 6 0 11 5 11 10 0 6 -2 10 -4 10 -3
0 -8 -4 -11 -10z"/>
<path d="M11571 7524 c0 -11 3 -14 6 -6 3 7 2 16 -1 19 -3 4 -6 -2 -5 -13z"/>
<path d="M11530 7505 c0 -5 9 -23 20 -40 26 -39 26 -25 0 17 -11 18 -20 29
-20 23z"/>
<path d="M11732 7038 c-10 -13 -29 -67 -20 -58 7 7 37 70 33 70 -1 0 -7 -6
-13 -12z"/>
<path d="M11801 6941 c-8 -5 -9 -11 -3 -15 5 -3 12 1 16 9 6 17 6 18 -13 6z"/>
<path d="M11744 6866 c-3 -13 -4 -38 -1 -57 3 -27 4 -25 5 14 1 29 6 46 12 42
6 -3 7 1 4 9 -8 22 -13 20 -20 -8z"/>
<path d="M11881 6637 c-1 -10 -5 -15 -11 -12 -6 4 -7 -1 -3 -11 6 -15 7 -15
15 0 5 9 7 22 4 29 -2 7 -5 4 -5 -6z"/>
<path d="M11901 6564 c0 -11 3 -14 6 -6 3 7 2 16 -1 19 -3 4 -6 -2 -5 -13z"/>
<path d="M11986 6337 c-26 -34 -47 -87 -45 -117 0 -8 10 12 23 45 15 40 27 59
37 57 7 -2 11 0 7 4 -4 4 -3 13 4 21 6 7 8 16 5 19 -3 3 -17 -10 -31 -29z"/>
<path d="M11972 6144 c10 -10 20 -16 22 -13 3 3 -5 11 -17 18 -21 13 -21 12
-5 -5z"/>
<path d="M9810 3526 c-19 -6 -41 -15 -48 -20 -8 -5 -18 -4 -25 3 -6 6 -16 11
-21 11 -6 0 -3 -5 6 -11 16 -9 15 -12 -7 -46 -29 -41 -31 -55 -10 -47 10 4 15
0 15 -11 0 -14 7 -16 47 -10 25 3 54 10 65 16 17 9 22 5 19 -13 -1 -10 13 -10
22 -1 4 3 2 13 -5 20 -8 10 -8 17 -1 21 8 6 33 65 33 78 0 2 -7 4 -15 4 -8 0
-15 5 -15 10 0 12 -14 11 -60 -4z m18 -18 c-2 -7 7 -14 20 -16 38 -6 25 -26
-14 -21 -8 1 -44 -42 -44 -53 0 -17 -18 -7 -23 13 -4 16 -10 19 -27 14 -16 -5
-21 -3 -18 6 3 8 13 16 23 18 10 1 30 14 44 27 28 26 42 31 39 12z"/>
<path d="M14994 3333 c10 -11 56 -11 50 -1 -3 4 -17 8 -31 8 -15 0 -23 -3 -19
-7z"/>
<path d="M14923 3323 c9 -2 23 -2 30 0 6 3 -1 5 -18 5 -16 0 -22 -2 -12 -5z"/>
<path d="M12627 3129 c7 -7 15 -10 18 -7 3 3 -2 9 -12 12 -14 6 -15 5 -6 -5z"/>
<path d="M9090 2849 c0 -5 5 -7 10 -4 6 3 10 8 10 11 0 2 -4 4 -10 4 -5 0 -10
-5 -10 -11z"/>
<path d="M11987 2316 c-4 -10 -5 -21 -2 -24 9 -9 17 6 13 25 -3 17 -4 17 -11
-1z"/>
<path d="M9141 2254 c0 -11 3 -14 6 -6 3 7 2 16 -1 19 -3 4 -6 -2 -5 -13z"/>
<path d="M9195 2200 c3 -5 8 -10 11 -10 2 0 4 5 4 10 0 6 -5 10 -11 10 -5 0
-7 -4 -4 -10z"/>
<path d="M11606 2112 c-6 -11 14 -16 97 -28 28 -4 47 -2 47 4 0 5 -20 12 -45
15 -25 4 -56 9 -69 13 -13 3 -27 1 -30 -4z"/>
<path d="M9513 1459 c-6 -6 -9 -18 -5 -27 4 -11 1 -14 -11 -9 -10 4 -21 -2
-30 -17 -14 -21 -14 -26 2 -49 21 -33 70 -75 96 -83 14 -5 27 3 52 32 18 22
33 45 33 52 0 17 -97 112 -114 112 -6 0 -17 -5 -23 -11z"/>
<path d="M9622 1286 l-41 -43 43 -42 c41 -40 69 -51 81 -31 4 6 10 8 15 5 9
-6 20 29 20 66 0 22 -54 89 -71 89 -3 0 -24 -20 -47 -44z"/>
<path d="M8030 1120 c0 -19 63 -70 86 -70 33 0 30 16 -4 23 -15 3 -40 17 -55
31 -15 14 -27 21 -27 16z"/>
<path d="M9740 1099 c-70 -25 -96 -32 -200 -60 -47 -13 -77 -25 -67 -27 13 -3
16 -10 11 -30 -13 -56 -61 -164 -160 -364 -57 -114 -99 -210 -95 -212 4 -3 20
-10 34 -15 25 -10 28 -7 65 57 21 37 63 112 92 167 109 206 191 320 320 442
36 34 63 62 60 62 -3 -1 -30 -10 -60 -20z"/>
<path d="M8060 1020 c0 -5 12 -10 28 -9 24 0 25 1 7 9 -27 12 -35 12 -35 0z"/>
<path d="M8167 973 c-12 -11 32 -35 53 -28 26 8 26 25 0 18 -11 -3 -26 0 -33
6 -8 6 -17 8 -20 4z"/>
<path d="M7713 613 c9 -2 25 -2 35 0 9 3 1 5 -18 5 -19 0 -27 -2 -17 -5z"/>
</g>
</svg>
