<?xml version="1.0" standalone="no"?>
<!DOCTYPE svg PUBLIC "-//W3C//DTD SVG 20010904//EN"
 "http://www.w3.org/TR/2001/REC-SVG-20010904/DTD/svg10.dtd">
<svg version="1.0" xmlns="http://www.w3.org/2000/svg"
 width="1920.000000pt" height="1281.000000pt" viewBox="0 0 1920.000000 1281.000000"
 preserveAspectRatio="xMidYMid meet">

<g transform="translate(0.000000,1281.000000) scale(0.100000,-0.100000)"
fill="#000000" stroke="none">
<path d="M1520 12801 c0 -6 37 -40 83 -77 82 -67 187 -124 228 -124 18 0 20 4
15 26 -11 44 -65 117 -112 152 -42 30 -49 32 -129 32 -47 0 -85 -4 -85 -9z"/>
<path d="M2894 12795 c-29 -74 85 -119 237 -96 76 12 119 38 119 71 0 36 -20
40 -187 40 -136 0 -165 -3 -169 -15z"/>
<path d="M12350 12795 c16 -19 41 -19 66 0 18 13 15 14 -30 15 -42 0 -47 -2
-36 -15z"/>
<path d="M13146 12795 c4 -9 19 -15 40 -15 24 0 34 5 34 15 0 11 -11 15 -40
15 -31 0 -38 -3 -34 -15z"/>
<path d="M13458 12783 c-1 -16 -2 -46 -2 -68 -1 -37 -3 -40 -31 -43 -54 -4
-145 -25 -145 -32 0 -4 -8 -10 -17 -14 -10 -3 -25 -9 -33 -14 -66 -38 -90 -44
-190 -48 -58 -3 -116 -9 -130 -14 -14 -5 -61 -12 -105 -16 -44 -4 -91 -8 -105
-10 -33 -4 -326 -13 -460 -15 -143 -1 -327 -19 -402 -39 -20 -6 -99 -8 -175
-6 -102 4 -144 1 -162 -8 -23 -13 -23 -14 -5 -19 10 -3 82 -5 159 -5 77 1 188
-4 248 -10 59 -7 155 -17 215 -24 59 -7 132 -12 162 -13 30 -1 154 -5 275 -10
163 -5 243 -4 310 5 121 17 137 17 475 -10 63 -6 145 -10 182 -10 37 0 70 -4
73 -10 3 -5 22 -10 41 -10 19 0 51 -7 71 -15 19 -8 64 -15 99 -15 43 0 75 -6
101 -20 21 -10 67 -22 103 -26 36 -4 67 -10 70 -14 12 -17 65 -26 225 -36 61
-4 117 -10 125 -15 14 -6 169 3 257 15 19 3 38 0 46 -8 19 -19 85 -39 113 -33
29 5 87 -44 78 -67 -3 -7 -40 -17 -94 -24 -117 -16 -166 -32 -162 -55 2 -10
-3 -17 -13 -17 -8 0 -15 -4 -15 -8 0 -17 -100 -31 -255 -37 -243 -8 -1048 -21
-1815 -29 -239 -3 -498 -8 -575 -11 -77 -3 -349 -10 -605 -15 -416 -9 -502
-15 -473 -33 5 -3 168 -8 363 -12 195 -3 456 -8 580 -11 124 -2 387 -6 585 -9
374 -4 542 -8 1005 -26 241 -9 281 -13 320 -31 45 -20 45 -20 20 -31 -14 -6
-28 -15 -31 -19 -3 -5 -39 -11 -80 -14 -41 -3 -87 -12 -103 -20 -16 -7 -36
-15 -45 -15 -9 -1 15 -5 52 -9 38 -4 72 -12 76 -19 4 -7 12 -11 17 -10 16 4
84 -13 84 -21 0 -20 -107 -32 -355 -41 -154 -5 -285 -14 -305 -21 -21 -7 -82
-11 -152 -9 -80 1 -118 -2 -123 -10 -13 -20 18 -29 110 -29 50 0 108 -5 130
-11 66 -16 226 -38 285 -39 86 -1 92 -11 37 -64 -26 -25 -51 -46 -57 -46 -5 0
-7 -6 -4 -14 3 -9 -5 -17 -22 -23 l-27 -9 28 -18 c36 -24 133 -14 169 17 13
12 40 36 60 53 28 25 48 33 96 38 33 4 64 5 68 2 5 -3 33 2 63 10 44 12 70 12
140 3 62 -7 135 -7 257 0 170 11 202 16 202 31 0 11 180 -2 212 -15 16 -6 16
-9 2 -30 -27 -41 -14 -67 53 -110 68 -44 93 -84 67 -106 -13 -11 -13 -14 2
-22 14 -8 4 -13 -49 -27 -37 -10 -73 -22 -80 -27 -24 -19 -170 -14 -287 8
-109 21 -146 24 -250 22 -25 0 -142 1 -260 4 -131 2 -231 0 -257 -6 -31 -8
-61 -7 -122 4 -45 9 -87 13 -93 9 -13 -8 -307 -26 -398 -24 -30 0 -97 -4 -149
-10 -52 -6 -224 -10 -384 -10 -255 0 -288 -2 -277 -15 10 -12 9 -15 -5 -15
-12 0 -15 -5 -11 -16 3 -9 6 -18 6 -20 0 -2 16 -4 35 -4 19 0 35 4 35 8 0 5 6
9 13 10 6 0 34 6 61 13 38 9 66 9 115 0 143 -24 226 -31 471 -39 140 -5 269
-9 285 -9 17 1 84 -7 150 -16 66 -10 158 -22 205 -28 103 -13 113 -16 105 -29
-3 -5 -29 -10 -56 -10 -28 0 -59 -5 -69 -10 -23 -12 -397 -19 -408 -8 -5 5
-35 4 -68 -2 -32 -6 -94 -15 -136 -21 -72 -11 -76 -13 -69 -33 6 -15 17 -21
42 -22 19 -1 76 -5 127 -9 57 -5 92 -4 92 2 0 5 7 10 15 10 8 0 15 -4 15 -9 0
-13 134 -10 148 4 7 7 12 8 12 2 0 -17 480 -31 843 -25 85 1 117 -1 117 -9 0
-7 1 -7 80 -14 137 -12 186 -19 198 -29 7 -5 44 -12 83 -14 39 -2 80 -8 92
-15 14 -7 22 -7 24 -1 3 7 17 6 41 -3 20 -7 56 -13 79 -14 23 0 44 -4 47 -9 3
-5 26 -14 52 -20 25 -6 55 -22 67 -35 12 -13 42 -30 67 -37 25 -7 53 -20 62
-29 9 -8 45 -23 80 -34 35 -10 80 -32 100 -47 20 -16 43 -29 50 -29 7 0 26 -7
43 -16 18 -9 31 -11 33 -5 2 5 10 7 18 4 13 -5 13 -7 2 -14 -11 -7 -11 -9 0
-9 7 0 29 -12 48 -26 19 -15 34 -21 34 -15 0 6 7 11 15 11 8 0 15 -4 15 -9 0
-5 10 -13 22 -17 12 -3 28 -12 35 -20 11 -10 9 -13 -9 -17 -21 -4 -21 -4 3 -6
14 0 34 -8 45 -16 10 -8 36 -15 56 -15 20 0 40 -4 43 -10 3 -5 14 -10 23 -10
9 0 30 -7 45 -15 25 -13 71 -25 116 -30 16 -1 25 -4 91 -30 19 -8 46 -16 60
-18 20 -4 19 -5 -7 -6 -62 -2 -31 -31 55 -51 28 -7 32 -6 32 14 0 15 6 9 22
-22 12 -23 27 -41 32 -38 6 2 18 -3 27 -11 15 -12 20 -10 48 18 30 30 37 32
106 33 61 1 75 -2 85 -17 9 -14 18 -17 43 -12 35 8 61 25 37 25 -10 0 -11 3
-3 11 15 15 130 -46 138 -72 4 -11 29 -43 56 -71 38 -39 49 -58 46 -76 -2 -12
0 -25 5 -28 5 -4 -3 -20 -19 -38 -50 -53 -93 -113 -93 -129 0 -20 22 -27 85
-27 135 0 139 -56 6 -96 -63 -19 -143 -71 -120 -78 8 -2 49 -9 92 -15 90 -13
147 -34 142 -53 -17 -70 -38 -80 -330 -153 -219 -55 -275 -77 -275 -108 0 -5
10 -23 23 -40 12 -17 27 -45 33 -61 l11 -31 32 58 c42 73 60 74 140 7 82 -68
100 -74 153 -50 37 16 59 18 187 13 136 -5 148 -7 172 -29 33 -32 45 -30 91
11 21 20 64 47 96 61 31 14 66 34 78 45 11 11 41 30 65 42 31 16 50 34 64 63
29 60 43 73 84 80 20 3 55 12 79 20 49 16 129 18 187 4 27 -6 52 -23 80 -53
45 -50 73 -57 224 -61 41 -1 76 -7 83 -14 9 -9 12 -36 10 -79 -4 -106 25 -117
106 -38 34 32 45 51 49 84 8 58 28 68 148 76 129 9 145 2 161 -61 7 -27 18
-68 25 -90 11 -37 10 -51 -11 -123 l-23 -82 22 -22 c11 -13 21 -32 21 -43 0
-23 -32 -79 -69 -117 -57 -62 -356 -257 -394 -257 -9 0 -46 11 -84 24 -86 31
-193 35 -323 12 -52 -9 -122 -16 -155 -16 -157 1 -325 -12 -395 -30 -42 -11
-109 -20 -151 -20 -84 0 -93 4 -254 101 -49 30 -130 72 -180 93 -49 21 -120
58 -156 82 -80 53 -99 61 -99 42 0 -36 54 -74 254 -176 76 -40 144 -76 150
-80 6 -5 34 -18 61 -28 64 -23 108 -48 169 -96 27 -21 59 -40 70 -42 186 -34
240 -33 331 3 68 28 80 29 187 26 82 -2 124 -8 146 -19 70 -36 290 -15 387 36
345 183 424 220 586 272 58 18 119 41 135 49 45 23 102 86 127 138 21 45 37
62 37 39 0 -5 6 -10 14 -10 18 0 54 -92 38 -98 -7 -2 -12 -8 -12 -14 0 -6 6
-8 14 -5 10 4 17 -4 21 -26 4 -18 11 -45 16 -62 4 -16 11 -46 14 -66 4 -28 15
-42 50 -67 l45 -32 0 2135 0 2135 -2870 0 -2870 0 -2 -27z m918 -1097 c38 -2
82 -13 115 -28 49 -22 52 -25 33 -36 -31 -17 -240 -32 -434 -31 -174 0 -253 9
-300 34 -56 30 -39 35 190 51 47 3 90 11 95 16 6 6 55 7 125 3 63 -3 143 -7
176 -9z m-2196 -600 c0 -3 -4 -8 -10 -11 -5 -3 -10 -1 -10 4 0 6 5 11 10 11 6
0 10 -2 10 -4z m2044 -102 c9 -3 16 -15 16 -25 0 -10 5 -19 10 -19 6 0 10 7
10 15 0 10 10 15 33 14 29 0 30 -1 10 -9 -13 -5 -23 -17 -23 -26 0 -10 -5 -14
-15 -11 -8 4 -17 2 -20 -3 -4 -6 -26 -10 -49 -10 -24 0 -59 -7 -79 -15 -19 -8
-37 -12 -40 -9 -3 3 -8 -4 -12 -15 -3 -12 -13 -21 -21 -21 -40 0 25 114 76
133 21 8 85 8 104 1z m4772 -659 c18 -11 24 -25 24 -51 0 -45 -33 -151 -71
-232 -25 -52 -29 -70 -24 -106 5 -28 2 -54 -9 -79 -14 -35 -18 -37 -59 -37
-61 0 -210 46 -443 135 -95 37 -214 55 -418 64 -170 8 -190 11 -209 29 l-20
21 34 20 c19 12 45 24 59 27 14 3 33 9 42 15 10 5 25 9 34 9 21 0 157 49 164
59 12 17 531 117 675 129 161 14 196 14 221 -3z m-2083 -362 c-7 -2 -19 -2
-25 0 -7 3 -2 5 12 5 14 0 19 -2 13 -5z m1928 -653 c30 -17 25 -71 -10 -106
-38 -38 -41 -63 -13 -93 18 -19 22 -33 18 -54 -9 -45 -35 -94 -72 -134 -41
-44 -71 -52 -79 -20 -8 32 20 219 38 254 9 16 15 36 15 43 -3 47 5 74 27 95
26 27 46 31 76 15z"/>
<path d="M9577 12457 c-38 -7 -65 -15 -61 -19 10 -10 637 -9 689 1 l40 8 -50
9 c-27 4 -117 7 -200 6 -82 -2 -175 -3 -205 -4 -30 0 -75 2 -100 5 -25 3 -76
0 -113 -6z"/>
<path d="M10780 12449 c-22 -6 -20 -7 13 -8 38 -1 47 3 25 11 -7 3 -24 1 -38
-3z"/>
<path d="M11010 12451 l-35 -7 49 -7 c74 -11 96 -9 96 8 0 16 -43 18 -110 6z"/>
<path d="M8817 12444 c-4 -4 -24 -7 -44 -8 l-38 -1 2 -60 c5 -101 25 -205 41
-205 11 0 13 8 8 34 -5 26 -1 45 19 80 14 24 25 54 25 64 0 11 7 25 15 32 9 7
14 18 12 25 -3 6 5 12 17 13 11 0 32 4 46 8 23 7 22 8 -15 15 -51 10 -80 11
-88 3z"/>
<path d="M11360 12440 c0 -5 5 -10 10 -10 6 0 10 5 10 10 0 6 -4 10 -10 10 -5
0 -10 -4 -10 -10z"/>
<path d="M12402 11560 c-46 -4 -87 -11 -91 -16 -4 -5 -3 -26 3 -46 l11 -37 44
20 c40 18 51 18 126 8 97 -14 185 -5 217 21 61 50 -71 71 -310 50z"/>
<path d="M1779 11286 c16 -19 55 -22 49 -3 -3 6 -17 14 -33 15 -25 3 -27 2
-16 -12z"/>
<path d="M11765 11159 c-38 -12 -52 -23 -97 -83 -33 -43 -38 -56 -38 -102 0
-73 13 -103 67 -150 l46 -41 7 -109 c6 -92 5 -118 -10 -164 -15 -45 -17 -68
-10 -125 17 -130 27 -180 49 -227 14 -30 25 -83 31 -148 5 -56 13 -106 16
-112 11 -18 6 -82 -10 -120 -21 -49 -18 -326 3 -352 17 -20 35 -20 51 -1 22
27 22 256 -1 355 -17 78 -18 94 -5 198 12 103 15 115 43 145 17 18 45 68 63
112 27 68 31 89 27 140 -7 87 -38 152 -81 170 -20 8 -40 24 -46 34 -5 11 -10
65 -10 120 l0 101 35 38 c19 21 38 50 44 63 9 25 5 150 -6 179 -4 8 -7 18 -7
22 -2 12 -51 45 -78 51 -14 4 -32 9 -40 11 -7 2 -26 0 -43 -5z"/>
<path d="M4691 11107 c-12 -6 -39 -39 -60 -71 -35 -57 -36 -63 -36 -150 0 -85
3 -97 39 -173 l39 -82 -14 -63 c-8 -36 -14 -119 -14 -194 l0 -131 32 -36 c19
-21 34 -52 38 -74 11 -75 19 -88 49 -88 27 -1 45 10 99 62 41 40 40 80 -5 137
-29 37 -30 41 -20 85 13 58 2 118 -29 162 -21 30 -24 43 -21 106 1 40 9 91 17
114 8 23 15 54 15 69 0 15 7 45 16 66 24 57 19 114 -15 183 -43 84 -78 106
-130 78z"/>
<path d="M6802 11085 c-53 -47 -80 -126 -65 -187 6 -24 19 -72 28 -108 9 -36
23 -85 31 -109 17 -49 12 -85 -18 -145 -16 -31 -19 -50 -13 -91 5 -40 1 -66
-14 -110 -25 -72 -20 -175 9 -175 10 0 29 -9 43 -20 14 -11 31 -20 39 -20 20
0 73 58 92 100 9 19 23 46 31 60 8 14 15 41 15 60 0 32 -7 47 -62 129 -23 33
-22 60 1 199 17 99 24 121 60 176 23 34 41 65 41 69 0 3 -11 30 -24 59 -13 29
-27 64 -31 78 -23 77 -98 94 -163 35z"/>
<path d="M1 10364 l1 -129 19 40 c12 24 17 52 15 70 -29 181 -36 185 -35 19z"/>
<path d="M0 10153 c0 -24 4 -43 9 -43 16 0 19 36 5 61 -13 23 -13 22 -14 -18z"/>
<path d="M6991 10017 c-6 -8 -14 -29 -17 -48 -4 -19 -13 -45 -21 -58 -14 -21
-20 -23 -70 -18 -35 4 -68 1 -94 -8 -22 -8 -46 -12 -53 -9 -18 7 -195 -53
-214 -72 -11 -11 -12 -21 -3 -46 6 -17 11 -36 11 -43 0 -20 -60 -73 -126 -110
-71 -40 -79 -58 -44 -102 37 -47 29 -64 -69 -142 -60 -47 -184 -107 -261 -125
-149 -34 -176 -66 -92 -105 41 -19 58 -22 108 -16 32 4 73 11 89 15 17 5 53
12 82 14 28 3 74 8 102 12 41 5 57 3 86 -15 45 -26 66 -26 95 -1 13 11 27 20
31 20 4 0 11 9 14 20 4 11 11 18 16 15 5 -4 9 -2 9 3 0 5 10 12 23 15 12 3 58
15 102 26 44 11 105 31 135 45 50 24 66 26 191 26 134 0 138 -1 195 -31 32
-17 99 -39 149 -49 122 -25 122 -26 130 -71 12 -73 97 -82 188 -21 23 15 68
34 99 41 54 13 60 13 115 -11 55 -24 60 -25 108 -11 28 8 55 18 60 23 6 4 25
12 43 18 40 14 74 3 105 -33 l22 -25 54 20 c30 11 58 25 63 32 9 15 11 113 2
156 -4 17 -22 49 -41 71 -19 22 -41 62 -50 88 -31 93 -47 106 -221 177 -59 25
-145 62 -192 84 -47 22 -110 47 -140 56 -69 21 -318 53 -475 61 -66 4 -128 11
-137 16 -9 5 -20 26 -24 47 -12 70 -53 104 -83 69z"/>
<path d="M4751 9991 c-10 -7 -15 -37 -17 -114 -1 -58 -7 -123 -13 -144 -20
-70 -9 -163 18 -163 4 0 20 11 35 25 21 19 26 33 26 71 0 26 -5 63 -11 83 -7
25 -8 62 -1 116 12 108 0 149 -37 126z"/>
<path d="M16577 9885 c-18 -13 -18 -14 1 -24 14 -8 24 -7 38 4 12 9 14 14 6
15 -7 0 -10 5 -7 10 9 15 -17 12 -38 -5z"/>
<path d="M14245 9540 c-83 -9 -223 -42 -253 -59 -9 -6 -14 -11 -10 -11 12 0
-71 -73 -152 -133 -69 -52 -140 -113 -140 -121 0 -2 -24 -27 -52 -57 -54 -55
-115 -129 -132 -158 -5 -9 -16 -22 -23 -29 -7 -8 -18 -23 -25 -35 -6 -12 -29
-46 -50 -75 -21 -29 -36 -57 -33 -62 3 -5 0 -12 -6 -16 -8 -5 -9 -3 -4 6 5 8
4 11 -3 6 -6 -4 -9 -13 -6 -20 3 -7 -10 -42 -29 -77 -78 -143 -133 -347 -178
-656 -16 -111 -38 -250 -49 -309 -22 -119 -25 -181 -5 -94 13 57 20 34 9 -32
-4 -24 -11 -35 -19 -31 -10 3 -15 -10 -20 -44 -3 -26 -8 -61 -10 -76 -3 -17
-1 -26 5 -22 6 3 10 25 11 48 0 23 4 51 9 62 7 17 9 16 9 -9 1 -39 -21 -160
-31 -166 -10 -8 -12 -61 -3 -82 4 -11 3 -18 -4 -18 -6 0 -8 -6 -5 -14 3 -8 0
-17 -7 -22 -9 -5 -7 -9 7 -15 14 -6 15 -8 3 -8 -13 -1 -15 -9 -9 -46 4 -25 3
-45 -1 -45 -11 0 -19 -60 -24 -185 -5 -101 -12 -160 -34 -255 -16 -72 -22 -80
-46 -74 -16 4 -26 0 -34 -13 -9 -16 -10 -15 -11 9 0 24 -4 26 -52 31 -43 3
-65 -1 -116 -24 -34 -15 -65 -35 -68 -44 -3 -8 1 -33 10 -55 9 -22 16 -46 16
-54 0 -15 -89 -60 -140 -71 -88 -19 -117 -61 -60 -90 37 -19 60 -19 112 2 46
18 76 47 105 100 24 44 81 56 146 28 12 -5 17 -2 18 11 0 16 2 16 11 -3 6 -13
15 -23 20 -23 4 0 8 -8 8 -17 0 -14 2 -15 9 -4 15 24 19 -2 10 -63 -6 -32 -7
-61 -4 -64 2 -3 0 -11 -6 -19 -15 -18 -38 -153 -26 -153 6 0 5 -5 0 -12 -6 -7
-16 -38 -22 -68 -7 -30 -15 -62 -18 -70 -4 -8 -5 -19 -4 -23 1 -5 -3 -6 -9 -2
-5 3 -10 15 -10 26 0 11 -3 18 -8 15 -4 -2 -22 2 -40 10 -29 12 -32 16 -22 34
14 27 8 36 -48 64 -32 16 -58 22 -79 19 -21 -3 -33 -1 -33 6 0 6 -5 11 -11 11
-6 0 -27 15 -47 34 -43 42 -63 36 -81 -23 -6 -22 -16 -43 -20 -46 -12 -7 -33
120 -37 215 -8 236 -35 732 -44 835 -22 235 -40 260 -85 122 -36 -111 -56
-154 -87 -187 -32 -34 -69 -106 -80 -155 -10 -46 -11 -50 -68 -315 -43 -203
-47 -224 -49 -252 -2 -28 -38 -23 -39 5 0 12 -7 132 -16 267 -9 135 -21 418
-25 630 -9 393 -18 474 -46 450 -8 -6 -17 -31 -21 -55 -7 -53 -24 -71 -52 -56
-12 7 -21 25 -25 51 -14 107 -97 88 -97 -23 0 -27 -9 -69 -20 -95 -22 -53 -43
-137 -60 -232 -6 -36 -20 -103 -30 -150 -10 -47 -26 -134 -36 -194 -21 -141
-41 -201 -60 -185 -8 6 -14 21 -14 33 0 31 -52 136 -86 173 -16 17 -39 34 -51
38 -29 8 -36 33 -24 86 6 24 11 83 11 131 0 83 1 87 35 130 19 23 39 48 44 54
39 48 39 85 1 107 -30 18 -33 25 -45 102 -9 56 -22 75 -50 75 -34 0 -55 -36
-55 -96 0 -36 -8 -65 -27 -100 -14 -27 -38 -83 -52 -124 -29 -85 -51 -99 -75
-52 -8 16 -33 47 -56 68 -42 40 -49 67 -26 93 29 34 27 56 -8 103 -45 59 -95
84 -139 68 -27 -9 -35 -8 -57 10 -40 32 -69 41 -91 30 -10 -6 -19 -15 -19 -20
0 -5 -14 -25 -30 -44 -45 -51 -55 -88 -36 -127 19 -39 20 -50 2 -27 -12 16
-16 17 -43 3 -52 -26 -61 -45 -71 -140 -6 -57 -19 -115 -37 -159 -54 -135 -66
-224 -41 -312 8 -27 19 -143 25 -259 55 -1038 69 -1329 70 -1470 1 -60 7 -153
13 -205 15 -139 15 -140 -35 -242 -25 -51 -57 -126 -71 -167 -15 -41 -29 -79
-33 -84 -20 -33 -38 155 -53 558 -9 247 -34 519 -59 648 -34 175 -42 518 -26
1137 8 324 10 315 -89 315 -106 0 -108 21 -32 260 55 170 77 200 182 251 75
36 89 55 56 73 -42 22 -112 -18 -201 -115 -90 -98 -111 -133 -132 -224 -11
-45 -28 -99 -40 -122 -25 -49 -118 -150 -130 -142 -5 3 -7 22 -4 42 3 20 7 53
8 72 2 20 13 56 24 80 25 51 51 282 39 343 -12 65 -70 75 -154 26 -59 -34
-124 -114 -182 -226 -44 -86 -61 -88 -77 -8 -19 99 -30 119 -56 110 -12 -5
-41 -8 -64 -7 -23 0 -46 -5 -52 -12 -5 -6 -15 -54 -21 -106 -7 -52 -14 -106
-17 -120 -5 -25 -5 -25 -35 13 -34 42 -47 45 -73 17 -22 -25 -15 -67 23 -134
27 -46 62 -70 62 -43 0 26 32 -52 47 -113 21 -92 31 -205 40 -440 11 -272 5
-850 -9 -925 -6 -33 -13 -81 -15 -107 -4 -36 -9 -47 -26 -52 -32 -8 -47 12
-47 63 0 25 -6 96 -14 156 -8 61 -20 163 -26 228 -7 80 -17 132 -31 162 -24
51 -50 77 -56 58 -6 -18 -23 -16 -23 2 0 8 -4 15 -10 15 -5 0 -10 -4 -10 -10
0 -5 -9 -10 -20 -10 -11 0 -20 5 -20 11 0 6 -7 9 -15 5 -10 -3 -15 1 -15 12 0
14 -2 15 -10 2 -13 -20 -23 11 -49 150 -30 160 -51 256 -68 320 -8 30 -19 78
-24 105 -51 303 -47 293 -92 233 -40 -53 -46 -72 -52 -150 -9 -102 -13 -118
-29 -112 -18 7 -52 86 -60 139 -6 36 -4 43 24 70 30 29 30 29 30 139 0 117 -6
156 -22 156 -6 0 -24 -12 -41 -26 l-31 -26 -17 21 c-10 12 -21 47 -25 79 -4
31 -11 68 -16 81 -5 13 -11 52 -14 85 -18 223 -29 256 -85 256 -34 0 -50 -22
-78 -101 -10 -30 -30 -77 -44 -104 -14 -28 -35 -84 -48 -125 -17 -56 -32 -85
-60 -113 -21 -22 -44 -37 -51 -35 -24 8 -38 52 -38 119 0 91 -17 105 -66 58
-50 -48 -76 -95 -85 -150 -4 -27 -19 -63 -32 -81 -31 -41 -71 -161 -62 -187 3
-11 15 -23 26 -26 10 -4 19 -15 19 -25 0 -17 -4 -18 -26 -10 -14 6 -31 10 -38
10 -23 0 -47 -111 -46 -206 5 -212 -2 -369 -17 -399 -9 -19 -16 -70 -19 -135
-5 -132 -22 -319 -36 -385 -5 -27 -11 -120 -13 -205 -1 -85 -9 -218 -18 -295
-26 -218 -48 -439 -57 -565 -5 -63 -18 -153 -30 -199 -28 -106 -23 -165 15
-198 14 -13 31 -21 36 -18 18 12 7 -82 -22 -190 -17 -62 -34 -158 -40 -220 -5
-60 -13 -139 -18 -175 -5 -36 -5 -75 0 -88 12 -31 53 -48 87 -36 31 11 72 67
72 100 0 13 5 24 10 24 6 0 10 -4 10 -10 0 -5 17 -10 38 -10 33 -1 35 -2 20
-14 -23 -17 -23 -38 0 -34 26 4 39 -175 21 -292 -7 -47 -13 -93 -14 -103 -1
-11 -8 -23 -15 -27 -23 -14 -107 -22 -229 -23 -109 0 -117 -2 -160 -29 -38
-23 -56 -28 -110 -28 -42 0 -85 -7 -118 -20 -68 -26 -91 -16 -128 57 -26 52
-27 58 -15 102 14 49 14 87 4 249 -6 100 -7 104 -32 113 -66 24 -81 35 -96 66
-34 70 -45 160 -50 381 -5 215 -5 220 -30 257 -14 21 -26 50 -26 64 -3 163
-30 505 -41 494 -13 -14 -18 -69 -29 -318 -6 -132 -12 -253 -15 -270 -3 -16
-11 -127 -19 -246 -8 -119 -20 -264 -27 -323 l-12 -106 -34 5 c-18 2 -46 11
-61 19 -41 22 -152 76 -157 76 -2 0 -13 -18 -23 -40 -10 -22 -21 -38 -23 -35
-5 4 -19 -34 -84 -238 -32 -99 -60 -153 -85 -167 -14 -8 -20 -8 -20 0 0 6 -7
18 -15 26 -10 11 -15 36 -15 83 0 61 -3 71 -27 95 -18 19 -35 26 -50 23 -17
-3 -23 0 -23 13 0 10 -7 20 -15 24 -8 3 -15 15 -15 26 0 25 -23 72 -44 89 -16
13 -33 63 -40 117 -6 52 -18 84 -30 84 -7 0 -17 17 -23 37 -23 75 -63 185 -76
211 -40 76 -55 109 -62 129 -10 35 -76 131 -118 173 -27 26 -38 37 -72 70 -16
17 -59 53 -95 81 -87 69 -106 92 -169 202 -28 50 -27 60 12 103 64 74 36 184
-78 301 -45 45 -74 66 -114 80 -32 10 -77 39 -112 68 -102 88 -159 129 -222
160 -56 27 -64 36 -92 91 -37 76 -52 94 -92 110 -52 22 -84 4 -129 -73 -21
-36 -44 -67 -51 -70 -23 -9 -52 27 -89 106 -19 42 -41 87 -48 101 -8 14 -16
41 -18 60 -3 33 0 37 42 58 38 19 60 22 163 22 97 0 125 -3 156 -19 43 -22
127 -20 194 5 25 9 80 14 166 14 102 0 133 3 145 15 36 37 27 88 -20 105 -14
6 -67 10 -117 10 -137 0 -160 9 -196 77 -18 32 -31 72 -31 91 0 38 -19 112
-30 112 -8 0 -26 -54 -34 -102 -5 -24 -21 -52 -46 -78 -22 -23 -40 -47 -40
-54 0 -7 -9 -21 -19 -30 -17 -16 -32 -17 -123 -10 -57 4 -136 16 -177 28 l-74
21 -23 68 c-20 59 -24 101 -35 380 -12 291 -11 324 6 450 17 129 17 143 2 254
-12 89 -17 202 -17 457 0 186 -3 342 -5 346 -2 3 -6 251 -9 550 -5 574 -5 566
-51 572 -11 1 -200 -1 -420 -5 -692 -14 -1739 -28 -2273 -31 -211 -1 -224 -2
-239 -21 -13 -17 -14 -61 -6 -345 4 -179 8 -570 8 -870 0 -300 4 -815 9 -1145
7 -513 6 -603 -6 -618 -23 -31 -89 -36 -363 -27 -143 4 -271 7 -285 6 -66 -3
-408 16 -431 25 -25 10 -49 45 -49 72 0 7 -14 32 -30 57 l-30 45 0 -177 c0
-136 3 -178 13 -178 6 0 32 10 57 21 44 20 54 21 485 15 499 -7 606 -12 632
-31 14 -11 18 -27 18 -79 0 -62 -2 -67 -37 -103 -82 -84 -100 -221 -36 -273
21 -17 21 -19 8 -76 -7 -33 -26 -84 -41 -114 -15 -30 -30 -70 -34 -88 -4 -18
-24 -70 -45 -115 -21 -45 -40 -98 -44 -117 -3 -19 -9 -188 -12 -375 -9 -532
-12 -611 -23 -755 -6 -74 -16 -310 -21 -525 -5 -214 -14 -433 -19 -485 -6 -54
-7 -123 -2 -160 17 -137 -49 -584 -93 -628 -41 -41 -45 53 -10 218 13 62 15
138 14 440 -1 201 -8 489 -16 640 -7 151 -14 460 -15 685 -1 226 -6 456 -12
512 -12 124 2 206 64 389 23 65 61 177 85 247 60 176 60 181 -25 271 -51 54
-83 100 -119 172 -62 124 -80 146 -116 146 -46 1 -76 -40 -100 -134 -24 -93
-37 -103 -84 -68 -16 12 -47 24 -70 27 -50 7 -65 22 -89 92 -20 61 -38 77 -75
68 -31 -8 -52 -50 -67 -132 -9 -50 -18 -67 -55 -105 -24 -25 -60 -75 -80 -111
l-36 -66 0 -2446 c0 -2445 0 -2447 20 -2435 11 7 20 20 20 29 0 22 46 64 55
50 10 -17 -3 -48 -28 -68 -47 -38 -67 -78 -67 -136 0 -31 5 -57 10 -59 6 -2
42 -1 81 2 62 5 74 9 95 33 35 41 40 89 15 137 -35 68 -27 86 67 144 56 35 82
31 106 -17 16 -34 22 -38 50 -35 26 3 35 11 56 53 35 70 66 77 148 36 44 -22
62 -37 62 -51 0 -21 -115 -150 -135 -150 -25 0 -47 -38 -44 -77 2 -26 -4 -49
-18 -73 -27 -43 -28 -55 -6 -55 13 0 22 -15 32 -53 14 -52 14 -52 -17 -102
l-31 -50 703 0 c571 0 710 3 737 14 25 10 81 13 209 11 96 -1 189 2 205 7 25
7 32 5 44 -12 13 -20 14 -20 3547 -20 1943 0 3535 3 3538 8 2 4 7 119 10 255
9 335 15 380 59 426 27 28 36 47 41 86 3 28 10 78 15 113 5 34 13 171 16 305
6 204 4 283 -15 502 -22 271 -41 361 -92 443 -14 22 -23 58 -26 102 -4 60 -2
70 17 89 14 14 32 21 48 19 22 -3 31 -15 63 -93 20 -49 55 -124 78 -166 57
-102 90 -205 103 -315 11 -92 8 -140 -25 -399 -8 -60 -17 -180 -20 -265 -9
-208 -21 -275 -57 -327 -35 -50 -36 -60 -4 -75 28 -13 28 -10 16 -61 -6 -26
-5 -51 6 -85 12 -38 14 -94 10 -304 l-5 -258 1260 0 1260 0 28 28 c16 15 42
41 60 57 28 27 172 235 260 378 19 31 39 57 43 57 4 0 5 16 1 36 l-6 35 26
-24 c14 -13 43 -27 64 -30 20 -3 47 -8 59 -11 12 -2 27 2 34 10 7 9 16 11 23
5 16 -14 28 -14 36 -1 5 8 9 7 13 -3 4 -11 0 -15 -13 -12 -11 2 -22 0 -24 -4
-11 -17 45 -4 73 17 17 12 32 18 35 13 3 -5 20 -7 37 -5 18 2 38 -1 45 -7 9
-7 14 -6 20 2 5 8 3 10 -7 4 -8 -5 -11 -4 -6 0 12 13 49 13 44 0 -3 -6 5 -11
18 -11 13 0 21 5 19 11 -5 13 33 17 41 4 4 -5 12 -6 18 -2 7 4 44 9 82 10 39
0 71 2 73 3 1 2 5 3 10 5 4 1 15 5 24 9 9 4 22 8 30 10 7 1 19 5 26 9 7 5 12
3 12 -4 0 -8 4 -8 13 -1 10 8 53 21 92 27 6 1 12 3 15 5 12 6 92 10 183 10 81
0 128 -7 260 -39 193 -48 208 -51 272 -56 68 -6 18 10 -57 18 -30 4 -67 11
-82 17 -16 6 -92 27 -169 47 -124 32 -161 37 -291 41 -119 3 -165 1 -225 -13
-42 -10 -81 -22 -88 -27 -32 -25 -615 12 -753 48 -30 8 -70 14 -90 14 -19 0
-53 5 -75 11 -22 5 -57 11 -79 13 -22 1 -44 10 -51 19 -13 18 -30 24 -20 7 8
-13 -16 -13 -51 0 -21 9 -29 7 -41 -7 -8 -10 -12 -12 -8 -5 4 7 0 12 -9 12 -9
0 -16 -5 -16 -10 0 -6 -3 -9 -7 -9 -5 1 -10 1 -13 0 -3 -1 -22 -4 -43 -6 -20
-2 -43 -8 -50 -12 -6 -4 -32 -7 -56 -8 -36 0 -48 5 -67 28 -32 38 -32 90 1
132 25 34 89 74 208 132 39 19 67 39 67 48 0 8 -1 15 -3 15 -2 0 -35 -16 -74
-35 -39 -19 -78 -35 -87 -35 -8 0 -18 -5 -21 -11 -4 -5 -12 -8 -18 -6 -17 5
-50 -29 -42 -45 3 -7 -7 3 -24 22 -23 26 -31 44 -31 73 0 51 12 73 71 128 40
37 49 52 49 80 0 36 30 112 49 123 6 4 23 29 36 56 14 27 38 64 54 82 15 18
36 48 45 66 16 31 16 32 -5 32 -21 0 -73 -25 -97 -47 -7 -7 -26 -13 -41 -13
-16 0 -43 -3 -60 -6 -25 -5 -31 -11 -29 -28 1 -11 -1 -27 -5 -34 -5 -6 -5 -12
-2 -12 4 0 -3 -13 -14 -29 -11 -15 -18 -31 -14 -35 3 -3 0 -6 -7 -6 -10 0 -12
17 -7 78 3 42 10 91 16 107 5 17 14 53 20 80 14 62 59 106 140 134 31 10 98
35 150 53 l94 34 -2 72 c-1 40 -4 84 -7 100 -14 89 -12 86 -64 110 -62 29
-107 75 -121 125 -15 56 -15 173 0 322 17 168 9 341 -19 424 -29 87 -49 245
-56 435 -9 258 -11 276 -33 374 -19 81 -27 172 -21 237 1 11 -3 49 -9 85 -78
452 -80 621 -9 800 42 107 95 175 198 254 61 48 215 133 300 166 58 23 217 53
231 44 5 -3 9 -1 9 4 0 13 40 20 70 11 21 -6 18 -7 -16 -8 -30 -1 -41 -5 -41
-17 0 -13 9 -15 47 -10 26 3 84 1 129 -4 59 -8 87 -8 102 1 16 8 20 8 14 -1
-9 -15 141 -12 154 4 24 29 166 464 222 680 28 110 80 135 244 116 l110 -13
126 36 c70 20 138 41 153 47 l27 10 -76 76 c-41 42 -75 77 -75 79 0 1 -18 22
-40 45 -23 24 -39 49 -36 56 3 7 -4 16 -15 19 -10 4 -19 15 -19 26 0 10 -4 19
-9 19 -5 0 -22 25 -36 55 -35 71 -53 139 -60 233 -2 30 -8 59 -13 65 -5 7 -22
43 -36 81 -25 63 -27 79 -27 205 1 182 22 251 77 251 16 0 34 10 46 25 13 16
29 25 49 25 16 0 29 5 29 10 0 6 -4 10 -10 10 -5 0 -2 13 7 28 l16 29 26 -30
c22 -24 34 -29 74 -29 54 0 69 10 87 52 12 30 12 30 41 13 16 -10 29 -21 29
-25 0 -4 5 -8 11 -8 5 0 7 5 4 10 -10 15 2 12 20 -6 20 -21 32 -10 14 13 -12
15 -12 16 3 10 29 -10 16 16 -19 41 -18 12 -33 27 -33 32 0 6 -3 9 -7 8 -5 -1
-33 4 -63 10 -67 15 -146 18 -218 8 -41 -6 -58 -4 -77 8 -29 19 -35 66 -9 66
8 0 12 5 9 10 -7 11 83 4 145 -11 19 -5 64 -16 100 -25 36 -8 79 -21 95 -28
37 -15 61 -14 57 2 -1 7 2 12 8 12 14 0 12 -16 -4 -33 -12 -12 -10 -14 20 -15
33 -1 47 12 22 20 -7 3 -12 15 -13 29 0 13 -8 35 -17 49 -10 13 -18 20 -18 15
0 -5 -7 0 -15 11 -10 13 -14 15 -15 5 0 -10 -7 -7 -25 9 -16 15 -40 24 -67 26
-169 13 -258 33 -258 58 0 8 24 92 61 212 5 17 9 40 9 52 0 11 4 31 9 44 5 13
19 53 29 89 23 75 53 127 106 184 20 21 36 41 36 45 0 4 12 11 26 14 15 4 24
10 20 13 -6 7 23 30 38 31 5 0 12 4 15 9 8 11 90 50 124 58 15 4 29 11 32 15
2 4 24 5 49 3 25 -3 47 0 50 6 4 6 1 11 -6 11 -9 1 -7 5 5 14 9 7 29 11 43 8
19 -3 25 -1 20 7 -10 15 7 14 23 -1 10 -11 11 -9 5 6 -6 15 -4 17 6 11 10 -6
12 -4 6 10 -6 16 -4 16 11 4 15 -13 16 -12 11 9 -5 18 -2 22 17 22 12 0 28 7
35 15 9 10 9 15 1 15 -20 0 -12 26 9 27 11 1 18 -2 15 -8 -4 -5 -1 -9 5 -9 6
0 8 -11 6 -25 -3 -13 0 -27 5 -30 5 -4 9 -17 9 -30 0 -16 7 -25 26 -29 16 -4
24 -12 21 -21 -6 -14 12 -25 43 -25 9 0 23 -7 30 -15 7 -8 16 -12 21 -9 13 7
78 -15 109 -37 14 -10 34 -20 45 -22 11 -2 39 -15 63 -30 24 -16 54 -33 68
-39 13 -6 24 -15 24 -21 0 -5 7 -7 15 -3 8 3 15 1 15 -4 0 -6 6 -10 13 -10 7
0 27 -12 44 -27 61 -54 97 -83 104 -83 17 0 62 -146 65 -213 3 -39 9 -76 14
-81 6 -6 10 -15 10 -20 0 -6 -5 -4 -10 4 -6 9 -10 10 -10 3 0 -6 8 -18 18 -25
10 -7 27 -28 37 -45 11 -18 22 -33 26 -33 16 0 81 -281 95 -410 6 -60 -8 -155
-41 -268 -14 -52 -24 -103 -22 -115 3 -18 5 -16 6 6 0 16 12 52 25 80 14 29
35 88 46 132 12 44 26 84 31 89 5 6 9 19 10 30 0 20 1 20 16 -1 8 -13 20 -23
25 -23 6 0 5 7 -2 15 -7 9 -10 18 -7 22 4 3 2 14 -3 23 -8 14 -6 18 7 16 24
-4 52 -43 46 -66 -3 -12 0 -20 8 -20 8 0 5 -6 -7 -15 -10 -8 -14 -14 -9 -14
19 0 41 24 42 47 1 39 3 42 18 42 8 0 15 4 15 9 0 22 -23 68 -47 93 l-25 27
21 27 c11 15 21 36 21 48 0 11 4 27 9 35 6 9 4 19 -4 28 -17 17 -13 59 8 84
10 11 17 24 17 29 0 14 51 24 68 13 29 -18 23 -73 -8 -73 -9 0 -25 -8 -34 -19
-14 -16 -15 -19 -2 -24 10 -4 16 -32 21 -106 4 -56 11 -101 16 -101 15 0 10
-113 -7 -171 -9 -30 -29 -79 -44 -109 -15 -31 -33 -75 -40 -98 -20 -76 -98
-133 -133 -97 -8 8 -17 12 -21 10 -3 -3 -4 -2 -1 2 3 3 0 12 -6 19 -6 8 -14
37 -18 66 l-7 53 -24 -75 c-13 -41 -26 -76 -31 -78 -4 -2 -5 -13 -2 -25 4 -18
3 -20 -7 -7 -10 12 -11 11 -7 -7 3 -13 1 -23 -4 -23 -4 0 -6 -6 -3 -13 11 -31
-69 -313 -116 -407 -56 -110 -160 -231 -311 -359 -106 -90 -99 -86 -158 -83
-74 4 -107 -4 -91 -23 6 -8 18 -11 25 -9 8 3 22 1 32 -5 17 -10 17 -10 -2 -11
-33 -1 2 -18 63 -31 46 -9 53 -14 50 -32 -2 -13 -19 -30 -43 -44 -38 -20 -47
-21 -167 -13 -70 4 -132 11 -139 16 -6 4 -28 8 -48 8 -20 1 -42 5 -49 10 -11
7 -12 4 -3 -12 14 -26 64 -62 85 -62 9 0 16 -6 14 -13 -4 -18 102 -138 115
-130 6 3 7 1 3 -6 -4 -6 -1 -14 7 -17 21 -8 67 -104 76 -160 15 -95 94 -234
119 -209 3 3 0 33 -6 66 -7 32 -11 63 -8 68 3 4 33 25 68 46 52 31 128 81 304
200 10 7 17 6 23 -3 4 -8 12 -13 17 -11 5 1 20 -20 34 -47 42 -81 45 -84 70
-89 13 -2 28 -10 34 -16 7 -7 2 -7 -14 1 l-25 13 19 -22 c11 -11 28 -21 38
-21 11 0 17 -4 14 -8 -5 -8 46 -52 60 -52 3 0 19 -9 35 -21 16 -11 29 -18 29
-14 0 3 10 -3 22 -15 12 -11 28 -20 35 -20 17 0 16 -5 -2 -40 l-14 -28 37 4
c20 2 71 5 112 8 76 5 169 26 315 72 113 36 219 63 227 57 12 -6 -1 23 -57
132 -29 55 -64 130 -80 168 -15 37 -32 67 -38 67 -5 0 -7 6 -4 14 3 8 3 17 -1
20 -3 4 -7 12 -8 19 -6 42 -26 96 -37 100 -8 2 -13 39 -15 120 -2 64 -8 117
-13 117 -5 0 -9 8 -9 18 0 15 2 15 11 2 8 -11 9 -6 4 20 -3 19 -9 71 -12 115
-3 44 -10 86 -15 93 -6 7 -8 15 -4 19 3 3 6 0 6 -7 0 -7 2 -11 5 -8 10 10 -7
38 -19 31 -8 -5 -8 -3 0 8 16 21 26 51 14 44 -6 -3 -10 2 -11 12 0 10 -2 68
-4 128 -3 61 -6 149 -7 196 -2 48 -6 83 -9 77 -3 -5 -9 24 -12 64 -4 40 -9 84
-13 98 -4 19 -3 21 5 10 5 -8 12 -12 15 -9 6 6 -21 225 -31 249 -5 13 -14 97
-14 143 0 9 -4 15 -8 13 -4 -3 -8 19 -8 47 -1 29 -11 104 -23 167 -12 63 -26
142 -30 175 -5 33 -11 74 -14 90 -3 17 -14 84 -25 150 -32 186 -96 411 -152
531 -10 23 -19 45 -19 49 0 17 -95 193 -143 265 -27 41 -105 130 -173 197
-106 106 -133 127 -201 159 -125 58 -171 74 -211 74 -45 0 -150 -26 -169 -42
-7 -6 -13 -7 -13 -3 0 4 -8 1 -17 -6 -15 -12 -16 -12 -10 4 9 24 -15 22 -33
-2 -16 -24 -30 -18 -29 12 0 20 1 21 8 3 5 -13 10 -16 14 -9 8 13 -9 26 -36
28 -12 1 -16 -3 -12 -13 5 -12 3 -13 -10 -2 -11 9 -19 10 -26 3 -7 -7 -26 -5
-60 8 -61 23 -150 30 -254 19z m628 -27 c-13 -2 -23 -9 -23 -14 0 -6 -5 -7
-11 -3 -15 9 9 24 36 22 17 -1 17 -1 -2 -5z m-748 -33 c-10 -11 -21 -17 -24
-14 -3 3 3 12 13 20 28 20 32 17 11 -6z m73 5 c-8 -8 -68 -24 -68 -19 0 7 64
33 69 28 2 -2 2 -6 -1 -9z m562 11 c0 -3 -4 -8 -10 -11 -5 -3 -10 -1 -10 4 0
6 5 11 10 11 6 0 10 -2 10 -4z m-513 -12 c-3 -3 -12 -4 -19 -1 -8 3 -5 6 6 6
11 1 17 -2 13 -5z m-227 -8 c0 -3 -4 -8 -10 -11 -5 -3 -10 -1 -10 4 0 6 5 11
10 11 6 0 10 -2 10 -4z m544 -553 c-2 -32 -3 -61 -3 -65 -1 -5 -5 -8 -11 -8
-11 0 -13 71 -4 108 11 41 20 23 18 -35z m-60 -128 c3 -8 1 -15 -4 -15 -6 0
-10 7 -10 15 0 8 2 15 4 15 2 0 6 -7 10 -15z m-11821 -128 c10 -12 39 -49 65
-81 26 -33 62 -75 80 -93 42 -43 53 -78 53 -173 0 -69 -4 -81 -51 -175 -27
-56 -50 -104 -50 -108 0 -3 24 -24 53 -45 28 -22 78 -65 109 -97 67 -68 71
-83 72 -275 0 -103 -3 -135 -21 -185 -12 -33 -24 -76 -27 -96 -4 -20 -22 -57
-41 -82 -19 -25 -35 -51 -35 -57 0 -6 12 -27 26 -46 30 -38 29 -2 8 -364 -6
-101 -5 -108 20 -158 29 -58 33 -104 11 -146 -19 -35 -19 -79 -1 -114 7 -15
16 -44 19 -65 8 -53 20 -64 88 -83 69 -19 99 -50 99 -99 0 -57 -26 -77 -107
-82 -95 -7 -117 -1 -137 42 -21 43 -35 45 -43 4 -8 -43 -46 -58 -119 -48 -31
4 -62 5 -70 2 -19 -7 -136 6 -154 17 -12 7 -12 15 0 49 11 35 11 43 -4 65 -25
39 -20 55 23 72 41 16 59 48 39 71 -6 7 -31 13 -57 13 -64 0 -107 -29 -132
-88 -11 -26 -32 -56 -47 -66 -16 -10 -37 -35 -48 -54 -10 -20 -25 -37 -31 -40
-26 -8 -24 31 6 123 17 52 36 127 41 165 6 39 14 89 20 113 13 58 12 179 -2
249 -11 51 -10 62 5 87 9 16 17 39 17 50 0 28 -32 91 -59 115 -12 11 -33 42
-46 68 -13 26 -35 60 -48 74 -37 39 -50 95 -36 144 9 31 10 43 1 52 -7 7 -12
21 -12 31 0 16 -5 18 -27 13 -16 -4 -33 -14 -39 -21 -6 -8 -14 -12 -17 -8 -4
3 -7 1 -7 -5 0 -7 5 -12 11 -12 5 0 7 -5 4 -10 -4 -6 -2 -17 4 -23 10 -13 4
-57 -8 -57 -4 0 -21 -13 -38 -28 -31 -29 -63 -113 -63 -165 0 -14 -4 -29 -10
-32 -13 -8 -13 -92 0 -100 6 -3 10 -14 10 -24 0 -20 -14 -24 -115 -37 l-50 -6
-3 94 c-2 51 -7 122 -12 158 -20 142 -7 447 20 474 6 6 50 11 103 12 51 0 155
11 232 24 77 13 179 24 227 24 127 1 139 17 157 218 7 77 14 104 34 134 26 37
26 37 8 73 -10 20 -22 58 -25 84 -4 27 -20 70 -36 96 -40 69 -44 99 -20 143
26 48 25 60 -3 95 -32 37 -39 71 -26 118 27 95 160 147 212 82z m10911 -224
c-35 -54 -75 -134 -70 -142 3 -4 -10 -38 -29 -75 -19 -36 -35 -74 -35 -84 0
-10 -3 -22 -7 -26 -10 -9 -31 -87 -44 -161 -5 -33 -19 -96 -30 -140 -14 -58
-21 -129 -25 -260 -4 -99 -9 -198 -13 -220 -4 -22 -5 57 -3 175 2 118 1 212
-2 209 -4 -4 -7 -55 -7 -113 0 -67 -3 -105 -9 -101 -7 4 -8 -26 -5 -82 14
-267 14 -278 5 -238 -5 22 -12 103 -16 180 -3 77 -9 142 -11 145 -6 6 5 -459
13 -555 3 -38 3 -67 0 -64 -3 3 -13 82 -22 175 -24 243 -11 611 27 794 42 201
115 407 173 488 46 63 55 67 22 9 -38 -69 -42 -78 -79 -167 -43 -107 -74 -211
-81 -275 -3 -27 -3 -42 0 -33 3 10 12 15 22 12 12 -4 13 -3 4 3 -19 14 15 163
37 164 9 0 11 3 5 5 -9 4 -9 16 -1 45 7 28 12 37 18 27 7 -10 9 -10 9 2 0 8
10 35 22 60 11 25 22 50 23 55 0 6 6 23 13 38 7 16 12 33 12 38 0 5 5 9 10 9
6 0 10 5 10 10 0 14 68 120 76 120 3 0 -2 -12 -12 -27z m-427 -485 c-3 -7 -5
-2 -5 12 0 14 2 19 5 13 2 -7 2 -19 0 -25z m-10 -40 c-3 -8 -6 -5 -6 6 -1 11
2 17 5 13 3 -3 4 -12 1 -19z m-40 -210 c-3 -8 -6 -5 -6 6 -1 11 2 17 5 13 3
-3 4 -12 1 -19z m260 -200 c-3 -8 -6 -5 -6 6 -1 11 2 17 5 13 3 -3 4 -12 1
-19z m40 -40 c-3 -8 -6 -5 -6 6 -1 11 2 17 5 13 3 -3 4 -12 1 -19z m-3599 -28
c25 -17 29 -56 9 -84 -11 -15 -17 -16 -40 -5 -15 7 -27 18 -27 26 0 7 -4 13
-10 13 -11 0 -14 53 -3 63 10 10 44 3 71 -13z m1491 -1 c-7 -14 -14 -18 -21
-11 -13 13 -2 32 18 32 12 0 13 -4 3 -21z m2063 -199 c4 -69 3 -89 -2 -60 -9
45 -13 177 -6 169 2 -2 6 -51 8 -109z m-2627 -38 c0 -99 -25 -172 -60 -172
-35 0 -45 40 -30 130 11 72 24 109 49 136 9 10 14 9 26 -2 11 -11 15 -36 15
-92z m2292 -174 c-3 -7 -5 -2 -5 12 0 14 2 19 5 13 2 -7 2 -19 0 -25z m-2310
-165 c19 -67 -5 -792 -47 -1413 -9 -133 -33 -297 -46 -309 -10 -9 18 976 38
1359 6 124 12 259 13 300 2 92 2 90 20 90 8 0 18 -12 22 -27z m2593 -45 c0
-64 -5 -60 -13 10 -4 32 -2 50 3 47 6 -4 10 -29 10 -57z m-3232 -55 c9 -17 8
-24 -4 -62 -7 -23 -34 7 -34 39 0 42 22 55 38 23z m3239 -25 c-3 -8 -6 -5 -6
6 -1 11 2 17 5 13 3 -3 4 -12 1 -19z m-10 -50 c-3 -7 -5 -2 -5 12 0 14 2 19 5
13 2 -7 2 -19 0 -25z m-386 -475 c13 -16 12 -17 -3 -4 -10 7 -18 15 -18 17 0
8 8 3 21 -13z m2556 -35 c-3 -8 -6 -5 -6 6 -1 11 2 17 5 13 3 -3 4 -12 1 -19z
m-2583 -42 c-3 -21 -8 -35 -11 -32 -2 2 -1 20 3 40 3 21 8 35 11 32 2 -2 1
-20 -3 -40z m2500 -1 c-5 -20 -3 -24 10 -19 12 5 16 0 16 -19 0 -34 -10 -58
-21 -51 -5 3 -9 -2 -9 -10 0 -9 -4 -16 -9 -16 -10 0 -7 113 4 130 11 18 16 11
9 -15z m-6985 6 c11 -7 12 -31 3 -142 -6 -74 -16 -147 -21 -164 -5 -16 -13
-43 -17 -60 l-7 -30 -8 35 c-14 59 -40 310 -34 329 3 9 17 22 33 28 35 14 35
14 51 4z m6391 -21 c13 -9 13 -10 0 -10 -8 0 -22 5 -30 10 -13 9 -13 10 0 10
8 0 22 -5 30 -10z m641 -21 c-9 -22 -10 -22 -10 -3 -1 11 2 24 6 27 12 12 14
0 4 -24z m26 -71 c-3 -8 -6 -5 -6 6 -1 11 2 17 5 13 3 -3 4 -12 1 -19z
m-12604 -148 c22 -18 24 -24 16 -57 -5 -21 -9 -66 -9 -100 0 -34 -4 -73 -10
-87 -14 -37 -47 -34 -68 6 -40 74 -99 100 -147 64 -28 -20 -49 -5 -65 44 -8
23 -29 56 -47 73 -18 17 -33 37 -33 43 0 23 55 32 197 33 126 0 144 -2 166
-19z m177 -8 c28 -22 21 -55 -17 -79 -25 -17 -26 -16 -49 12 -26 33 -31 70
-11 78 25 11 56 6 77 -11z m11835 -52 c-3 -4 1 -10 7 -13 10 -3 10 -8 -1 -21
-11 -13 -23 -16 -50 -11 -20 4 -33 3 -28 -1 4 -4 0 -16 -10 -26 -11 -12 -12
-18 -3 -18 7 0 10 -7 6 -15 -4 -10 1 -15 17 -16 21 0 21 -1 2 -9 -17 -7 -17
-9 -2 -9 9 -1 17 -6 17 -12 0 -7 -9 -9 -22 -5 -13 3 -31 6 -41 6 -12 0 -16 4
-11 13 5 8 2 8 -9 -2 -19 -15 -23 -26 -5 -15 6 4 8 3 5 -3 -4 -6 4 -9 18 -7
14 1 25 -2 25 -6 0 -13 -42 -8 -65 7 -11 7 -14 13 -7 13 6 0 12 5 12 11 0 6
-6 9 -14 6 -25 -10 -29 26 -5 46 26 21 18 36 -8 16 -10 -7 -14 -9 -10 -4 4 5
-3 15 -15 22 -21 12 -21 13 -3 11 11 -1 34 6 52 15 44 23 54 21 18 -3 l-30
-21 30 7 c17 3 35 13 41 20 6 8 23 14 37 14 13 0 28 7 31 16 3 8 10 12 16 9 6
-4 8 -10 5 -15z m-205 -4 c0 -11 -19 -15 -25 -6 -3 5 1 10 9 10 9 0 16 -2 16
-4z m1448 -21 c-3 -3 -9 2 -12 12 -6 14 -5 15 5 6 7 -7 10 -15 7 -18z m-1418
5 c0 -5 -5 -10 -11 -10 -5 0 -7 5 -4 10 3 6 8 10 11 10 2 0 4 -4 4 -10z m166
-59 c0 -15 -4 -17 -17 -10 -10 5 -25 6 -33 3 -9 -3 -16 -2 -16 4 0 12 17 20
45 21 14 1 21 -5 21 -18z m1314 -70 c0 -4 11 -25 25 -46 15 -20 23 -40 20 -44
-7 -7 -44 38 -45 54 0 6 -9 28 -20 50 -26 51 -26 70 0 27 11 -18 20 -36 20
-41z m-1340 55 c0 -3 -4 -8 -10 -11 -5 -3 -10 -1 -10 4 0 6 5 11 10 11 6 0 10
-2 10 -4z m791 -133 c13 -16 12 -17 -3 -4 -10 7 -18 15 -18 17 0 8 8 3 21 -13z
m-2776 -3 c-3 -5 -12 -10 -18 -10 -7 0 -6 4 3 10 19 12 23 12 15 0z m2580 0
c3 -5 1 -10 -4 -10 -6 0 -11 5 -11 10 0 6 2 10 4 10 3 0 8 -4 11 -10z m-2433
-28 c26 -10 51 -21 55 -26 4 -4 -17 1 -47 12 -30 11 -62 22 -70 25 -13 5 -13
6 0 6 8 1 36 -7 62 -17z m1742 2 c3 -8 2 -12 -4 -9 -6 3 -10 10 -10 16 0 14 7
11 14 -7z m-12771 -13 c10 -10 -4 -43 -78 -181 -11 -19 -36 -82 -56 -140 -19
-58 -46 -132 -59 -165 -18 -49 -22 -78 -21 -160 1 -111 -4 -135 -24 -135 -30
0 -38 -41 -32 -169 6 -144 11 -165 39 -158 14 4 22 -2 29 -19 16 -45 7 -154
-14 -154 -10 0 -57 -50 -57 -62 0 -4 -18 -28 -41 -54 -30 -35 -39 -52 -34 -68
4 -12 10 -59 15 -106 5 -47 13 -109 19 -139 6 -29 11 -72 11 -95 0 -22 8 -71
17 -108 16 -63 16 -68 -1 -107 -18 -39 -18 -41 0 -78 24 -50 25 -215 1 -488
-10 -117 -16 -287 -16 -410 1 -221 -5 -330 -23 -432 -10 -55 -9 -66 10 -110
11 -26 26 -94 32 -150 15 -126 6 -153 -55 -166 -22 -5 -86 -22 -141 -38 -56
-16 -109 -29 -117 -29 -26 0 -47 53 -47 117 0 32 7 130 15 218 18 196 19 1133
3 1535 -20 487 -13 970 13 970 5 0 9 -6 9 -12 2 -63 23 -218 35 -254 22 -65
21 -135 -5 -296 -9 -62 -4 -84 16 -67 17 14 23 48 33 189 7 105 11 123 48 205
38 83 43 105 63 265 12 96 28 225 37 285 8 61 19 162 23 225 11 146 39 248
105 380 50 99 83 142 130 169 23 13 102 8 118 -8z m1271 -63 c4 -21 2 -39 -4
-43 -19 -12 -122 -35 -130 -30 -20 13 28 88 74 116 37 22 50 13 60 -43z
m-1726 -9 c17 -6 33 -17 36 -25 8 -21 -30 -107 -60 -135 -22 -21 -24 -29 -24
-129 0 -148 -8 -200 -31 -200 -17 0 -28 -24 -43 -92 -6 -26 -10 -28 -56 -28
-41 0 -52 -4 -65 -23 -27 -41 -59 -318 -85 -727 -13 -206 -28 -358 -36 -371
-27 -44 -42 115 -38 386 6 361 35 629 79 729 13 30 36 98 50 152 14 54 28 100
30 104 2 3 15 58 30 121 29 131 55 177 122 220 54 33 50 32 91 18z m2546 -146
c-32 -51 -67 -71 -57 -33 7 26 71 96 80 87 3 -4 -7 -28 -23 -54z m9036 53 c0
-2 -9 -6 -20 -9 -11 -3 -18 -1 -14 4 5 9 34 13 34 5z m-12630 -115 c0 -3 -12
-19 -26 -36 -26 -30 -111 -194 -132 -254 -9 -25 -17 -31 -40 -31 -16 0 -35 6
-41 14 -15 18 -3 42 84 176 34 52 68 105 74 118 15 28 51 44 69 30 6 -6 12
-13 12 -17z m10110 -780 c0 -6 14 -18 31 -28 l31 -18 -5 -95 c-4 -75 -12 -111
-36 -172 -25 -61 -31 -90 -30 -141 2 -76 -6 -103 -30 -110 -16 -4 -21 4 -31
47 -29 116 0 459 43 514 11 14 27 16 27 3z m-9913 -673 c-3 -51 -10 -181 -15
-288 -13 -244 -28 -433 -54 -670 -11 -102 -24 -231 -28 -286 -10 -115 -17
-158 -35 -210 l-12 -36 -7 43 c-10 62 2 364 19 489 8 58 20 206 26 330 16 325
25 419 44 470 9 25 18 72 20 105 5 71 24 145 37 145 6 0 8 -36 5 -92z m6303
-158 c0 -5 -2 -10 -4 -10 -3 0 -8 5 -11 10 -3 6 -1 10 4 10 6 0 11 -4 11 -10z
m635 -700 c0 -20 -189 -28 -212 -8 -14 11 -13 14 8 20 13 3 65 6 114 5 73 -2
90 -5 90 -17z m-7165 -479 c15 -47 8 -117 -14 -140 -23 -22 -50 -3 -54 38 -4
42 25 141 42 141 7 0 19 -18 26 -39z m87 -193 c-3 -7 -5 -2 -5 12 0 14 2 19 5
13 2 -7 2 -19 0 -25z m23 -256 c0 -25 -8 -40 -29 -58 -28 -24 -32 -34 -46
-116 -6 -39 -29 -55 -51 -37 -28 23 -16 66 36 125 33 37 55 74 62 102 12 49
28 40 28 -16z m7935 -93 c16 -17 19 -37 20 -123 0 -119 -13 -146 -69 -146 -53
0 -76 24 -76 78 1 75 17 181 30 197 18 22 74 19 95 -6z m-1395 -279 c16 -31
23 -141 11 -173 -9 -23 -16 -28 -39 -25 l-27 3 1 92 c0 59 5 97 13 107 18 21
28 20 41 -4z m-3484 -207 c-5 -12 -10 -13 -17 -6 -8 8 -7 18 2 34 12 21 14 22
17 6 2 -10 1 -25 -2 -34z m1931 -858 l21 -34 -26 -3 c-39 -5 -107 13 -90 23 7
5 24 9 38 9 20 0 22 2 10 10 -13 9 -13 11 0 20 21 14 23 13 47 -25z m6528 15
c-3 -6 4 -10 16 -10 12 0 20 -3 16 -6 -10 -10 -58 5 -52 16 3 6 11 10 16 10 6
0 7 -4 4 -10z m178 -7 c-7 -2 -21 -2 -30 0 -10 3 -4 5 12 5 17 0 24 -2 18 -5z
m-70 -10 c-7 -2 -21 -2 -30 0 -10 3 -4 5 12 5 17 0 24 -2 18 -5z m581 -51 c3
-5 -1 -9 -9 -9 -8 0 -12 4 -9 9 3 4 7 8 9 8 2 0 6 -4 9 -8z m-10094 -382 c24
-13 48 -86 33 -101 -6 -6 -48 -13 -94 -16 -46 -3 -103 -12 -127 -20 -87 -32
-76 29 15 82 26 16 59 36 72 47 26 20 72 24 101 8z"/>
<path d="M2313 7288 c-10 -17 -11 -171 -1 -190 5 -11 20 -18 39 -18 82 0 130
73 100 153 -13 33 -123 77 -138 55z"/>
<path d="M2604 6648 c-17 -14 -24 -29 -24 -54 0 -19 4 -34 10 -34 5 0 32 12
59 27 l49 28 41 -23 c49 -28 81 -26 97 7 25 50 0 63 -124 66 -69 1 -88 -2
-108 -17z"/>
<path d="M2789 6445 c-8 -8 -32 -16 -54 -19 -139 -18 -135 -17 -135 -57 0 -27
2 -29 41 -29 22 0 48 -4 58 -9 18 -10 137 -19 144 -11 3 3 8 19 11 36 5 24 1
37 -22 67 -25 31 -31 34 -43 22z"/>
<path d="M13421 8104 c0 -11 3 -14 6 -6 3 7 2 16 -1 19 -3 4 -6 -2 -5 -13z"/>
<path d="M13361 7854 c0 -11 3 -14 6 -6 3 7 2 16 -1 19 -3 4 -6 -2 -5 -13z"/>
<path d="M13332 7840 c0 -14 2 -19 5 -12 2 6 2 18 0 25 -3 6 -5 1 -5 -13z"/>
<path d="M13351 7804 c0 -11 3 -14 6 -6 3 7 2 16 -1 19 -3 4 -6 -2 -5 -13z"/>
<path d="M13292 7560 c0 -19 2 -27 5 -17 2 9 2 25 0 35 -3 9 -5 1 -5 -18z"/>
<path d="M14865 5790 c-3 -5 -1 -10 4 -10 6 0 11 5 11 10 0 6 -2 10 -4 10 -3
0 -8 -4 -11 -10z"/>
<path d="M14750 5738 c-16 -7 -20 -12 -12 -15 8 -3 21 2 30 11 19 18 17 19
-18 4z"/>
<path d="M1565 2817 c-74 -84 -83 -205 -30 -412 20 -78 35 -109 45 -99 12 12
14 504 3 515 -4 4 -13 2 -18 -4z"/>
<path d="M7287 8484 c-9 -9 -90 -14 -327 -20 l-215 -5 -82 -41 c-46 -22 -83
-44 -83 -49 0 -38 164 -66 240 -41 33 11 104 15 275 17 131 1 254 7 287 14 62
13 111 45 106 68 -5 27 -181 77 -201 57z"/>
<path d="M19170 8250 c-14 -36 -25 -70 -25 -76 0 -6 -5 -18 -11 -25 -18 -23
-27 -52 -29 -94 -2 -45 -23 -105 -35 -105 -5 0 -21 -39 -37 -87 -15 -48 -47
-121 -70 -162 -24 -42 -48 -91 -54 -111 -6 -19 -26 -62 -45 -95 -18 -33 -45
-91 -60 -130 -16 -38 -47 -104 -70 -145 -23 -41 -50 -95 -60 -120 -9 -25 -25
-56 -34 -70 -9 -14 -36 -63 -60 -110 -23 -47 -47 -91 -52 -97 -6 -7 -8 -13 -4
-13 6 0 -30 -76 -47 -98 -15 -19 -49 -114 -49 -137 0 -11 -9 -46 -19 -78 -11
-31 -19 -63 -19 -71 0 -8 -5 -16 -11 -18 -5 -2 -13 -28 -18 -58 -4 -31 -10
-61 -15 -68 -4 -6 -9 -21 -11 -33 -2 -11 -18 -57 -36 -102 -17 -45 -33 -98
-35 -117 -6 -46 -14 -72 -28 -90 -16 -20 -36 -90 -26 -90 11 0 -47 -170 -66
-191 -9 -10 -24 -48 -34 -86 -10 -37 -25 -84 -33 -103 -9 -19 -25 -69 -38
-110 -12 -41 -27 -80 -34 -85 -7 -6 -16 -26 -20 -45 -4 -19 -13 -48 -21 -65
-8 -16 -22 -54 -32 -82 -10 -29 -21 -50 -24 -47 -4 3 -10 -10 -14 -28 -10 -43
-8 -34 -28 -103 -9 -33 -33 -93 -52 -133 -19 -39 -34 -74 -34 -77 0 -3 -20
-36 -44 -73 -49 -74 -53 -85 -42 -123 8 -29 -12 -102 -40 -144 -8 -13 -15 -26
-15 -30 1 -3 -12 -35 -29 -71 -16 -37 -30 -73 -30 -81 0 -7 -11 -40 -24 -73
-14 -33 -22 -60 -19 -60 3 0 -2 -9 -11 -19 -10 -11 -15 -24 -12 -30 4 -5 1
-13 -5 -16 -5 -4 -8 -13 -5 -21 3 -7 0 -31 -7 -51 -10 -27 -13 -105 -11 -273
l2 -235 35 -125 c31 -109 74 -316 132 -637 19 -106 14 -205 -15 -268 -17 -36
-19 -78 -24 -385 -5 -363 -14 -465 -60 -694 -33 -161 -110 -434 -126 -449 -10
-9 -12 -8 -7 6 4 12 3 16 -4 11 -6 -3 -8 -15 -6 -26 3 -11 -4 -30 -19 -46 -13
-15 -24 -22 -24 -16 0 7 7 14 15 18 8 3 15 12 15 20 0 11 -7 8 -26 -9 -26 -24
-82 -30 -110 -13 -6 4 -14 4 -18 1 -4 -4 -23 -6 -42 -4 -19 1 -42 -3 -50 -9
-11 -10 -14 -10 -14 0 0 8 -8 10 -25 6 -17 -4 -25 -2 -25 6 0 9 -3 8 -10 -2
-5 -8 -10 -10 -10 -4 0 6 -7 11 -15 11 -8 0 -15 -5 -15 -11 0 -6 -5 -3 -11 8
-9 15 -13 16 -20 5 -7 -11 -9 -9 -10 6 l0 20 -9 -20 c-8 -18 -9 -19 -9 -1 -1
13 -6 16 -18 11 -10 -4 -31 -10 -48 -12 -16 -3 -37 -7 -45 -10 -8 -4 -21 -5
-27 -4 -7 1 -13 -2 -13 -6 0 -4 -24 -8 -52 -8 -45 1 -163 -21 -133 -24 6 -1 3
-6 -5 -11 -19 -12 -33 -13 -26 -1 4 5 -9 6 -29 1 -19 -4 -36 -5 -39 -2 -3 2
-12 0 -20 -7 -8 -7 -25 -9 -38 -6 -17 4 -29 0 -43 -15 -17 -19 -19 -19 -38 -3
-20 17 -20 17 -14 -1 6 -16 4 -17 -18 -12 -18 5 -31 1 -42 -10 -16 -16 -15
-16 7 -9 23 7 23 7 7 -10 -13 -13 -21 -14 -31 -6 -7 6 -21 9 -30 5 -9 -3 -16
-1 -16 5 0 6 -5 11 -11 11 -5 0 -7 -5 -4 -10 3 -6 1 -10 -5 -10 -6 0 -8 -5 -4
-12 4 -7 3 -8 -5 -4 -6 4 -18 3 -26 -4 -7 -6 -32 -11 -54 -12 -33 0 -41 -4
-41 -19 0 -12 -5 -16 -15 -13 -8 4 -17 -1 -21 -10 -6 -15 -7 -15 -19 0 -8 12
-14 14 -19 6 -4 -7 -5 -16 -2 -20 3 -5 -1 -9 -9 -9 -8 0 -12 4 -9 9 3 4 -1 8
-10 8 -8 0 -13 -8 -12 -17 2 -15 13 -18 54 -17 28 1 49 -2 47 -6 -2 -4 2 -7 9
-7 8 0 12 6 9 14 -3 8 2 13 15 13 11 0 23 -8 25 -17 3 -12 5 -10 6 7 1 22 6
25 39 26 20 1 100 15 177 32 77 17 161 35 186 40 l46 9 8 -61 c4 -34 9 -92 10
-131 4 -95 16 -150 70 -315 l46 -140 1225 0 1224 0 0 3555 c0 2363 -3 3555
-10 3555 -5 0 -10 -4 -10 -9 0 -5 -9 -11 -20 -14 -14 -4 -20 -14 -20 -33 0
-15 -10 -39 -22 -52 -16 -17 -19 -26 -10 -29 14 -6 16 -69 2 -78 -5 -3 -10 -2
-10 3 0 6 -7 13 -16 16 -13 5 -15 1 -10 -17 3 -14 -2 -35 -14 -55 -21 -34 -28
-112 -10 -112 14 0 12 -101 -2 -133 -20 -41 -28 -32 -29 31 -1 89 -17 33 -18
-64 -1 -86 -6 -101 -28 -83 -10 9 -13 8 -13 -4 0 -8 -7 -20 -15 -27 -8 -7 -15
-21 -15 -31 0 -11 7 -19 15 -19 8 0 15 -4 15 -9 0 -10 -94 -21 -120 -14 -15 4
-18 17 -11 56 0 4 8 7 16 7 10 0 15 10 15 29 0 17 5 33 10 36 6 3 9 18 9 33
-2 24 -2 24 -6 5 -2 -13 -9 -23 -14 -23 -5 0 1 24 12 53 28 70 27 67 34 110 6
44 21 77 35 77 5 0 12 16 16 35 3 19 10 35 15 35 5 0 9 9 9 21 0 11 9 42 21
69 12 27 19 55 17 62 -3 7 1 18 9 23 7 6 14 22 15 37 1 15 6 24 10 22 4 -3 8
-2 9 3 8 96 25 153 45 153 8 0 14 7 14 15 0 8 -4 15 -10 15 -5 0 -7 7 -3 16 4
11 8 12 13 4 12 -19 23 7 16 36 -4 14 -2 24 4 24 5 0 10 11 10 25 0 13 9 40
20 60 11 19 15 35 10 35 -6 0 -4 11 5 23 13 21 15 79 13 433 l-3 409 -25 -65z
m-153 -1957 c-3 -10 -5 -4 -5 12 0 17 2 24 5 18 2 -7 2 -21 0 -30z m-271 -120
c-11 -11 -17 4 -9 23 7 18 8 18 11 1 2 -10 1 -21 -2 -24z m3 -70 c-1 -21 -4
-49 -8 -63 -7 -23 -8 -21 -15 18 -5 26 -12 40 -19 35 -6 -3 -2 6 9 20 26 36
34 34 33 -10z m-29 -74 c0 -10 -7 -19 -15 -19 -9 0 -14 9 -13 24 3 28 28 24
28 -5z m-20 -113 c0 -22 -11 -46 -22 -46 -19 0 -37 -28 -41 -66 -4 -38 -4 -38
-5 8 -2 45 15 78 39 78 6 0 7 9 4 20 -5 14 -2 20 9 20 9 0 16 -6 16 -14z m-20
-136 c0 -5 -2 -10 -4 -10 -3 0 -8 5 -11 10 -3 6 -1 10 4 10 6 0 11 -4 11 -10z
m-61 -17 c0 -5 -4 -17 -9 -28 -8 -18 -9 -17 -9 8 -1 15 4 27 9 27 6 0 10 -3 9
-7z m1 -113 c0 -40 0 -40 -40 -40 -37 0 -39 2 -31 23 4 12 18 26 29 32 12 5
22 13 22 17 0 5 5 8 10 8 6 0 10 -18 10 -40z m-2510 -5084 c0 -3 -4 -8 -10
-11 -5 -3 -10 -1 -10 4 0 6 5 11 10 11 6 0 10 -2 10 -4z"/>
<path d="M11858 8176 c-9 -7 -24 -32 -34 -57 -9 -24 -21 -49 -26 -56 -19 -24
-160 -33 -698 -43 -995 -19 -1903 -48 -2165 -70 -66 -6 -178 -15 -250 -20
-179 -14 -1055 -13 -1420 1 -165 6 -335 8 -377 5 -52 -4 -79 -3 -84 5 -4 7
-18 8 -38 4 -17 -5 -80 -7 -139 -6 -129 3 -160 -9 -155 -62 4 -44 35 -57 139
-57 66 0 90 -4 99 -15 7 -9 26 -25 42 -37 l30 -20 36 35 c31 29 47 36 92 41
30 3 372 8 760 11 388 3 858 7 1045 10 187 3 567 7 845 10 494 5 890 10 1515
20 171 3 395 5 498 6 208 0 223 -3 255 -63 37 -66 39 -67 57 -21 10 26 31 51
56 69 36 24 52 28 145 33 118 7 134 16 134 77 0 52 -27 64 -147 64 -56 0 -113
5 -127 11 -25 12 -46 54 -46 94 0 31 -21 47 -42 31z"/>
<path d="M4725 7970 c3 -5 8 -10 11 -10 2 0 4 5 4 10 0 6 -5 10 -11 10 -5 0
-7 -4 -4 -10z"/>
<path d="M14930 7910 c-30 -4 -77 -15 -105 -24 -27 -9 -61 -17 -75 -18 -14 -2
-28 -7 -32 -13 -5 -6 -8 -5 -8 3 0 6 -4 12 -10 12 -5 0 -10 -7 -10 -16 0 -13
-3 -14 -14 -5 -10 8 -16 9 -21 1 -3 -6 -11 -8 -16 -5 -5 4 -9 -7 -9 -24 0 -29
-11 -34 -37 -18 -8 5 -22 0 -35 -12 -12 -12 -17 -21 -11 -21 6 0 8 -11 5 -26
-4 -25 -3 -26 21 -20 16 4 27 1 30 -7 4 -9 6 -9 6 1 1 7 5 10 11 7 5 -3 29 0
52 6 24 7 48 13 54 15 7 1 53 20 103 43 50 23 97 41 104 41 7 0 18 5 25 12 21
21 151 11 275 -20 36 -10 54 2 22 14 -8 4 -15 13 -15 21 0 8 -13 19 -30 24
-16 6 -30 15 -30 19 0 4 -8 6 -19 3 -10 -3 -22 0 -25 6 -8 12 -119 13 -206 1z"/>
<path d="M14815 7723 c-28 -6 -88 -36 -97 -48 -4 -5 -8 -6 -8 -1 0 10 -69 -66
-70 -77 0 -5 10 -5 23 -1 21 6 21 6 5 -13 -24 -26 -23 -33 5 -33 18 0 19 2 7
10 -12 8 -12 10 5 10 11 0 40 16 65 36 l44 35 11 -32 c6 -17 21 -40 34 -50 44
-36 125 -18 144 31 12 31 33 36 31 7 -2 -25 79 -42 101 -21 7 7 24 16 39 20
34 8 33 32 -1 45 -16 6 -42 24 -59 40 -17 16 -46 34 -65 39 -33 10 -175 12
-214 3z m55 -27 c-37 -14 -54 -11 -30 4 8 6 26 9 40 9 22 0 21 -2 -10 -13z"/>
<path d="M7470 7643 c-16 -21 -20 -35 -15 -64 5 -29 2 -41 -18 -65 -29 -35
-53 -112 -63 -204 -3 -36 -19 -98 -35 -138 -24 -59 -31 -97 -38 -200 -5 -70
-7 -131 -4 -135 3 -5 7 -97 10 -205 2 -109 5 -208 5 -222 1 -14 0 -43 -2 -65
-1 -22 5 -76 13 -120 9 -44 20 -176 26 -294 8 -167 14 -219 26 -238 18 -26 11
-26 124 -11 19 2 26 -3 30 -22 4 -14 2 -170 -3 -347 -7 -252 -6 -333 4 -368 7
-25 18 -45 25 -45 26 0 37 69 45 275 5 116 11 221 14 235 3 14 10 108 16 210
17 310 67 817 101 1023 13 80 8 107 -30 156 -39 50 -43 76 -20 140 l19 56 -31
103 c-30 102 -54 219 -68 337 -5 34 -13 70 -19 82 -6 11 -10 44 -9 73 2 41 -2
54 -17 66 -30 22 -62 17 -86 -13z"/>
<path d="M7983 7558 c-29 -37 -15 -84 23 -76 21 4 29 28 20 64 -7 26 -28 32
-43 12z"/>
<path d="M15531 7412 c-7 -13 -11 -30 -9 -38 3 -13 5 -13 23 -1 16 12 17 19 9
38 l-11 24 -12 -23z"/>
<path d="M7205 7373 c-4 -27 -13 -68 -21 -92 -8 -25 -14 -53 -14 -63 0 -25 40
-24 74 3 22 17 26 28 26 70 0 49 -31 129 -50 129 -5 0 -12 -21 -15 -47z"/>
<path d="M15941 7194 c0 -11 3 -14 6 -6 3 7 2 16 -1 19 -3 4 -6 -2 -5 -13z"/>
<path d="M14476 6920 c-45 -37 -52 -40 -111 -40 -57 0 -67 3 -97 30 -31 29
-68 40 -68 21 0 -16 62 -48 148 -76 l83 -28 39 43 c21 23 40 37 44 32 9 -15
59 -9 90 11 l28 19 -27 14 c-45 23 -77 17 -129 -26z m74 -4 c0 -2 -7 -7 -16
-10 -8 -3 -12 -2 -9 4 6 10 25 14 25 6z"/>
<path d="M12981 6794 c0 -11 3 -14 6 -6 3 7 2 16 -1 19 -3 4 -6 -2 -5 -13z"/>
<path d="M19026 6705 c-3 -8 -1 -15 4 -15 6 0 10 7 10 15 0 8 -2 15 -4 15 -2
0 -6 -7 -10 -15z"/>
<path d="M15982 6690 c0 -14 2 -19 5 -12 2 6 2 18 0 25 -3 6 -5 1 -5 -13z"/>
<path d="M14846 6693 c-3 -3 -88 -8 -188 -9 -101 -2 -196 -7 -213 -12 -40 -11
-394 -3 -418 10 -10 5 -21 7 -24 4 -8 -7 100 -71 115 -68 6 2 12 -1 12 -5 0
-5 15 -10 33 -11 17 -1 66 -7 107 -14 90 -13 228 -13 288 2 24 6 67 12 95 14
65 5 80 8 90 21 4 6 10 5 15 -3 7 -10 15 -8 38 11 16 13 39 27 52 31 23 8 29
21 13 30 -4 3 -11 3 -15 -1z"/>
<path d="M14120 6555 c0 -13 82 -85 90 -80 6 3 10 -1 10 -10 0 -11 5 -15 15
-11 9 3 15 0 15 -9 0 -30 71 -53 191 -62 58 -4 99 -1 125 7 48 16 82 41 77 57
-2 6 8 20 24 29 15 10 36 26 46 36 17 17 17 20 2 34 -14 15 -17 14 -34 -5 -10
-12 -23 -21 -30 -21 -6 0 -11 -5 -11 -11 0 -5 -4 -7 -10 -4 -5 3 -10 3 -10 -2
0 -12 -70 -41 -117 -48 -29 -5 -43 -12 -46 -26 -5 -20 -34 -17 -49 5 -5 7 -8
6 -8 -2 0 -10 -4 -10 -16 2 -9 9 -32 16 -54 16 -21 0 -45 7 -54 15 -8 8 -22
12 -31 9 -9 -4 -15 -3 -14 2 4 21 -2 34 -15 34 -7 0 -24 8 -37 18 -25 19 -59
35 -59 27z"/>
<path d="M16031 6180 c0 -14 9 -56 19 -95 10 -39 18 -57 18 -40 -1 17 2 41 6
55 6 19 5 21 -3 10 -9 -12 -11 -10 -11 10 -1 14 -7 39 -15 55 -13 29 -13 29
-14 5z"/>
<path d="M14191 5864 c-37 -26 -91 -44 -134 -44 -23 0 -27 -4 -23 -18 4 -12
-6 -35 -26 -63 -18 -25 -38 -53 -44 -64 -6 -11 -20 -21 -31 -23 -15 -2 -19 -9
-15 -31 3 -24 -7 -66 -34 -136 -8 -19 -7 -19 10 -2 9 9 22 17 27 17 5 0 9 6 9
13 0 8 12 19 27 26 24 11 29 10 45 -9 16 -20 23 -16 20 11 -1 4 14 3 33 -1 34
-8 35 -7 29 19 -4 19 -3 22 5 11 8 -12 13 -12 30 4 11 10 27 16 35 13 8 -3 22
3 31 13 9 10 23 16 31 13 9 -3 12 0 9 9 -3 8 2 21 11 29 16 12 17 12 9 -1 -5
-8 8 0 29 18 l37 33 59 -58 c32 -31 62 -69 66 -83 l6 -25 10 25 c7 18 6 26 -4
29 -7 2 -32 25 -56 50 -36 38 -42 52 -40 80 4 46 19 48 61 12 44 -39 65 -41
38 -3 -11 16 -23 40 -26 55 -5 19 -14 27 -29 27 -28 0 -117 42 -135 63 -18 22
-29 20 -70 -9z"/>
<path d="M14574 5795 c19 -98 59 -167 87 -149 26 16 -2 113 -43 150 -45 41
-51 41 -44 -1z"/>
<path d="M14510 5645 c14 -8 41 -14 61 -15 44 0 45 -2 59 -118 6 -48 17 -108
24 -133 8 -25 11 -52 6 -59 -8 -13 -65 -16 -99 -5 -30 9 -26 -9 4 -23 14 -6
32 -27 41 -46 46 -95 184 -58 184 50 0 17 4 23 12 18 7 -4 8 -3 4 5 -4 6 -11
9 -16 6 -4 -3 -10 2 -14 10 -3 8 -16 20 -30 26 -29 14 -48 52 -40 83 3 13 -2
31 -14 46 -11 14 -23 36 -27 50 -4 14 -12 28 -17 31 -6 4 -13 22 -17 40 -6 32
-10 34 -47 35 -22 0 -53 4 -70 7 l-29 7 25 -15z m237 -335 c3 -11 9 -17 14
-14 17 10 9 -43 -8 -57 -15 -12 -16 -12 -8 1 6 11 3 10 -12 -2 -11 -10 -28
-18 -38 -18 -26 0 -55 29 -55 54 0 15 3 17 9 8 6 -10 10 -9 14 8 4 17 10 20
31 14 20 -5 26 -2 26 10 0 23 21 20 27 -4z"/>
<path d="M7385 5550 c-9 -28 4 -80 19 -80 20 0 36 22 36 50 0 46 -43 69 -55
30z"/>
<path d="M14436 5492 c-3 -5 1 -9 9 -9 8 0 15 4 15 9 0 4 -4 8 -9 8 -6 0 -12
-4 -15 -8z"/>
<path d="M14730 5431 c0 -11 47 -28 80 -29 18 -1 21 1 11 8 -8 4 -21 6 -29 2
-11 -4 -13 -2 -7 8 6 10 4 12 -8 7 -10 -3 -17 -2 -17 3 0 6 -7 10 -15 10 -8 0
-15 -4 -15 -9z"/>
<path d="M14192 5415 c-9 -11 -10 -20 -3 -33 9 -15 10 -15 11 6 0 12 5 22 10
22 6 0 10 5 10 10 0 14 -13 12 -28 -5z"/>
<path d="M14159 5384 c-1 -5 -1 -12 0 -16 0 -4 -6 -5 -13 -2 -11 4 -13 0 -9
-15 3 -12 9 -24 13 -26 10 -6 25 54 16 62 -3 4 -7 2 -7 -3z"/>
<path d="M14390 5269 c-63 -44 -144 -107 -180 -140 l-65 -60 73 51 c39 27 76
50 81 50 5 0 18 10 28 23 19 25 23 27 49 27 8 0 12 5 9 10 -3 6 3 10 14 10 11
0 22 8 25 18 6 17 84 68 98 64 4 -1 5 5 2 13 -4 8 -9 15 -13 14 -3 0 -58 -37
-121 -80z"/>
<path d="M14112 5319 c-8 -12 -9 -26 -4 -35 7 -12 11 -10 22 11 17 32 1 54
-18 24z"/>
<path d="M14907 5293 c-2 -5 -7 -20 -10 -34 -5 -18 -3 -26 8 -26 8 0 12 4 9 9
-7 11 3 10 27 -2 10 -6 19 -17 19 -25 0 -9 10 -15 26 -15 22 0 24 -3 15 -14
-10 -12 -9 -14 6 -12 10 2 28 -6 40 -18 22 -22 124 -79 130 -72 2 1 -20 19
-49 38 -29 20 -90 68 -135 107 -45 39 -84 68 -86 64z"/>
<path d="M14101 5244 c0 -11 3 -14 6 -6 3 7 2 16 -1 19 -3 4 -6 -2 -5 -13z"/>
<path d="M14657 5119 c7 -7 15 -10 18 -7 3 3 -2 9 -12 12 -14 6 -15 5 -6 -5z"/>
<path d="M13960 5102 c0 -6 5 -14 11 -17 6 -4 8 -14 5 -22 -4 -9 -2 -11 6 -7
8 5 9 0 5 -15 -3 -13 -3 -21 0 -18 3 3 16 -6 30 -21 14 -15 21 -20 15 -12 -5
8 -13 29 -16 46 -7 30 -56 89 -56 66z"/>
<path d="M14104 5028 l-29 -33 33 29 c30 28 37 36 29 36 -2 0 -16 -15 -33 -32z"/>
<path d="M14775 5050 c-3 -5 -2 -10 4 -10 5 0 13 5 16 10 3 6 2 10 -4 10 -5 0
-13 -4 -16 -10z"/>
<path d="M7292 5009 c-36 -119 -51 -380 -56 -1013 l-5 -498 -25 -37 c-32 -46
-33 -85 -4 -105 28 -20 33 -20 51 -1 10 10 13 27 10 58 -4 32 0 55 16 85 18
36 22 65 26 195 3 83 9 224 15 312 13 196 28 724 24 820 -7 136 -14 189 -28
203 -12 12 -15 9 -24 -19z"/>
<path d="M14660 4908 c-16 -22 -30 -46 -30 -52 -1 -6 -7 -37 -15 -69 -10 -43
-10 -57 -2 -54 7 2 13 15 13 28 3 43 16 89 25 83 5 -3 9 2 9 11 0 11 5 15 14
12 8 -3 20 1 26 9 7 8 19 14 26 14 18 0 54 -36 46 -46 -4 -4 -1 -4 6 0 6 4 12
4 12 -1 0 -4 12 -21 26 -38 l25 -30 -17 34 c-17 36 -111 141 -125 141 -5 0
-22 -19 -39 -42z"/>
<path d="M14599 4708 c-5 -65 -5 -98 -1 -93 4 3 7 16 8 28 2 12 5 34 8 50 4
15 2 27 -4 27 -5 0 -10 -6 -11 -12z"/>
<path d="M14593 4565 c0 -22 2 -30 4 -17 2 12 2 30 0 40 -3 9 -5 -1 -4 -23z"/>
<path d="M14591 4384 c0 -11 3 -14 6 -6 3 7 2 16 -1 19 -3 4 -6 -2 -5 -13z"/>
<path d="M7426 4372 c-4 -6 -9 -33 -12 -59 -3 -27 -8 -55 -11 -63 -4 -13 -43
-699 -45 -797 -1 -47 8 -63 35 -63 38 0 50 23 43 79 -4 32 -1 64 8 93 8 23 17
57 20 73 4 17 9 41 11 55 3 14 13 103 21 198 l15 172 -25 130 c-28 142 -48
202 -60 182z"/>
<path d="M17472 3930 c0 -14 2 -19 5 -12 2 6 2 18 0 25 -3 6 -5 1 -5 -13z"/>
<path d="M14842 3781 c25 -36 50 -66 57 -67 6 -1 7 0 1 3 -5 2 -7 10 -3 16 3
7 2 9 -2 4 -10 -9 -46 43 -39 55 3 5 1 7 -4 6 -5 -2 -19 8 -32 22 -12 14 -2
-4 22 -39z"/>
<path d="M16506 3674 c-10 -25 1 -29 14 -5 6 12 7 21 1 21 -5 0 -12 -7 -15
-16z"/>
<path d="M16473 3628 c-19 -24 -34 -58 -25 -58 4 0 16 16 25 35 17 36 17 45 0
23z"/>
<path d="M16466 3023 c-5 -17 -42 -211 -71 -373 -18 -106 -24 -188 -30 -410
-3 -107 -10 -221 -16 -253 -5 -31 -7 -62 -3 -68 4 -6 0 -15 -7 -20 -24 -15 48
-11 86 5 59 25 61 41 34 299 -13 128 -19 285 -12 321 3 16 26 49 50 74 47 47
42 47 -18 0 -20 -15 -45 -45 -55 -65 -17 -34 -19 -36 -22 -15 -4 25 26 243 57
412 17 98 20 136 7 93z"/>
<path d="M12465 2774 c-75 -26 -185 -88 -191 -106 -3 -10 -23 -41 -45 -70 -21
-29 -39 -59 -39 -68 0 -8 -9 -44 -21 -80 -35 -113 -10 -256 50 -279 72 -27 72
-27 65 26 -3 26 -12 91 -20 143 -19 131 -18 199 7 264 25 69 72 108 183 153
80 32 88 45 11 17z"/>
<path d="M17258 2723 c7 -3 16 -2 19 1 4 3 -2 6 -13 5 -11 0 -14 -3 -6 -6z"/>
<path d="M17343 2705 c94 -26 246 -135 269 -193 4 -9 7 -36 7 -59 1 -41 20
-72 22 -36 1 10 3 34 5 53 4 54 -36 114 -109 161 -34 21 -67 43 -74 49 -13 11
-128 40 -153 39 -8 0 7 -7 33 -14z"/>
<path d="M13784 1793 c-24 -104 -87 -272 -163 -437 -22 -46 -52 -115 -67 -153
-59 -148 -125 -242 -192 -270 -35 -15 -122 -9 -122 8 0 5 -9 9 -21 9 -11 0
-17 -4 -14 -10 3 -5 1 -10 -4 -10 -6 0 -11 5 -11 11 0 7 -9 9 -23 5 -13 -3
-32 1 -43 8 -10 7 -37 16 -59 19 -22 3 -49 8 -60 12 -16 6 -17 5 -5 -4 13 -9
12 -11 -5 -11 -11 0 -28 -7 -37 -14 -17 -12 -17 -14 0 -28 47 -40 95 -52 219
-54 108 -1 124 1 139 17 9 11 27 19 38 19 12 0 32 7 44 16 12 8 27 12 32 9 5
-3 21 6 35 21 14 16 33 29 41 30 27 4 41 24 48 64 3 22 15 48 26 57 11 10 20
23 20 30 0 6 9 18 21 26 11 8 22 21 23 28 2 8 6 22 10 31 4 9 5 22 1 28 -4 6
5 22 20 36 15 14 24 31 21 39 -6 16 38 55 61 55 7 0 16 7 20 16 5 13 7 13 14
2 6 -9 9 -6 9 12 1 41 15 55 64 59 4 1 6 8 2 16 -3 9 0 15 9 15 21 0 19 15 -2
18 -47 5 -58 10 -60 28 -4 29 -11 76 -17 112 -3 18 -1 30 3 28 8 -6 5 53 -4
62 -2 3 0 14 6 25 8 15 8 18 -1 12 -9 -5 -10 -1 -5 14 3 11 4 21 1 21 -3 0 -8
-12 -12 -27z m-507 -879 c-3 -3 -12 -4 -19 -1 -8 3 -5 6 6 6 11 1 17 -2 13 -5z"/>
<path d="M12426 1565 c25 -45 186 -257 191 -252 1 2 -3 22 -9 46 -8 32 -29 61
-82 116 -39 40 -84 88 -100 106 l-28 34 28 -50z"/>
<path d="M13825 1450 c-3 -5 -1 -10 4 -10 6 0 11 5 11 10 0 6 -2 10 -4 10 -3
0 -8 -4 -11 -10z"/>
<path d="M12864 1005 c8 -8 22 -15 31 -15 9 0 23 -7 31 -15 9 -8 21 -15 27
-15 17 1 -32 40 -49 40 -8 0 -14 5 -14 10 0 6 -9 10 -21 10 -18 0 -19 -2 -5
-15z"/>
<path d="M11906 945 c4 -8 11 -15 16 -15 6 0 5 6 -2 15 -7 8 -14 15 -16 15 -2
0 -1 -7 2 -15z"/>
<path d="M13258 953 c7 -3 16 -2 19 1 4 3 -2 6 -13 5 -11 0 -14 -3 -6 -6z"/>
<path d="M15967 564 c3 -9 -1 -14 -12 -14 -9 0 -13 -4 -10 -10 3 -5 15 -10 25
-10 21 0 24 36 3 44 -7 3 -10 -1 -6 -10z"/>
<path d="M14300 527 c3 -3 75 -15 160 -26 85 -12 165 -23 178 -25 12 -2 24 0
27 3 2 4 -62 15 -143 25 -81 9 -165 20 -187 23 -22 3 -38 3 -35 0z"/>
<path d="M15860 519 c0 -5 5 -7 10 -4 6 3 10 8 10 11 0 2 -4 4 -10 4 -5 0 -10
-5 -10 -11z"/>
<path d="M15950 499 c0 -5 5 -7 10 -4 6 3 10 8 10 11 0 2 -4 4 -10 4 -5 0 -10
-5 -10 -11z"/>
<path d="M14680 480 c0 -5 12 -10 28 -9 24 0 25 1 7 9 -27 12 -35 12 -35 0z"/>
<path d="M15828 484 c-3 -3 -25 -7 -49 -9 -24 -3 -78 -8 -119 -13 -41 -5 -167
-9 -280 -9 -184 0 -281 3 -545 21 -46 3 -74 2 -65 -3 8 -5 80 -12 160 -16 79
-3 147 -8 150 -10 5 -3 356 -19 375 -17 6 1 57 4 115 7 58 3 130 10 160 16 30
6 66 12 79 13 14 1 26 7 29 14 4 13 -1 16 -10 6z"/>
<path d="M15850 481 c0 -10 26 -9 36 2 4 4 -2 7 -14 7 -12 0 -22 -4 -22 -9z"/>
<path d="M402 194 c-12 -8 -22 -19 -22 -25 0 -15 37 -10 54 7 33 33 9 47 -32
18z"/>
</g>
</svg>
