<svg id="Layer_2" data-name="Layer 2" xmlns="http://www.w3.org/2000/svg" viewBox="0 0 128 128"><title>HEADPHONES</title><path d="M78.191,46.637v-9.1a1.75,1.75,0,0,0-1.75-1.75h-.974V28.853a1.75,1.75,0,0,0-1.75-1.75H70.293V20.169a1.75,1.75,0,0,0-1.75-1.75H65.75V16.75h7.967a1.75,1.75,0,0,0,0-3.5H45.328A6.757,6.757,0,0,0,38.578,20a1.75,1.75,0,0,0,3.5,0,3.253,3.253,0,0,1,3.25-3.25H62.25v1.669H59.457a1.75,1.75,0,0,0-1.75,1.75V27.1H54.283a1.75,1.75,0,0,0-1.75,1.75v6.934h-.974a1.75,1.75,0,0,0-1.75,1.75v9.1a25.814,25.814,0,0,0-11.6,21.524v38.445a8.154,8.154,0,0,0,8.144,8.145h35.3a8.154,8.154,0,0,0,8.144-8.145V68.161A25.814,25.814,0,0,0,78.191,46.637ZM61.207,21.919h5.587V27.1H61.207ZM56.033,30.6H71.967v5.184H56.033Zm-2.724,8.684H74.691v6.092H53.309Zm32.986,67.318a4.65,4.65,0,0,1-4.644,4.645H46.35a4.65,4.65,0,0,1-4.644-4.645v-2.321H86.294Zm0-5.821H41.706V71.215H86.294ZM41.72,67.715a22.315,22.315,0,0,1,11.1-18.836H75.182a22.315,22.315,0,0,1,11.1,18.836Z"/><path d="M54.42,91.384h4.195v4.2a2.1,2.1,0,0,0,2.1,2.1h6.578a2.1,2.1,0,0,0,2.1-2.1v-4.2H73.58a2.1,2.1,0,0,0,2.1-2.1V82.71a2.1,2.1,0,0,0-2.1-2.1H69.385v-4.2a2.1,2.1,0,0,0-2.1-2.1H60.711a2.1,2.1,0,0,0-2.1,2.1v4.2H54.42a2.1,2.1,0,0,0-2.1,2.1v6.579A2.1,2.1,0,0,0,54.42,91.384Zm1.4-7.269h6.291V77.824h3.77v6.291h6.291v3.769H65.885v6.291h-3.77V87.884H55.825Z"/><path d="M39.66,29.12a2.538,2.538,0,0,0,.33.1,1.868,1.868,0,0,0,.34.03,1.752,1.752,0,1,0-.34-3.47,2.616,2.616,0,0,0-.33.1,2.086,2.086,0,0,0-.3.16,1.965,1.965,0,0,0-.27.22,1.762,1.762,0,0,0,0,2.48,1.393,1.393,0,0,0,.27.21A1.433,1.433,0,0,0,39.66,29.12Z"/><path d="M98.2,35.931a1.75,1.75,0,0,0,1.75-1.75V31.506a1.75,1.75,0,1,0-3.5,0v2.675A1.75,1.75,0,0,0,98.2,35.931Z"/><path d="M94.945,35.885H92.27a1.75,1.75,0,0,0,0,3.5h2.675a1.75,1.75,0,0,0,0-3.5Z"/><path d="M98.4,45.318a1.75,1.75,0,0,0,1.75-1.75V40.894a1.75,1.75,0,1,0-3.5,0v2.675A1.75,1.75,0,0,0,98.4,45.318Z"/><path d="M104.332,35.69h-2.675a1.75,1.75,0,1,0,0,3.5h2.675a1.75,1.75,0,0,0,0-3.5Z"/><path d="M22.6,45.523a1.75,1.75,0,0,0,1.75-1.75V41.1a1.75,1.75,0,0,0-3.5,0v2.675A1.75,1.75,0,0,0,22.6,45.523Z"/><path d="M19.342,45.477H16.667a1.75,1.75,0,1,0,0,3.5h2.675a1.75,1.75,0,1,0,0-3.5Z"/><path d="M22.8,48.735a1.75,1.75,0,0,0-1.75,1.75v2.675a1.75,1.75,0,0,0,3.5,0V50.485A1.75,1.75,0,0,0,22.8,48.735Z"/><path d="M28.729,45.282H26.054a1.75,1.75,0,0,0,0,3.5h2.675a1.75,1.75,0,1,0,0-3.5Z"/></svg>